<svg xmlns="http://www.w3.org/2000/svg" viewBox="0 0 512 512" role="img" aria-labelledby="title desc">
  <title id="title">Judgify logo</title>
  <desc id="desc">A glossy blue and orange J mark with a white check.</desc>
  <defs>
    <linearGradient id="blueFace" x1="145" y1="104" x2="315" y2="382" gradientUnits="userSpaceOnUse">
      <stop offset="0" stop-color="#18b7ff"/>
      <stop offset=".45" stop-color="#006de4"/>
      <stop offset="1" stop-color="#001b75"/>
    </linearGradient>
    <linearGradient id="orangeFace" x1="322" y1="102" x2="427" y2="398" gradientUnits="userSpaceOnUse">
      <stop offset="0" stop-color="#ffcf28"/>
      <stop offset=".42" stop-color="#ff7410"/>
      <stop offset="1" stop-color="#d31c00"/>
    </linearGradient>
    <linearGradient id="checkFace" x1="119" y1="351" x2="408" y2="174" gradientUnits="userSpaceOnUse">
      <stop offset="0" stop-color="#11a5ff"/>
      <stop offset=".36" stop-color="#a7e9ff"/>
      <stop offset=".68" stop-color="#fff9d7"/>
      <stop offset="1" stop-color="#fff0a6"/>
    </linearGradient>
    <linearGradient id="checkEdge" x1="117" y1="359" x2="416" y2="181" gradientUnits="userSpaceOnUse">
      <stop offset="0" stop-color="#003d9a"/>
      <stop offset=".48" stop-color="#0d73d8"/>
      <stop offset="1" stop-color="#f36f00"/>
    </linearGradient>
    <filter id="shadow" x="-20%" y="-20%" width="140%" height="145%" color-interpolation-filters="sRGB">
      <feDropShadow dx="0" dy="20" stdDeviation="18" flood-color="#010723" flood-opacity=".45"/>
      <feDropShadow dx="10" dy="8" stdDeviation="10" flood-color="#ff5a00" flood-opacity=".3"/>
      <feDropShadow dx="-10" dy="4" stdDeviation="10" flood-color="#0096ff" flood-opacity=".28"/>
    </filter>
    <filter id="innerGlow" x="-10%" y="-10%" width="120%" height="120%">
      <feGaussianBlur in="SourceAlpha" stdDeviation="2" result="blur"/>
      <feOffset dx="-2" dy="-2" result="offset"/>
      <feComposite in="offset" in2="SourceAlpha" operator="arithmetic" k2="-1" k3="1" result="inner"/>
      <feColorMatrix in="inner" type="matrix" values="0 0 0 0 1 0 0 0 0 .95 0 0 0 0 .7 0 0 0 .7 0"/>
      <feComposite in2="SourceGraphic" operator="over"/>
    </filter>
  </defs>

  <g filter="url(#shadow)">
    <path
      d="M175 101h151c16 0 27 13 24 29l-23 135c-16 94-87 153-177 153-54 0-98-19-130-53l52-62c23 22 48 32 78 32 44 0 77-26 87-70l8-37H121l13-76h126l8-46h-93z"
      fill="#06255e"
      opacity=".96"
      transform="translate(5 7)"
    />
    <path
      d="M174 92h153c16 0 28 14 25 30l-24 138c-16 96-89 156-181 156-56 0-101-20-134-55l53-63c23 23 50 34 81 34 45 0 79-27 89-72l8-38H116l14-79h128l8-49h-92z"
      fill="url(#blueFace)"
      stroke="#20b4ff"
      stroke-width="7"
      stroke-linejoin="round"
      filter="url(#innerGlow)"
    />
    <path
      d="M326 94h82c14 0 25 12 24 27l-13 153c-8 91-56 142-134 147 30-33 48-76 56-126l26-153h-52z"
      fill="#7d1706"
      opacity=".95"
      transform="translate(6 8)"
    />
    <path
      d="M323 88h88c16 0 28 13 27 29l-14 158c-9 94-60 149-144 154 33-35 53-81 62-135l27-156h-58z"
      fill="url(#orangeFace)"
      stroke="#ff9d1a"
      stroke-width="7"
      stroke-linejoin="round"
      filter="url(#innerGlow)"
    />
    <path
      d="M65 313l61-48 86 54L407 139 446 173 214 392z"
      fill="#00337d"
      opacity=".86"
      transform="translate(6 12)"
    />
    <path
      d="M62 300l63-49 86 54L411 126 452 160 214 380z"
      fill="url(#checkEdge)"
      stroke="#0c3c94"
      stroke-width="7"
      stroke-linejoin="round"
    />
    <path
      d="M82 300l46-36 85 55 185-166-185 197z"
      fill="url(#checkFace)"
      stroke="#fff7c8"
      stroke-width="5"
      stroke-linejoin="round"
    />
    <path
      d="M175 108h139c9 0 16 7 14 16l-4 23H166z"
      fill="#69d8ff"
      opacity=".38"
    />
    <path
      d="M385 108h23c7 0 13 6 12 13l-10 116c-3 37-14 69-32 95 12-54 20-119 24-196h-22z"
      fill="#ffe08a"
      opacity=".36"
    />
  </g>
</svg>
