<?xml version="1.0" encoding="us-ascii" standalone="no"?><svg xmlns="http://www.w3.org/2000/svg" xmlns:xlink="http://www.w3.org/1999/xlink" contentStyleType="text/css" height="1010.9375px" preserveAspectRatio="none" style="width:1534px;height:1010px;background:#F7FAFF;" version="1.1" viewBox="0 0 1534 1010" width="1534.375px" zoomAndPan="magnify"><defs/><g><rect fill="#F7FAFF" height="1010.9375" style="stroke:none;stroke-width:1.5625;" width="1534.375" x="0" y="0"/><rect fill="#E7F0FF" height="62.793" id="_title" rx="9.375" ry="9.375" style="stroke:#B8CBEC;stroke-width:1.5625;" width="417.1875" x="547.6563" y="7.8125"/><text fill="#13294B" font-family="Inter" font-size="37.5" font-weight="bold" lengthAdjust="spacing" textLength="401.5625" x="555.4688" y="54.5532">C4 Container - Judgify</text><!--cluster browser--><g id="cluster_browser"><rect fill="#FFFFFF" height="167.1875" rx="9.375" ry="9.375" style="stroke:#9BB3D5;stroke-width:1.5625;" width="287.5" x="387.5" y="340.1367"/><text fill="#172B4D" font-family="Inter" font-size="21.875" font-weight="bold" lengthAdjust="spacing" textLength="92.1875" x="485.1563" y="365.9698">Browser</text></g><!--cluster apiHost--><g id="cluster_apiHost"><rect fill="#FFFFFF" height="407.8125" rx="9.375" ry="9.375" style="stroke:#9BB3D5;stroke-width:1.5625;" width="425" x="712.5" y="340.1367"/><text fill="#172B4D" font-family="Inter" font-size="21.875" font-weight="bold" lengthAdjust="spacing" textLength="226.5625" x="811.7188" y="365.9698">Render Web Service</text></g><!--entity frontend--><g id="elem_frontend"><rect fill="#FFFFFF" height="86.2793" rx="9.375" ry="9.375" style="stroke:#82A6D9;stroke-width:0.78125;" width="237.5" x="412.5" y="396.3867"/><text fill="#172B4D" font-family="Inter" font-size="21.875" lengthAdjust="spacing" textLength="198.4375" x="432.0313" y="434.7198">React/Vite Frontend</text><text fill="#172B4D" font-family="Inter" font-size="21.875" lengthAdjust="spacing" textLength="206.25" x="428.125" y="462.2345">Static site on Render</text></g><!--entity api--><g id="elem_api"><rect fill="#FFFFFF" height="86.2793" rx="9.375" ry="9.375" style="stroke:#82A6D9;stroke-width:0.78125;" width="373.4375" x="738.2813" y="637.0117"/><text fill="#172B4D" font-family="Inter" font-size="21.875" lengthAdjust="spacing" textLength="173.4375" x="838.2813" y="675.3448">Django REST API</text><text fill="#172B4D" font-family="Inter" font-size="21.875" lengthAdjust="spacing" textLength="342.1875" x="753.9063" y="702.8595">DRF, auth, permissions, serializers</text></g><!--entity startup--><g id="elem_startup"><rect fill="#FFFFFF" height="86.2793" rx="9.375" ry="9.375" style="stroke:#82A6D9;stroke-width:0.78125;" width="348.4375" x="760.1563" y="396.3867"/><text fill="#172B4D" font-family="Inter" font-size="21.875" lengthAdjust="spacing" textLength="134.375" x="867.1875" y="434.7198">Startup Script</text><text fill="#172B4D" font-family="Inter" font-size="21.875" lengthAdjust="spacing" textLength="317.1875" x="775.7813" y="462.2345">migrate, optional seed, gunicorn</text></g><!--entity user--><g id="elem_user"><ellipse cx="259.375" cy="101.8555" fill="#FFF0E6" rx="12.5" ry="12.5" style="stroke:#E56C2C;stroke-width:0.78125;"/><path d="M259.375,114.3555 L259.375,156.543 M239.0625,126.8555 L279.6875,126.8555 M259.375,156.543 L239.0625,179.9805 M259.375,156.543 L279.6875,179.9805 " fill="none" style="stroke:#E56C2C;stroke-width:0.78125;"/><text fill="#1E2A44" font-family="Inter" font-size="21.875" lengthAdjust="spacing" textLength="125" x="196.875" y="205.0323">Visitor / User</text></g><!--entity organizer--><g id="elem_organizer"><ellipse cx="531.25" cy="101.8555" fill="#FFF0E6" rx="12.5" ry="12.5" style="stroke:#E56C2C;stroke-width:0.78125;"/><path d="M531.25,114.3555 L531.25,156.543 M510.9375,126.8555 L551.5625,126.8555 M531.25,156.543 L510.9375,179.9805 M531.25,156.543 L551.5625,179.9805 " fill="none" style="stroke:#E56C2C;stroke-width:0.78125;"/><text fill="#1E2A44" font-family="Inter" font-size="21.875" lengthAdjust="spacing" textLength="96.875" x="482.8125" y="205.0323">Organizer</text></g><!--entity admin--><g id="elem_admin"><ellipse cx="831.25" cy="101.8555" fill="#FFF0E6" rx="12.5" ry="12.5" style="stroke:#E56C2C;stroke-width:0.78125;"/><path d="M831.25,114.3555 L831.25,156.543 M810.9375,126.8555 L851.5625,126.8555 M831.25,156.543 L810.9375,179.9805 M831.25,156.543 L851.5625,179.9805 " fill="none" style="stroke:#E56C2C;stroke-width:0.78125;"/><text fill="#1E2A44" font-family="Inter" font-size="21.875" lengthAdjust="spacing" textLength="129.6875" x="766.4063" y="205.0323">Administrator</text></g><!--entity db--><g id="elem_db"><path d="M1253.9063,900.293 C1253.9063,884.668 1334.375,884.668 1334.375,884.668 C1334.375,884.668 1414.8438,884.668 1414.8438,900.293 L1414.8438,969.3848 C1414.8438,985.0098 1334.375,985.0098 1334.375,985.0098 C1334.375,985.0098 1253.9063,985.0098 1253.9063,969.3848 L1253.9063,900.293 " fill="#EAF8F4" style="stroke:#2C7A68;stroke-width:0.78125;"/><path d="M1253.9063,900.293 C1253.9063,915.918 1334.375,915.918 1334.375,915.918 C1334.375,915.918 1414.8438,915.918 1414.8438,900.293 " fill="none" style="stroke:#2C7A68;stroke-width:0.78125;"/><text fill="#153B33" font-family="Inter" font-size="21.875" lengthAdjust="spacing" textLength="120.3125" x="1274.2188" y="944.8761">PostgreSQL</text><text fill="#153B33" font-family="Inter" font-size="21.875" lengthAdjust="spacing" textLength="129.6875" x="1269.5313" y="972.3907">Domain state</text></g><!--entity media--><g id="elem_media"><path d="M18.75,877.6367 L71.875,877.6367 A14.0625,14.0625 0 0 1 81.25,887.0117 L92.1875,910.4492 L309.375,910.4492 A9.375,9.375 0 0 1 318.75,919.8242 L318.75,982.666 A9.375,9.375 0 0 1 309.375,992.041 L18.75,992.041 A9.375,9.375 0 0 1 9.375,982.666 L9.375,887.0117 A9.375,9.375 0 0 1 18.75,877.6367 " fill="#FFF3E6" style="stroke:#E58A2F;stroke-width:0.78125;"/><line style="stroke:#E58A2F;stroke-width:0.78125;" x1="9.375" x2="92.1875" y1="910.4492" y2="910.4492"/><text fill="#4A2B10" font-family="Inter" font-size="21.875" lengthAdjust="spacing" textLength="142.1875" x="85.1563" y="944.0948">MEDIA_ROOT</text><text fill="#4A2B10" font-family="Inter" font-size="21.875" lengthAdjust="spacing" textLength="262.5" x="25" y="971.6095">Local or mounted file store</text></g><!--entity messages--><g id="elem_messages"><path d="M381.25,899.5117 L668.75,899.5117 C676.5625,899.5117 676.5625,934.8389 676.5625,934.8389 C676.5625,934.8389 676.5625,970.166 668.75,970.166 L381.25,970.166 C373.4375,970.166 373.4375,934.8389 373.4375,934.8389 C373.4375,934.8389 373.4375,899.5117 381.25,899.5117 " fill="#F4EEFF" style="stroke:#8A68C8;stroke-width:0.78125;"/><path d="M668.75,899.5117 C660.9375,899.5117 660.9375,934.8389 660.9375,934.8389 C660.9375,970.166 668.75,970.166 668.75,970.166 " fill="none" style="stroke:#8A68C8;stroke-width:0.78125;"/><text fill="#2F2058" font-family="Inter" font-size="21.875" lengthAdjust="spacing" textLength="260.9375" x="386.7188" y="930.0323">OutboundMessage Queue</text><text fill="#2F2058" font-family="Inter" font-size="21.875" lengthAdjust="spacing" textLength="271.875" x="381.25" y="957.547">Persisted, provider pending</text></g><g id="elem_GMN22"><path d="M731.25,897.9492 L731.25,971.1182 A12.5,12.5 0 0 0 743.75,983.6182 L1146.875,983.6182 A12.5,12.5 0 0 0 1159.375,971.1182 L1159.375,901.0742 L1143.75,885.4492 L947.6875,885.4492 L928.3594,723.0898 L935.1875,885.4492 L743.75,885.4492 A12.5,12.5 0 0 0 731.25,897.9492 " fill="#FFF7E8" style="stroke:#F2A94A;stroke-width:0.78125;"/><path d="M1143.75,885.4492 L1143.75,894.8242 A6.25,6.25 0 0 0 1150,901.0742 L1159.375,901.0742 L1143.75,885.4492 " fill="#FFF7E8" style="stroke:#F2A94A;stroke-width:0.78125;"/><text fill="#24324A" font-family="Inter" font-size="21.875" lengthAdjust="spacing" textLength="379.6875" x="748.4375" y="915.9698">Business rules must be enforced here:</text><text fill="#24324A" font-family="Inter" font-size="21.875" lengthAdjust="spacing" textLength="378.125" x="749.2188" y="943.4845">roles, deadlines, judging idempotency,</text><text fill="#24324A" font-family="Inter" font-size="21.875" lengthAdjust="spacing" textLength="395.3125" x="740.625" y="970.9991">participant counts, saved state isolation.</text></g><!--link user to frontend--><g id="link_user_frontend"><path d="M264.3125,210.5117 C269.7188,244.1992 281.0469,285.418 304.6875,315.1367 C332.8125,350.4961 365.5797,372.9532 405.1578,392.1407 " fill="none" id="user-to-frontend" style="stroke:#315B93;stroke-width:2.1875;"/><polygon fill="#315B93" points="413.5938,396.2305,403.6664,384.4719,406.5638,392.8224,398.2134,395.7198,413.5938,396.2305" style="stroke:#315B93;stroke-width:2.1875;"/><text fill="#000000" font-family="Inter" font-size="21.875" lengthAdjust="spacing" textLength="206.25" x="306.25" y="281.5948">Uses landing, profile,</text><text fill="#000000" font-family="Inter" font-size="21.875" lengthAdjust="spacing" textLength="179.6875" x="319.5313" y="309.1095">competition pages</text></g><!--link organizer to frontend--><g id="link_organizer_frontend"><path d="M528.1563,210.6211 C527.5,225.8398 526.8906,242.1836 526.5625,257.3242 C525.5156,304.9492 526.9313,350.2715 528.6032,386.8496 " fill="none" id="organizer-to-frontend" style="stroke:#315B93;stroke-width:2.1875;"/><polygon fill="#315B93" points="529.0313,396.2148,534.6326,381.8816,528.6745,388.4105,522.1457,382.4524,529.0313,396.2148" style="stroke:#315B93;stroke-width:2.1875;"/><text fill="#000000" font-family="Inter" font-size="21.875" lengthAdjust="spacing" textLength="234.375" x="528.125" y="281.5948">Uses builder, admin-like</text><text fill="#000000" font-family="Inter" font-size="21.875" lengthAdjust="spacing" textLength="196.875" x="546.875" y="309.1095">competition controls</text></g><!--link admin to frontend--><g id="link_admin_frontend"><path d="M823.5469,210.7773 C815.875,246.0742 800.625,288.8711 770.3125,315.1367 C750.4531,332.3555 736.9219,317.9023 712.5,327.6367 C668.375,345.2305 630.472,367.8269 596.0033,391.1081 " fill="none" id="admin-to-frontend" style="stroke:#315B93;stroke-width:2.1875;"/><polygon fill="#315B93" points="588.2344,396.3555,603.386,393.6637,594.7085,391.9827,596.3895,383.3052,588.2344,396.3555" style="stroke:#315B93;stroke-width:2.1875;"/><text fill="#000000" font-family="Inter" font-size="21.875" lengthAdjust="spacing" textLength="175" x="809.375" y="295.6573">Uses admin panel</text></g><!--link frontend to api--><g id="link_frontend_api"><path d="M566.5313,482.418 C596.3594,515.3398 641.7188,560.6055 689.0625,590.1367 C718.75,608.6523 744.1702,620.8536 777.1233,633.5098 " fill="none" id="frontend-to-api" style="stroke:#315B93;stroke-width:2.1875;"/><polygon fill="#315B93" points="785.875,636.8711,774.9883,625.9947,778.5819,634.07,770.5066,637.6637,785.875,636.8711" style="stroke:#315B93;stroke-width:2.1875;"/><text fill="#000000" font-family="Inter" font-size="21.875" lengthAdjust="spacing" textLength="170.3125" x="717.1875" y="556.5948">HTTPS JSON API</text><text fill="#000000" font-family="Inter" font-size="21.875" lengthAdjust="spacing" textLength="223.4375" x="690.625" y="584.1095">CSRF-protected writes</text></g><!--link api to db--><g id="link_api_db"><path d="M938.6875,723.0742 C951.9531,756.9492 975.3438,803.4805 1010.9375,830.7617 C1075.375,880.1523 1110.1875,852.8398 1187.5,877.6367 C1209.0469,884.543 1223.2879,889.5076 1244.5535,897.5076 " fill="none" id="api-to-db" style="stroke:#315B93;stroke-width:2.1875;"/><polygon fill="#315B93" points="1253.3281,900.8086,1242.3668,890.0074,1246.0159,898.0578,1237.9655,901.7069,1253.3281,900.8086" style="stroke:#315B93;stroke-width:2.1875;"/><text fill="#000000" font-family="Inter" font-size="21.875" lengthAdjust="spacing" textLength="300" x="1012.5" y="811.2823">ORM queries and transactions</text></g><!--link api to media--><g id="link_api_media"><path d="M737.7344,691.3711 C630,702.2773 494.0625,725.1211 381.25,772.9492 C322.375,797.9023 271.6289,868.4806 230.4726,903.9962 " fill="none" id="api-to-media" style="stroke:#315B93;stroke-width:2.1875;"/><polygon fill="#315B93" points="223.375,910.1211,238.1047,905.6655,229.2897,905.017,229.9382,896.202,223.375,910.1211" style="stroke:#315B93;stroke-width:2.1875;"/><text fill="#000000" font-family="Inter" font-size="21.875" lengthAdjust="spacing" textLength="267.1875" x="382.8125" y="797.2198">Upload/download metadata</text><text fill="#000000" font-family="Inter" font-size="21.875" lengthAdjust="spacing" textLength="131.25" x="450.7813" y="824.7345">and file bytes</text></g><!--link api to messages--><g id="link_api_messages"><path d="M835.375,723.0898 C805.6406,737.8242 772.75,755.1836 743.75,772.9492 C679.3281,812.4023 617.056,859.5238 574.0716,893.5238 " fill="none" id="api-to-messages" style="stroke:#315B93;stroke-width:2.1875;"/><polygon fill="#315B93" points="566.7188,899.3398,581.6254,895.5177,572.8461,894.4932,573.8707,885.7139,566.7188,899.3398" style="stroke:#315B93;stroke-width:2.1875;"/><text fill="#000000" font-family="Inter" font-size="21.875" lengthAdjust="spacing" textLength="171.875" x="745.3125" y="797.2198">Persist invitations</text><text fill="#000000" font-family="Inter" font-size="21.875" lengthAdjust="spacing" textLength="160.9375" x="750.7813" y="824.7345">and notifications</text></g><!--link startup to api--><g id="link_startup_api"><path d="M932.7188,482.8242 C931,526.2461 928.7126,584.3002 927.0095,627.5502 " fill="none" id="startup-to-api" style="stroke:#315B93;stroke-width:2.1875;"/><polygon fill="#315B93" points="926.6406,636.918,933.4391,623.1123,926.948,629.1115,920.9488,622.6204,926.6406,636.918" style="stroke:#315B93;stroke-width:2.1875;"/><text fill="#000000" font-family="Inter" font-size="21.875" lengthAdjust="spacing" textLength="137.5" x="931.25" y="570.6573">Starts runtime</text></g><!--link startup to db--><g id="link_startup_db"><path d="M1015.25,482.4492 C1108.625,535.4961 1257.4219,636.9805 1320.3125,772.9492 C1336.3594,807.6523 1339.4884,841.7175 1338.7071,874.5925 " fill="none" id="startup-to-db" style="stroke:#315B93;stroke-width:2.1875;"/><polygon fill="#315B93" points="1338.4844,883.9648,1345.0667,870.0548,1338.67,876.1545,1332.5702,869.7578,1338.4844,883.9648" style="stroke:#315B93;stroke-width:2.1875;"/><text fill="#000000" font-family="Inter" font-size="21.875" lengthAdjust="spacing" textLength="159.375" x="1338.2813" y="675.3448">Runs migrations</text><text fill="#000000" font-family="Inter" font-size="21.875" lengthAdjust="spacing" textLength="207.8125" x="1314.0625" y="702.8595">and idempotent seed</text></g><!--SRC=[RLH1Rjim4Bpp5LkVPHijUigXGEeaI8AaTcGtlHWeA6bjRoAHAaavI8l-lKFATkmYDugSdPtb3FL1J5bt5TDeD0uRRdZur5LhMRsEsgwfLP1GCqq-qyIQeCMmeo7TzWYb_BEOLZlTaD_eohw8MTDArvwFJXoNGPirMFueejnsfffO5ua-Vb9_bT9bi8u6Z-8bBiRqtRCRaFRKOR4_dhgrDl9xTsBtN_lZyweH8puuZSy4qN57gRVkWw_ElkofYtwT91r1SWRV-542qvN3m6ogfPa77QGa7tUjeHoREvRL3XF7E6692Fh11StPRQNaNb4hrzQ7_tjUF65XAR-SB-XyThCq5_bLHheBcunQTeruBzRuZA1NT1sdzdk-KoO8TQ5hQLuwQSFIDBB6VN16jWsWq3KekCfetHafOK5YyNrH7A7IGHVQWsa6dMl7yuSxoB4DV8-uqCzH5MfbwpZXuFxoukRyPpwTBfRcpfRe03CQM1ouefL0b8SVVLd3bMZrg-CE3QPTA68IxjbxlMPwYDjBCyDiS36AR9tTIcpIuZQHgnr7WdkbOZPeEFnoy83EOd0yrJh14q5Ka2rDQPkM4MJS0RMf_92VTocAJk9uMP-XOItFV4fI0kzixLK2lClHdxJQSAtKuJ0YOHj0rul5R4wty-cttlJ9FByQGdA0dRYx5uUqWH_OM5CLA9dczuJhSnBfGOQm6u-yndGSaEcMeuYsjheQuqsQkC1-qD7VfOcboPhYzRZ5_cfHktE1n6mbPX_yVPcnGLPIzbjgbvoZeL80FJduBmsV0D84UMVWOKhb6obCRbhCRKAAfrBe0d4s1DkGNUrY_hNp-FduI5v3PDD1Ny74PcLTYGlRiEEp-1miZZEgM5TrBCWe_SxmNphqALyp0F5pmgiME1JW9nJ75wQte4f99_6sJZ97YllHMVq3]--></g></svg>