<?xml version="1.0" encoding="us-ascii" standalone="no"?><svg xmlns="http://www.w3.org/2000/svg" xmlns:xlink="http://www.w3.org/1999/xlink" contentStyleType="text/css" height="1123.4375px" preserveAspectRatio="none" style="width:2382px;height:1123px;background:#F7FAFF;" version="1.1" viewBox="0 0 2382 1123" width="2382.8125px" zoomAndPan="magnify"><defs/><g><rect fill="#F7FAFF" height="1123.4375" style="stroke:none;stroke-width:1.5625;" width="2382.8125" x="0" y="0"/><rect fill="#E7F0FF" height="62.793" id="_title" rx="9.375" ry="9.375" style="stroke:#B8CBEC;stroke-width:1.5625;" width="592.1875" x="882.8125" y="7.8125"/><text fill="#13294B" font-family="Inter" font-size="37.5" font-weight="bold" lengthAdjust="spacing" textLength="576.5625" x="890.625" y="54.5532">C4 Component - React Frontend</text><!--cluster app--><g id="cluster_app"><rect fill="#FFFFFF" height="614.0625" rx="9.375" ry="9.375" style="stroke:#9BB3D5;stroke-width:1.5625;" width="1729.6875" x="77.3438" y="312.0117"/><text fill="#172B4D" font-family="Inter" font-size="21.875" font-weight="bold" lengthAdjust="spacing" textLength="218.75" x="832.8125" y="337.8448">React/Vite Frontend</text></g><!--entity shell--><g id="elem_shell"><rect fill="#FFFFFF" height="113.7939" rx="9.375" ry="9.375" style="stroke:#82A6D9;stroke-width:0.78125;" width="210.9375" x="928.125" y="368.2617"/><text fill="#172B4D" font-family="Inter" font-size="21.875" lengthAdjust="spacing" textLength="93.75" x="986.7188" y="406.5948">App Shell</text><text fill="#172B4D" font-family="Inter" font-size="21.875" lengthAdjust="spacing" textLength="179.6875" x="943.75" y="434.1095">routing, language,</text><text fill="#172B4D" font-family="Inter" font-size="21.875" lengthAdjust="spacing" textLength="154.6875" x="956.25" y="461.6241">account context</text></g><!--entity landing--><g id="elem_landing"><rect fill="#FFFFFF" height="113.7939" rx="9.375" ry="9.375" style="stroke:#82A6D9;stroke-width:0.78125;" width="276.5625" x="1504.6875" y="577.6367"/><text fill="#172B4D" font-family="Inter" font-size="21.875" lengthAdjust="spacing" textLength="137.5" x="1574.2188" y="615.9698">Landing Page</text><text fill="#172B4D" font-family="Inter" font-size="21.875" lengthAdjust="spacing" textLength="179.6875" x="1553.125" y="643.4845">status tabs, filters,</text><text fill="#172B4D" font-family="Inter" font-size="21.875" lengthAdjust="spacing" textLength="245.3125" x="1520.3125" y="670.9991">competition cards, timers</text></g><!--entity detail--><g id="elem_detail"><rect fill="#FFFFFF" height="113.7939" rx="9.375" ry="9.375" style="stroke:#82A6D9;stroke-width:0.78125;" width="329.6875" x="160.9375" y="577.6367"/><text fill="#172B4D" font-family="Inter" font-size="21.875" lengthAdjust="spacing" textLength="179.6875" x="235.9375" y="615.9698">Competition Detail</text><text fill="#172B4D" font-family="Inter" font-size="21.875" lengthAdjust="spacing" textLength="225" x="213.2813" y="643.4845">Overview, Participants,</text><text fill="#172B4D" font-family="Inter" font-size="21.875" lengthAdjust="spacing" textLength="298.4375" x="176.5625" y="670.9991">Submissions, Judging, Results</text></g><!--entity builder--><g id="elem_builder"><rect fill="#FFFFFF" height="86.2793" rx="9.375" ry="9.375" style="stroke:#82A6D9;stroke-width:0.78125;" width="264.0625" x="901.5625" y="591.6992"/><text fill="#172B4D" font-family="Inter" font-size="21.875" lengthAdjust="spacing" textLength="192.1875" x="937.5" y="630.0323">Competition Builder</text><text fill="#172B4D" font-family="Inter" font-size="21.875" lengthAdjust="spacing" textLength="232.8125" x="917.1875" y="657.547">multi-step draft/edit flow</text></g><!--entity profile--><g id="elem_profile"><rect fill="#FFFFFF" height="113.7939" rx="9.375" ry="9.375" style="stroke:#82A6D9;stroke-width:0.78125;" width="301.5625" x="545.3125" y="577.6367"/><text fill="#172B4D" font-family="Inter" font-size="21.875" lengthAdjust="spacing" textLength="178.125" x="607.0313" y="615.9698">Profile Dashboard</text><text fill="#172B4D" font-family="Inter" font-size="21.875" lengthAdjust="spacing" textLength="270.3125" x="560.9375" y="643.4845">saved, recent, notifications,</text><text fill="#172B4D" font-family="Inter" font-size="21.875" lengthAdjust="spacing" textLength="171.875" x="610.1563" y="670.9991">materials, awards</text></g><!--entity admin--><g id="elem_admin"><rect fill="#FFFFFF" height="113.7939" rx="9.375" ry="9.375" style="stroke:#82A6D9;stroke-width:0.78125;" width="228.125" x="1221.0938" y="577.6367"/><text fill="#172B4D" font-family="Inter" font-size="21.875" lengthAdjust="spacing" textLength="123.4375" x="1273.4375" y="615.9698">Admin Panel</text><text fill="#172B4D" font-family="Inter" font-size="21.875" lengthAdjust="spacing" textLength="196.875" x="1236.7188" y="643.4845">users, competitions,</text><text fill="#172B4D" font-family="Inter" font-size="21.875" lengthAdjust="spacing" textLength="176.5625" x="1246.875" y="670.9991">filters, diagnostics</text></g><!--entity client--><g id="elem_client"><rect fill="#FFFFFF" height="113.7939" rx="9.375" ry="9.375" style="stroke:#82A6D9;stroke-width:0.78125;" width="312.5" x="910.1563" y="787.0117"/><text fill="#172B4D" font-family="Inter" font-size="21.875" lengthAdjust="spacing" textLength="95.3125" x="1018.75" y="825.3448">API Client</text><text fill="#172B4D" font-family="Inter" font-size="21.875" lengthAdjust="spacing" textLength="281.25" x="925.7813" y="852.8595">CSRF, auth-aware requests,</text><text fill="#172B4D" font-family="Inter" font-size="21.875" lengthAdjust="spacing" textLength="184.375" x="974.2188" y="880.3741">error normalization</text></g><!--entity i18n--><g id="elem_i18n"><rect fill="#FFFFFF" height="86.2793" rx="9.375" ry="9.375" style="stroke:#82A6D9;stroke-width:0.78125;" width="317.1875" x="537.5" y="801.0742"/><text fill="#172B4D" font-family="Inter" font-size="21.875" lengthAdjust="spacing" textLength="115.625" x="638.2813" y="839.4073">Localization</text><text fill="#172B4D" font-family="Inter" font-size="21.875" lengthAdjust="spacing" textLength="285.9375" x="553.125" y="866.922">English and Ukrainian strings</text></g><!--entity user--><g id="elem_user"><ellipse cx="1033.5938" cy="101.8555" fill="#FFF0E6" rx="12.5" ry="12.5" style="stroke:#E56C2C;stroke-width:0.78125;"/><path d="M1033.5938,114.3555 L1033.5938,156.543 M1013.2813,126.8555 L1053.9063,126.8555 M1033.5938,156.543 L1013.2813,179.9805 M1033.5938,156.543 L1053.9063,179.9805 " fill="none" style="stroke:#E56C2C;stroke-width:0.78125;"/><text fill="#1E2A44" font-family="Inter" font-size="21.875" lengthAdjust="spacing" textLength="45.3125" x="1010.9375" y="205.0323">User</text></g><!--entity api--><g id="elem_api"><rect fill="#FFFFFF" height="58.7646" rx="9.375" ry="9.375" style="stroke:#82A6D9;stroke-width:0.78125;" width="204.6875" x="964.0625" y="1055.7617"/><text fill="#172B4D" font-family="Inter" font-size="21.875" lengthAdjust="spacing" textLength="173.4375" x="979.6875" y="1094.0948">Django REST API</text></g><g id="elem_GMN31"><path d="M1835.9375,612.0117 L1835.9375,657.666 A12.5,12.5 0 0 0 1848.4375,670.166 L2356.25,670.166 A12.5,12.5 0 0 0 2368.75,657.666 L2368.75,615.1367 L2353.125,599.5117 L1934.4063,599.5117 L1139.4844,447.293 L1921.9063,599.5117 L1848.4375,599.5117 A12.5,12.5 0 0 0 1835.9375,612.0117 " fill="#FFF7E8" style="stroke:#F2A94A;stroke-width:0.78125;"/><path d="M2353.125,599.5117 L2353.125,608.8867 A6.25,6.25 0 0 0 2359.375,615.1367 L2368.75,615.1367 L2353.125,599.5117 " fill="#FFF7E8" style="stroke:#F2A94A;stroke-width:0.78125;"/><text fill="#24324A" font-family="Inter" font-size="21.875" lengthAdjust="spacing" textLength="396.875" x="1896.875" y="630.0323">Account switching must clear stale state,</text><text fill="#24324A" font-family="Inter" font-size="21.875" lengthAdjust="spacing" textLength="500" x="1845.3125" y="657.547">reload permissions, saved items, and landing data.</text></g><!--link user to shell--><g id="link_user_shell"><path d="M1033.5938,210.9023 C1033.5938,257.7773 1033.5938,313.1055 1033.5938,358.8398 " fill="none" id="user-to-shell" style="stroke:#315B93;stroke-width:2.1875;"/><polygon fill="#315B93" points="1033.5938,368.2148,1039.8438,354.1523,1033.5938,360.4023,1027.3438,354.1523,1033.5938,368.2148" style="stroke:#315B93;stroke-width:2.1875;"/><text fill="#000000" font-family="Inter" font-size="21.875" lengthAdjust="spacing" textLength="109.375" x="1035.1563" y="281.5948">Opens app</text></g><!--link shell to landing--><g id="link_shell_landing"><path d="M1139.7344,462.7773 C1240.8438,496.9961 1384.729,545.71 1495.4165,583.1631 " fill="none" id="shell-to-landing" style="stroke:#315B93;stroke-width:2.1875;"/><polygon fill="#315B93" points="1504.2969,586.168,1492.9795,575.7404,1496.8965,583.6639,1488.973,587.581,1504.2969,586.168" style="stroke:#315B93;stroke-width:2.1875;"/></g><!--link shell to detail--><g id="link_shell_detail"><path d="M927.625,457.7305 C812.125,491.3867 634.8132,543.0611 500.0476,582.3267 " fill="none" id="shell-to-detail" style="stroke:#315B93;stroke-width:2.1875;"/><polygon fill="#315B93" points="491.0469,584.9492,506.2963,587.016,498.5475,582.7638,502.7997,575.015,491.0469,584.9492" style="stroke:#315B93;stroke-width:2.1875;"/></g><!--link shell to builder--><g id="link_shell_builder"><path d="M1033.5938,482.668 C1033.5938,517.0273 1033.5938,550.9648 1033.5938,582.2773 " fill="none" id="shell-to-builder" style="stroke:#315B93;stroke-width:2.1875;"/><polygon fill="#315B93" points="1033.5938,591.6523,1039.8438,577.5898,1033.5938,583.8398,1027.3438,577.5898,1033.5938,591.6523" style="stroke:#315B93;stroke-width:2.1875;"/></g><!--link shell to profile--><g id="link_shell_profile"><path d="M942.7031,482.4023 C894.4844,511.8711 843.3903,543.0921 795.1403,572.5765 " fill="none" id="shell-to-profile" style="stroke:#315B93;stroke-width:2.1875;"/><polygon fill="#315B93" points="787.1406,577.4648,802.399,575.4654,793.807,573.3912,795.8812,564.7992,787.1406,577.4648" style="stroke:#315B93;stroke-width:2.1875;"/></g><!--link shell to admin--><g id="link_shell_admin"><path d="M1114.7969,482.4023 C1157.8906,511.8711 1202.9493,542.688 1246.0587,572.1723 " fill="none" id="shell-to-admin" style="stroke:#315B93;stroke-width:2.1875;"/><polygon fill="#315B93" points="1253.7969,577.4648,1245.7179,564.3673,1247.3484,573.0544,1238.6612,574.6849,1253.7969,577.4648" style="stroke:#315B93;stroke-width:2.1875;"/></g><!--link landing to client--><g id="link_landing_client"><path d="M1504.1406,685.9023 C1419,716.3555 1318.6554,752.2447 1230.6397,783.7291 " fill="none" id="landing-to-client" style="stroke:#315B93;stroke-width:2.1875;"/><polygon fill="#315B93" points="1221.8125,786.8867,1237.1584,788.0351,1229.1685,784.2554,1232.9483,776.2655,1221.8125,786.8867" style="stroke:#315B93;stroke-width:2.1875;"/></g><!--link detail to client--><g id="link_detail_client"><path d="M490.8281,684.1523 C500,686.7305 509.0938,689.2617 517.9688,691.6992 C679.2344,736.0742 721.0156,741.7305 882.0313,787.0117 C891.2031,789.5898 891.6041,789.6705 901.1041,792.4205 " fill="none" id="detail-to-client" style="stroke:#315B93;stroke-width:2.1875;"/><polygon fill="#315B93" points="910.1094,795.0273,898.3393,785.1136,902.605,792.855,894.8636,797.1207,910.1094,795.0273" style="stroke:#315B93;stroke-width:2.1875;"/></g><!--link builder to client--><g id="link_builder_client"><path d="M1040.2344,677.9648 C1045.2188,709.2773 1050.6047,743.2064 1056.0578,777.472 " fill="none" id="builder-to-client" style="stroke:#315B93;stroke-width:2.1875;"/><polygon fill="#315B93" points="1057.5313,786.7305,1061.4934,771.8605,1056.3034,779.0151,1049.1488,773.825,1057.5313,786.7305" style="stroke:#315B93;stroke-width:2.1875;"/></g><!--link profile to client--><g id="link_profile_client"><path d="M795.8125,691.7773 C848.7344,721.2461 905.3722,752.7937 958.3097,782.2781 " fill="none" id="profile-to-client" style="stroke:#315B93;stroke-width:2.1875;"/><polygon fill="#315B93" points="966.5,786.8398,957.2557,774.537,959.6747,783.0384,951.1734,785.4575,966.5,786.8398" style="stroke:#315B93;stroke-width:2.1875;"/></g><!--link admin to client--><g id="link_admin_client"><path d="M1262.4219,692.043 C1224.0313,721.5117 1184.5002,751.8515 1146.1565,781.2734 " fill="none" id="admin-to-client" style="stroke:#315B93;stroke-width:2.1875;"/><polygon fill="#315B93" points="1138.7188,786.9805,1153.6801,783.3783,1144.9168,782.2246,1146.0706,773.4613,1138.7188,786.9805" style="stroke:#315B93;stroke-width:2.1875;"/></g><!--link shell to i18n--><g id="link_shell_i18n"><path d="M927.875,428.2148 C712.4219,433.4805 234.3438,458.6055 133.5938,577.6367 C9.375,724.3867 321.0625,793.814 527.8438,823.2828 " fill="none" id="shell-to-i18n" style="stroke:#315B93;stroke-width:2.1875;"/><polygon fill="#315B93" points="537.125,824.6055,524.085,816.434,529.3906,823.5032,522.3214,828.8089,537.125,824.6055" style="stroke:#315B93;stroke-width:2.1875;"/></g><!--link landing to i18n--><g id="link_landing_i18n"><path d="M1504.2813,684.5117 C1495.2188,687.1055 1486.1719,689.5273 1477.3438,691.6992 C1217.8125,755.5273 1144.2188,727.793 883.5938,787.0117 C865.7187,791.0742 856.0821,793.3855 837.7383,798.4636 " fill="none" id="landing-to-i18n" style="stroke:#315B93;stroke-width:2.1875;"/><polygon fill="#315B93" points="828.7031,800.9648,843.9234,803.2365,836.2324,798.8805,840.5884,791.1896,828.7031,800.9648" style="stroke:#315B93;stroke-width:2.1875;"/></g><!--link detail to i18n--><g id="link_detail_i18n"><path d="M425.5,691.7773 C487.2031,726.1367 556.9191,764.9656 613.2785,796.3562 " fill="none" id="detail-to-i18n" style="stroke:#315B93;stroke-width:2.1875;"/><polygon fill="#315B93" points="621.4688,800.918,612.2245,788.6151,614.6435,797.1165,606.1421,799.5355,621.4688,800.918" style="stroke:#315B93;stroke-width:2.1875;"/></g><!--link builder to i18n--><g id="link_builder_i18n"><path d="M965.7031,677.7148 C906.9844,713.6055 830.5623,760.3111 771.8748,796.1705 " fill="none" id="builder-to-i18n" style="stroke:#315B93;stroke-width:2.1875;"/><polygon fill="#315B93" points="763.875,801.0586,779.1335,799.0597,770.5415,796.9852,772.616,788.3933,763.875,801.0586" style="stroke:#315B93;stroke-width:2.1875;"/></g><!--link profile to i18n--><g id="link_profile_i18n"><path d="M696.0938,692.043 C696.0938,726.4023 696.0938,760.3398 696.0938,791.6523 " fill="none" id="profile-to-i18n" style="stroke:#315B93;stroke-width:2.1875;"/><polygon fill="#315B93" points="696.0938,801.0273,702.3438,786.9648,696.0938,793.2148,689.8438,786.9648,696.0938,801.0273" style="stroke:#315B93;stroke-width:2.1875;"/></g><!--link admin to i18n--><g id="link_admin_i18n"><path d="M1220.7031,682.1523 C1211.3594,685.5117 1202.0313,688.7305 1192.9688,691.6992 C1115.7969,716.9023 1094.2813,715.6211 1016.4063,738.5742 C950.7969,757.9023 887.1502,778.3317 827.7127,798.0035 " fill="none" id="admin-to-i18n" style="stroke:#315B93;stroke-width:2.1875;"/><polygon fill="#315B93" points="818.8125,800.9492,834.1266,802.4642,826.2293,798.4945,830.199,790.5972,818.8125,800.9492" style="stroke:#315B93;stroke-width:2.1875;"/></g><!--link client to api--><g id="link_client_api"><path d="M1066.4063,901.4648 C1066.4063,949.6211 1066.4063,1007.8086 1066.4063,1045.7461 " fill="none" id="client-to-api" style="stroke:#315B93;stroke-width:2.1875;"/><polygon fill="#315B93" points="1066.4063,1055.1211,1072.6563,1041.0586,1066.4063,1047.3086,1060.1563,1041.0586,1066.4063,1055.1211" style="stroke:#315B93;stroke-width:2.1875;"/><text fill="#000000" font-family="Inter" font-size="21.875" lengthAdjust="spacing" textLength="93.75" x="1132.8125" y="975.3448">JSON API</text><text fill="#000000" font-family="Inter" font-size="21.875" lengthAdjust="spacing" textLength="223.4375" x="1067.9688" y="1002.8595">CSRF-protected writes</text></g><!--SRC=[TLHDRzim3BthLt0zEmawx33iCA1BMs35i1R9kbCkZ4KdR6N9a-Xc7zX_7oKdjLjWD_k9V8zyfFI6VUrwIp2VBsHFBSqUUhlZvjUywrjdXCKHBD_1ChHTyEG5Ph0Yh0MkO_12tXgJ7jbt6B65j4SR3kntqA1BD3c9L0lwdPBzCG2hq7kx3D5JXFEtvgynoXWYdDqdYcU02NhzC6RCEYkYY-yizAnS0h7h2kKaz4AXzPwSs_WOUj5oAd1wrkEEget7kbPvWJgp_9J2adBuIvOlw6tkv4wpDZu9Ifz0S9igQDW9nQHSjTf2QX873pL6guV2hPuLLZTGlEHTJb8kIP2rpDidYazCXqhLed3D7Nh9_Ej-st9A6glCDtaokPaLfTx9e64BnVybFlNiBCMDRpM5Pqce0nknaGLP5cXSE1IUxH3takWk1ksLu1BJVXkqFpK2dyXMEKYNeG8VX1kkKKg9geBg3ElmAy13DgIGTmFFgp7Pbhqsx4aToFFMd8cVcUraD5Z6dGz9hHa8CUU-ehlx34l7MjN6BzUhQosWb_qiLq4QzwEdL2ob67NJV8WjElvT2Y-KTSbzjGEXVWxQ-2i5EUr1fmhtZn7PCtf84dKeGrby_jxdRPvGN3xeHu3LrVeRQ8d7dMLZSiSmctqSTWy-m6r7lkop6P1yTjgW4JdEUmHEWnkHaziZCjXbZcm5EhOxq4sH8zyKEX9EeS8u1KQnOi9KgW0JeV8_bId0LAG0eqJvDOFGq4_7QjZD-lPhzdIOzqm9H7qd2uUepqGoHfUJO1j4GWkXURxa5yS781rOwdskiksJlWUECEeuKOl8rvsgiWmke8MEudWFonK0bMZpbkiod9grA3Wt-ZBbQq7c7m00]--></g></svg>