<?xml version="1.0" encoding="us-ascii" standalone="no"?><svg xmlns="http://www.w3.org/2000/svg" xmlns:xlink="http://www.w3.org/1999/xlink" contentStyleType="text/css" height="759.375px" preserveAspectRatio="none" style="width:2209px;height:759px;background:#F7FAFF;" version="1.1" viewBox="0 0 2209 759" width="2209.375px" zoomAndPan="magnify"><defs/><g><rect fill="#F7FAFF" height="759.375" style="stroke:none;stroke-width:1.5625;" width="2209.375" x="0" y="0"/><rect fill="#E7F0FF" height="62.793" id="_title" rx="9.375" ry="9.375" style="stroke:#B8CBEC;stroke-width:1.5625;" width="381.25" x="903.5171" y="7.8125"/><text fill="#13294B" font-family="Inter" font-size="37.5" font-weight="bold" lengthAdjust="spacing" textLength="365.625" x="911.3296" y="54.5532">C4 Context - Judgify</text><!--entity visitor--><g id="elem_visitor"><ellipse cx="542.9717" cy="115.1367" fill="#FFF0E6" rx="12.5" ry="12.5" style="stroke:#E56C2C;stroke-width:0.78125;"/><path d="M542.9717,127.6367 L542.9717,169.8242 M522.6592,140.1367 L563.2842,140.1367 M542.9717,169.8242 L522.6592,193.2617 M542.9717,169.8242 L563.2842,193.2617 " fill="none" style="stroke:#E56C2C;stroke-width:0.78125;"/><text fill="#1E2A44" font-family="Inter" font-size="21.875" lengthAdjust="spacing" textLength="182.8125" x="451.5655" y="218.3136">Anonymous Visitor</text></g><!--entity participant--><g id="elem_participant"><ellipse cx="874.2217" cy="115.1367" fill="#FFF0E6" rx="12.5" ry="12.5" style="stroke:#E56C2C;stroke-width:0.78125;"/><path d="M874.2217,127.6367 L874.2217,169.8242 M853.9092,140.1367 L894.5342,140.1367 M874.2217,169.8242 L853.9092,193.2617 M874.2217,169.8242 L894.5342,193.2617 " fill="none" style="stroke:#E56C2C;stroke-width:0.78125;"/><text fill="#1E2A44" font-family="Inter" font-size="21.875" lengthAdjust="spacing" textLength="104.6875" x="821.878" y="218.3136">Participant</text></g><!--entity organizer--><g id="elem_organizer"><ellipse cx="1191.4092" cy="115.1367" fill="#FFF0E6" rx="12.5" ry="12.5" style="stroke:#E56C2C;stroke-width:0.78125;"/><path d="M1191.4092,127.6367 L1191.4092,169.8242 M1171.0967,140.1367 L1211.7217,140.1367 M1191.4092,169.8242 L1171.0967,193.2617 M1191.4092,169.8242 L1211.7217,193.2617 " fill="none" style="stroke:#E56C2C;stroke-width:0.78125;"/><text fill="#1E2A44" font-family="Inter" font-size="21.875" lengthAdjust="spacing" textLength="96.875" x="1142.9717" y="218.3136">Organizer</text></g><!--entity judge--><g id="elem_judge"><ellipse cx="1567.9717" cy="101.8555" fill="#FFF0E6" rx="12.5" ry="12.5" style="stroke:#E56C2C;stroke-width:0.78125;"/><path d="M1567.9717,114.3555 L1567.9717,156.543 M1547.6592,126.8555 L1588.2842,126.8555 M1567.9717,156.543 L1547.6592,179.9805 M1567.9717,156.543 L1588.2842,179.9805 " fill="none" style="stroke:#E56C2C;stroke-width:0.78125;"/><text fill="#1E2A44" font-family="Inter" font-size="21.875" lengthAdjust="spacing" textLength="59.375" x="1538.2842" y="205.0323">Judge</text><text fill="#1E2A44" font-family="Inter" font-size="21.875" lengthAdjust="spacing" textLength="206.25" x="1464.8467" y="232.547">(competition scoped)</text></g><!--entity admin--><g id="elem_admin"><ellipse cx="1949.2217" cy="115.1367" fill="#FFF0E6" rx="12.5" ry="12.5" style="stroke:#E56C2C;stroke-width:0.78125;"/><path d="M1949.2217,127.6367 L1949.2217,169.8242 M1928.9092,140.1367 L1969.5342,140.1367 M1949.2217,169.8242 L1928.9092,193.2617 M1949.2217,169.8242 L1969.5342,193.2617 " fill="none" style="stroke:#E56C2C;stroke-width:0.78125;"/><text fill="#1E2A44" font-family="Inter" font-size="21.875" lengthAdjust="spacing" textLength="129.6875" x="1884.378" y="218.3136">Administrator</text></g><!--entity judgify--><g id="elem_judgify"><rect fill="#FFFFFF" height="86.2793" rx="9.375" ry="9.375" style="stroke:#82A6D9;stroke-width:0.78125;" width="448.4375" x="650.003" y="388.5742"/><text fill="#172B4D" font-family="Inter" font-size="21.875" lengthAdjust="spacing" textLength="156.25" x="796.0967" y="426.9073">Judgify Platform</text><text fill="#172B4D" font-family="Inter" font-size="21.875" lengthAdjust="spacing" textLength="417.1875" x="665.628" y="454.422">Tournament and competition management</text></g><!--entity postgres--><g id="elem_postgres"><path d="M214.0655,648.7305 C214.0655,633.1055 364.8467,633.1055 364.8467,633.1055 C364.8467,633.1055 515.628,633.1055 515.628,648.7305 L515.628,717.8223 C515.628,733.4473 364.8467,733.4473 364.8467,733.4473 C364.8467,733.4473 214.0655,733.4473 214.0655,717.8223 L214.0655,648.7305 " fill="#EAF8F4" style="stroke:#2C7A68;stroke-width:0.78125;"/><path d="M214.0655,648.7305 C214.0655,664.3555 364.8467,664.3555 364.8467,664.3555 C364.8467,664.3555 515.628,664.3555 515.628,648.7305 " fill="none" style="stroke:#2C7A68;stroke-width:0.78125;"/><text fill="#153B33" font-family="Inter" font-size="21.875" lengthAdjust="spacing" textLength="120.3125" x="304.6905" y="693.3136">PostgreSQL</text><text fill="#153B33" font-family="Inter" font-size="21.875" lengthAdjust="spacing" textLength="270.3125" x="229.6905" y="720.8282">Render managed database</text></g><!--entity media--><g id="elem_media"><path d="M600.7842,626.0742 L653.9092,626.0742 A14.0625,14.0625 0 0 1 663.2842,635.4492 L674.2217,658.8867 L938.2842,658.8867 A9.375,9.375 0 0 1 947.6592,668.2617 L947.6592,731.1035 A9.375,9.375 0 0 1 938.2842,740.4785 L600.7842,740.4785 A9.375,9.375 0 0 1 591.4092,731.1035 L591.4092,635.4492 A9.375,9.375 0 0 1 600.7842,626.0742 " fill="#FFF3E6" style="stroke:#E58A2F;stroke-width:0.78125;"/><line style="stroke:#E58A2F;stroke-width:0.78125;" x1="591.4092" x2="674.2217" y1="658.8867" y2="658.8867"/><text fill="#4A2B10" font-family="Inter" font-size="21.875" lengthAdjust="spacing" textLength="309.375" x="607.0342" y="692.5323">MEDIA_ROOT / Object Storage</text><text fill="#4A2B10" font-family="Inter" font-size="21.875" lengthAdjust="spacing" textLength="278.125" x="622.6592" y="720.047">Uploaded files and materials</text></g><!--entity render--><g id="elem_render"><path d="M37.5189,128.1477 C44.7264,115.2697 53.606,114.0904 64.1556,124.2903 C70.208,113.9344 78.4233,112.3959 86.1317,122.5126 C92.22,111.788 101.0509,110.2365 109.5842,119.6676 C113.4339,109.9156 122.6291,108.1165 129.2408,116.7079 C135.6277,102.5758 144.2771,102.5702 155.0155,111.9345 C160.9984,101.5945 167.5262,99.8735 175.1096,110.3927 C180.8264,97.3123 191.7364,95.8322 200.2363,107.5757 C208.0472,100.5123 217.1955,102.6544 220.9502,112.5345 C226.5115,99.8234 236.4863,100.398 243.5015,111.1363 C252.9303,101.3061 263.11,101.1879 268.2344,115.539 C278.2897,105.73 285.3817,106.899 290.2848,120.4106 C299.2121,108.7538 307.9384,109.0978 314.1111,122.9804 C321.6797,110.5043 332.9336,111.3515 339.1163,124.3412 C346.5842,115.481 354.7992,118.1267 359.0164,127.8266 C380.6378,133.0083 384.3375,149.4883 367.6847,163.8739 C385.4254,179.9051 376.925,196.751 357.8449,203.6804 C351.3462,213.6997 344.7165,215.0151 337.4625,204.4275 C331.1011,215.4369 320.5451,215.8397 313.8757,204.7564 C306.6237,214.5422 299.0363,215.2303 291.095,205.5636 C284.3008,215.6517 276.941,218.1164 268.7498,207.0384 C260.181,216.4386 252.435,215.5121 246.2661,204.4069 C238.7627,216.1212 230.9212,218.0758 221.8208,206.0514 C214.7392,217.9686 206.0363,217.4049 197.8841,207.2103 C190.6567,217.2224 184.0771,216.498 178.523,205.6567 C171.1825,215.6846 161.7305,216.635 155.5846,204.4245 C147.6638,215.6165 140.4435,215.2238 131.991,205.0106 C123.7616,213.493 115.6814,213.7535 109.2432,202.9031 C102.5654,216.055 91.4501,214.8951 83.6456,204.1079 C76.1477,214.5068 68.999,213.752 61.3036,204.3305 C54.9133,213.7328 45.2888,211.3756 41.4838,201.6515 C16.8673,199.8368 10.4656,187.1651 21.5097,165.5954 C9.375,146.4492 15.8568,132.8454 37.5189,128.1477 " fill="#EFF4FF" style="stroke:#6D8FC8;stroke-width:0.78125;"/><text fill="#172B4D" font-family="Inter" font-size="21.875" lengthAdjust="spacing" textLength="73.4375" x="160.9405" y="158.1573">Render</text><text fill="#172B4D" font-family="Inter" font-size="21.875" lengthAdjust="spacing" textLength="298.4375" x="48.4405" y="185.672">Hosting, deploys, logs, metrics</text></g><!--entity notification--><g id="elem_notification"><path d="M1016.6109,644.9632 C1023.4537,635.2505 1031.8663,635.3123 1037.5434,646.1505 C1042.0477,636.4898 1051.0112,634.6522 1058.4673,642.6535 C1064.7847,631.2266 1072.3903,631.7467 1080.0626,641.2559 C1083.0027,631.4576 1092.9295,628.6877 1100.3925,635.8272 C1105.0042,623.7076 1114.8072,623.8207 1122.5371,632.5086 C1129.0522,622.724 1135.1309,623.3948 1142.3795,631.7042 C1147.9404,621.9669 1156.1677,621.5855 1163.5308,629.5509 C1170.7727,620.2707 1178.9686,620.0594 1185.2937,630.5596 C1193.7035,620.2362 1203.8908,619.3208 1209.6397,633.2327 C1216.9843,623.4384 1226.7804,626.471 1230.5602,636.9173 C1238.5701,628.4918 1244.1514,631.0355 1249.5665,639.7882 C1257.1493,630.216 1266.9898,629.8994 1272.6531,641.8474 C1279.7101,633.0782 1287.9137,633.365 1293.8132,643.1663 C1300.847,635.6454 1307.8517,637.3109 1311.8795,646.43 C1323.3774,649.4634 1327.6057,657.3703 1320.3166,667.8155 C1331.0014,668.2379 1333.2985,674.6897 1328.5966,683.326 C1336.9237,693.2415 1332.2909,702.6253 1319.5614,702.7424 C1327.7579,713.5001 1325.5577,720.5218 1312.9077,725.0661 C1305.5502,733.9383 1298.9018,734.9128 1291.4539,725.1702 C1283.5981,736.6809 1277.1061,736.1568 1269.9948,724.4813 C1263.9844,733.7344 1254.8392,735.964 1248.1188,725.2595 C1243.1371,734.2784 1235.7622,733.4798 1230.8248,725.2151 C1225.6544,736.5445 1215.9274,740.2908 1206.9365,729.3049 C1200.7296,739.9328 1190.6044,738.8398 1184.6544,729.0248 C1178.5471,739.0079 1170.8231,736.3163 1165.3344,728.3586 C1160.0684,739.853 1149.4533,740.8672 1142.2109,730.4435 C1135.6299,738.5358 1126.3278,737.8967 1121.622,728.2652 C1116.2867,738.622 1106.505,737.9278 1100.5182,728.9774 C1093.1002,738.9889 1085.7743,739.2219 1079.3768,727.9631 C1073.366,735.5372 1064.6027,734.7679 1061.235,725.1707 C1054.3197,737.3979 1046.53,735.8112 1038.3123,726.5607 C1031.323,735.6012 1021.0415,735.8813 1016.3493,724.1338 C1003.6249,721.1748 1002.0456,714.5511 1009.4922,704.5349 C996.6837,702.8126 994.4944,692.1781 1002.5712,683.5634 C996.9002,675.9795 999.3542,667.0539 1009.6779,665.9083 C1003.2436,655.9637 1004.6084,648.805 1016.6109,644.9632 " fill="#EFF4FF" style="stroke:#6D8FC8;stroke-width:0.78125;"/><text fill="#172B4D" font-family="Inter" font-size="21.875" lengthAdjust="spacing" textLength="268.75" x="1028.9092" y="678.4698">Future Notification Provider</text><text fill="#172B4D" font-family="Inter" font-size="21.875" lengthAdjust="spacing" textLength="275" x="1025.7842" y="705.9845">Email / platform notifications</text></g><g id="elem_GMN22"><path d="M1153.128,408.8867 L1153.128,425.293 L1098.7686,431.543 L1153.128,437.793 L1153.128,454.541 A12.5,12.5 0 0 0 1165.628,467.041 L1589.0655,467.041 A12.5,12.5 0 0 0 1601.5655,454.541 L1601.5655,412.0117 L1585.9405,396.3867 L1165.628,396.3867 A12.5,12.5 0 0 0 1153.128,408.8867 " fill="#FFF7E8" style="stroke:#F2A94A;stroke-width:0.78125;"/><path d="M1585.9405,396.3867 L1585.9405,405.7617 A6.25,6.25 0 0 0 1592.1905,412.0117 L1601.5655,412.0117 L1585.9405,396.3867 " fill="#FFF7E8" style="stroke:#F2A94A;stroke-width:0.78125;"/><text fill="#24324A" font-family="Inter" font-size="21.875" lengthAdjust="spacing" textLength="337.5" x="1201.5655" y="426.9073">Judge is not an account-level role.</text><text fill="#24324A" font-family="Inter" font-size="21.875" lengthAdjust="spacing" textLength="415.625" x="1162.503" y="454.422">It is assigned inside a specific competition.</text></g><!--link visitor to judgify--><g id="link_visitor_judgify"><path d="M543.8623,224.0898 C547.5655,262.3086 558.4873,310.4023 588.2842,341.6992 C606.9092,361.2617 621.3283,372.4466 645.922,384.3372 " fill="none" id="visitor-to-judgify" style="stroke:#315B93;stroke-width:2.1875;"/><polygon fill="#315B93" points="654.3623,388.418,644.4224,376.67,647.3288,385.0174,638.9814,387.9237,654.3623,388.418" style="stroke:#315B93;stroke-width:2.1875;"/><text fill="#000000" font-family="Inter" font-size="21.875" lengthAdjust="spacing" textLength="265.625" x="589.8467" y="308.1573">Browse public competitions</text><text fill="#000000" font-family="Inter" font-size="21.875" lengthAdjust="spacing" textLength="181.25" x="632.0342" y="335.672">View public results</text></g><!--link participant to judgify--><g id="link_participant_judgify"><path d="M871.0811,223.8711 C869.6592,258.293 868.4873,302.4492 869.5342,341.6992 C869.9405,356.8867 870.1945,364.1672 871.0226,378.8703 " fill="none" id="participant-to-judgify" style="stroke:#315B93;stroke-width:2.1875;"/><polygon fill="#315B93" points="871.5498,388.2305,876.9991,373.8388,871.1105,380.4303,864.5189,374.5417,871.5498,388.2305" style="stroke:#315B93;stroke-width:2.1875;"/><text fill="#000000" font-family="Inter" font-size="21.875" lengthAdjust="spacing" textLength="212.5" x="890.628" y="308.1573">Register, join, submit,</text><text fill="#000000" font-family="Inter" font-size="21.875" lengthAdjust="spacing" textLength="251.5625" x="871.0967" y="335.672">review, save competitions</text></g><!--link organizer to judgify--><g id="link_organizer_judgify"><path d="M1184.4248,224.0742 C1177.003,262.293 1161.7686,310.3711 1130.4717,341.6992 C1110.8467,361.3398 1095.1623,372.6574 1069.553,384.548 " fill="none" id="organizer-to-judgify" style="stroke:#315B93;stroke-width:2.1875;"/><polygon fill="#315B93" points="1061.0498,388.4961,1076.4366,388.2427,1068.1358,385.206,1071.1725,376.9052,1061.0498,388.4961" style="stroke:#315B93;stroke-width:2.1875;"/><text fill="#000000" font-family="Inter" font-size="21.875" lengthAdjust="spacing" textLength="203.125" x="1221.878" y="308.1573">Create competitions,</text><text fill="#000000" font-family="Inter" font-size="21.875" lengthAdjust="spacing" textLength="310.9375" x="1167.9717" y="335.672">manage rounds, judges, results</text></g><!--link judge to judgify--><g id="link_judge_judgify"><path d="M1555.0655,237.1992 C1544.628,274.2617 1526.003,316.6523 1492.9717,341.6992 C1427.4248,391.4023 1207.1748,376.6836 1125.7842,388.5742 C1117.0186,389.8555 1117.3645,389.7701 1108.3489,391.1451 " fill="none" id="judge-to-judgify" style="stroke:#315B93;stroke-width:2.1875;"/><polygon fill="#315B93" points="1099.0811,392.5586,1113.9251,396.617,1106.8043,391.3807,1112.0405,384.2598,1099.0811,392.5586" style="stroke:#315B93;stroke-width:2.1875;"/><text fill="#000000" font-family="Inter" font-size="21.875" lengthAdjust="spacing" textLength="292.1875" x="1550.003" y="308.1573">Review assigned submissions</text><text fill="#000000" font-family="Inter" font-size="21.875" lengthAdjust="spacing" textLength="315.625" x="1538.2842" y="335.672">Edit own scores before deadline</text></g><!--link admin to judgify--><g id="link_admin_judgify"><path d="M1938.3623,224.0586 C1927.6748,264.3242 1907.0498,314.8398 1867.9717,341.6992 C1799.878,388.4961 1207.8936,379.2461 1125.7842,388.5742 C1116.9873,389.5742 1117.3315,389.4637 1108.2847,390.6355 " fill="none" id="admin-to-judgify" style="stroke:#315B93;stroke-width:2.1875;"/><polygon fill="#315B93" points="1098.9873,391.8398,1113.7362,396.2316,1106.7351,390.8362,1112.1304,383.8352,1098.9873,391.8398" style="stroke:#315B93;stroke-width:2.1875;"/><text fill="#000000" font-family="Inter" font-size="21.875" lengthAdjust="spacing" textLength="282.8125" x="1914.8467" y="308.1573">Manage users, competitions,</text><text fill="#000000" font-family="Inter" font-size="21.875" lengthAdjust="spacing" textLength="176.5625" x="1967.9717" y="335.672">filters, diagnostics</text></g><!--link judgify to postgres--><g id="link_judgify_postgres"><path d="M649.5498,470.043 C605.7686,482.543 561.4405,499.2148 522.6592,521.3867 C473.8623,549.293 435.9235,589.1862 406.9079,625.1237 " fill="none" id="judgify-to-postgres" style="stroke:#315B93;stroke-width:2.1875;"/><polygon fill="#315B93" points="401.0186,632.418,414.7154,625.4028,405.9264,626.3394,404.9897,617.5503,401.0186,632.418" style="stroke:#315B93;stroke-width:2.1875;"/><text fill="#000000" font-family="Inter" font-size="21.875" lengthAdjust="spacing" textLength="181.25" x="567.9717" y="545.6573">Store domain data</text><text fill="#000000" font-family="Inter" font-size="21.875" lengthAdjust="spacing" textLength="268.75" x="524.2217" y="573.172">users, competitions, scores</text></g><!--link judgify to media--><g id="link_judgify_media"><path d="M851.5186,474.8242 C843.9405,489.3711 835.7061,505.9336 828.9092,521.3867 C813.8623,555.5898 802.3533,618.8885 791.3846,650.0135 " fill="none" id="judgify-to-media" style="stroke:#315B93;stroke-width:2.1875;"/><polygon fill="#315B93" points="788.2686,658.8555,798.8373,647.6698,790.8653,651.4871,787.0479,643.5151,788.2686,658.8555" style="stroke:#315B93;stroke-width:2.1875;"/><text fill="#000000" font-family="Inter" font-size="21.875" lengthAdjust="spacing" textLength="223.4375" x="850.7842" y="545.6573">Store and retrieve files</text><text fill="#000000" font-family="Inter" font-size="21.875" lengthAdjust="spacing" textLength="264.0625" x="830.4717" y="573.172">through permission checks</text></g><!--link judgify to notification--><g id="link_judgify_notification"><path d="M1033.1905,474.5117 C1058.5967,486.4805 1082.878,501.8086 1102.3467,521.3867 C1131.9248,551.1367 1145.3322,587.5572 1153.2697,622.4947 " fill="none" id="judgify-to-notification" style="stroke:#315B93;stroke-width:2.1875;"/><polygon fill="#315B93" points="1155.3467,631.6367,1158.3259,616.539,1153.6159,624.0184,1146.1365,619.3083,1155.3467,631.6367" style="stroke:#315B93;stroke-width:2.1875;"/><text fill="#000000" font-family="Inter" font-size="21.875" lengthAdjust="spacing" textLength="237.5" x="1139.8467" y="559.7198">Queue future messages</text></g><!--link render to judgify--><g id="link_render_judgify"><path d="M219.7842,213.793 C240.9248,254.9336 276.7998,311.5117 325.7842,341.6992 C379.7686,374.9648 513.6841,396.3314 640.2309,410.2377 " fill="none" id="render-to-judgify" style="stroke:#315B93;stroke-width:2.1875;"/><polygon fill="#315B93" points="649.5498,411.2617,636.2542,403.513,641.7841,410.4083,634.8888,415.9382,649.5498,411.2617" style="stroke:#315B93;stroke-width:2.1875;"/><text fill="#000000" font-family="Inter" font-size="21.875" lengthAdjust="spacing" textLength="215.625" x="327.3467" y="322.2198">Host frontend and API</text></g><!--link render to postgres--><g id="link_render_postgres"><path d="M213.3155,214.0742 C224.5342,249.6523 240.0498,298.6523 253.9092,341.6992 C287.2686,445.3867 324.1056,557.7152 345.8088,623.7152 " fill="none" id="render-to-postgres" style="stroke:#315B93;stroke-width:2.1875;"/><polygon fill="#315B93" points="348.7373,632.6211,350.2817,617.3099,346.2969,625.1996,338.4073,621.2147,348.7373,632.6211" style="stroke:#315B93;stroke-width:2.1875;"/><text fill="#000000" font-family="Inter" font-size="21.875" lengthAdjust="spacing" textLength="189.0625" x="297.6592" y="440.9698">Provision database</text></g><!--SRC=[RLHDZzCm4BtxLmmzWTHs1UB40MafYrZ4qku7Uug4N7kIUjSUHxRJiY3-EsEdwQQ5IrFRupTltdl92qFATXfXFZzB6tGuU-XqO-gdUTivAv995c7n5XQU4lvCC8Cl_RaGyT5GAuDq43TI-vsX1cff8uvE0geagM6CtmBWndUa5puG1dZzHlmHGgha0qpEoTEJyrs4UnCDRqr0HjZs_uUYbGp9ADDAIkMuVLuF9SlGI3A_iB_lXzLmdAbZHI-LTotoQCOJHELRrA_AXJmw7ZXfPyZ45EJ0H-OT8PvdckorW9MLgVR1LNJdkq3I8IMGf67SoKcI3UQZGxEYevP9hcLak9MFgGbuU_sreXiapJBrbpGCHVtaVLqKjRUvQ79ryV7o_CVDSda7Px1SFp13k6NQCe_xlRLUQiQeZSLOQ3cPC1Zsgi0vr4OAPNsdOTBthUWpzs17fw2Hxp_5ALZVyA_358pgBuPIEzpyrAKk87ppoTH6oJBpAlYjANWNJXhBxDgzL42ZkXvkl2F4tdsOpTuFMi4x-13yZgLgkxKrQYnlhEZUu6uuONKwcw8OXUG4wGORTXV351wyeId4RkrCcbOKSCj0l26tUDH1709r0hK8o88UrJ9ERns477eMheIBdmEpilw7KsxDMaJJ43jMEF6YZ7UXJGA_Av5b45WZwuZiZzJM4ESsn_C4yAhdq4KCtFg48ESXbNsslw7ijuf239Spq10qHifnucQURQIIneh-XxedTuHIydM0oFaBEKJ8yfP8LfGsh5ApWHR3VbvG6rIFnpZZV33STOST8_IfSnWZJnf5dyaJ6NAOeGxv6yRTCuFprUMuT3HeYMoXCBnpGd1dDj8q6pQWFhovKBw52AP4bs51AiLkfvdbsImxRt7ELPSfbnnCDHJvbG09iKML1nehE1UPOUud_W80]--></g></svg>