<?xml version="1.0" encoding="us-ascii" standalone="no"?><svg xmlns="http://www.w3.org/2000/svg" xmlns:xlink="http://www.w3.org/1999/xlink" contentStyleType="text/css" height="1028.125px" preserveAspectRatio="none" style="width:3129px;height:1028px;background:#F7FAFF;" version="1.1" viewBox="0 0 3129 1028" width="3129.6875px" zoomAndPan="magnify"><defs/><g><rect fill="#F7FAFF" height="1028.125" style="stroke:none;stroke-width:1.5625;" width="3129.6875" x="0" y="0"/><rect fill="#E7F0FF" height="62.793" id="_title" rx="9.375" ry="9.375" style="stroke:#B8CBEC;stroke-width:1.5625;" width="610.9375" x="1249.0781" y="7.8125"/><text fill="#13294B" font-family="Inter" font-size="37.5" font-weight="bold" lengthAdjust="spacing" textLength="595.3125" x="1256.8906" y="54.5532">C4 Component - Django Backend</text><!--cluster api--><g id="cluster_api"><rect fill="#FFFFFF" height="459.375" rx="9.375" ry="9.375" style="stroke:#9BB3D5;stroke-width:1.5625;" width="2395.3125" x="10.9375" y="340.1367"/><text fill="#172B4D" font-family="Inter" font-size="21.875" font-weight="bold" lengthAdjust="spacing" textLength="179.6875" x="1118.75" y="365.9698">Django REST API</text></g><!--entity auth--><g id="elem_auth"><rect fill="#FFFFFF" height="113.7939" rx="9.375" ry="9.375" style="stroke:#82A6D9;stroke-width:0.78125;" width="342.1875" x="708.5938" y="396.3867"/><text fill="#172B4D" font-family="Inter" font-size="21.875" lengthAdjust="spacing" textLength="173.4375" x="792.9688" y="434.7198">Auth &amp; Profile API</text><text fill="#172B4D" font-family="Inter" font-size="21.875" lengthAdjust="spacing" textLength="310.9375" x="724.2188" y="462.2345">CSRF, login, account switching,</text><text fill="#172B4D" font-family="Inter" font-size="21.875" lengthAdjust="spacing" textLength="173.4375" x="792.9688" y="489.7491">profile dashboard</text></g><!--entity landing--><g id="elem_landing"><rect fill="#FFFFFF" height="113.7939" rx="9.375" ry="9.375" style="stroke:#82A6D9;stroke-width:0.78125;" width="301.5625" x="1711.7188" y="396.3867"/><text fill="#172B4D" font-family="Inter" font-size="21.875" lengthAdjust="spacing" textLength="118.75" x="1803.125" y="434.7198">Landing API</text><text fill="#172B4D" font-family="Inter" font-size="21.875" lengthAdjust="spacing" textLength="181.25" x="1771.875" y="462.2345">cards, tabs, filters,</text><text fill="#172B4D" font-family="Inter" font-size="21.875" lengthAdjust="spacing" textLength="270.3125" x="1727.3438" y="489.7491">participant/comment counts</text></g><!--entity competition--><g id="elem_competition"><rect fill="#FFFFFF" height="113.7939" rx="9.375" ry="9.375" style="stroke:#82A6D9;stroke-width:0.78125;" width="312.5" x="2068.75" y="396.3867"/><text fill="#172B4D" font-family="Inter" font-size="21.875" lengthAdjust="spacing" textLength="156.25" x="2146.875" y="434.7198">Competition API</text><text fill="#172B4D" font-family="Inter" font-size="21.875" lengthAdjust="spacing" textLength="220.3125" x="2114.8438" y="462.2345">detail, builder, rounds,</text><text fill="#172B4D" font-family="Inter" font-size="21.875" lengthAdjust="spacing" textLength="281.25" x="2084.375" y="489.7491">registration, announcements</text></g><!--entity submission--><g id="elem_submission"><rect fill="#FFFFFF" height="113.7939" rx="9.375" ry="9.375" style="stroke:#82A6D9;stroke-width:0.78125;" width="267.1875" x="1105.4688" y="396.3867"/><text fill="#172B4D" font-family="Inter" font-size="21.875" lengthAdjust="spacing" textLength="151.5625" x="1163.2813" y="434.7198">Submission API</text><text fill="#172B4D" font-family="Inter" font-size="21.875" lengthAdjust="spacing" textLength="185.9375" x="1146.0938" y="462.2345">materials, uploads,</text><text fill="#172B4D" font-family="Inter" font-size="21.875" lengthAdjust="spacing" textLength="235.9375" x="1121.0938" y="489.7491">round submission policy</text></g><!--entity judging--><g id="elem_judging"><rect fill="#FFFFFF" height="113.7939" rx="9.375" ry="9.375" style="stroke:#82A6D9;stroke-width:0.78125;" width="239.0625" x="414.8438" y="396.3867"/><text fill="#172B4D" font-family="Inter" font-size="21.875" lengthAdjust="spacing" textLength="115.625" x="476.5625" y="434.7198">Judging API</text><text fill="#172B4D" font-family="Inter" font-size="21.875" lengthAdjust="spacing" textLength="207.8125" x="430.4688" y="462.2345">assignments, scores,</text><text fill="#172B4D" font-family="Inter" font-size="21.875" lengthAdjust="spacing" textLength="198.4375" x="435.1563" y="489.7491">criteria, aggregation</text></g><!--entity adminApi--><g id="elem_adminApi"><rect fill="#FFFFFF" height="113.7939" rx="9.375" ry="9.375" style="stroke:#82A6D9;stroke-width:0.78125;" width="228.125" x="1428.125" y="396.3867"/><text fill="#172B4D" font-family="Inter" font-size="21.875" lengthAdjust="spacing" textLength="100" x="1492.1875" y="434.7198">Admin API</text><text fill="#172B4D" font-family="Inter" font-size="21.875" lengthAdjust="spacing" textLength="196.875" x="1443.75" y="462.2345">users, competitions,</text><text fill="#172B4D" font-family="Inter" font-size="21.875" lengthAdjust="spacing" textLength="176.5625" x="1453.9063" y="489.7491">filters, diagnostics</text></g><!--entity domain--><g id="elem_domain"><rect fill="#FFFFFF" height="141.3086" rx="9.375" ry="9.375" style="stroke:#82A6D9;stroke-width:0.78125;" width="242.1875" x="1194.5313" y="633.8867"/><text fill="#172B4D" font-family="Inter" font-size="21.875" lengthAdjust="spacing" textLength="165.625" x="1232.8125" y="672.2198">Domain Services</text><text fill="#172B4D" font-family="Inter" font-size="21.875" lengthAdjust="spacing" textLength="173.4375" x="1228.9063" y="699.7345">status transitions,</text><text fill="#172B4D" font-family="Inter" font-size="21.875" lengthAdjust="spacing" textLength="210.9375" x="1210.1563" y="727.2491">permission decisions,</text><text fill="#172B4D" font-family="Inter" font-size="21.875" lengthAdjust="spacing" textLength="178.125" x="1226.5625" y="754.7638">integrity validation</text></g><!--entity commands--><g id="elem_commands"><rect fill="#FFFFFF" height="113.7939" rx="9.375" ry="9.375" style="stroke:#82A6D9;stroke-width:0.78125;" width="323.4375" x="36.7188" y="396.3867"/><text fill="#172B4D" font-family="Inter" font-size="21.875" lengthAdjust="spacing" textLength="292.1875" x="52.3438" y="434.7198">Seed &amp; Validation Commands</text><text fill="#172B4D" font-family="Inter" font-size="21.875" lengthAdjust="spacing" textLength="234.375" x="81.25" y="462.2345">seed_landing_if_empty,</text><text fill="#172B4D" font-family="Inter" font-size="21.875" lengthAdjust="spacing" textLength="234.375" x="81.25" y="489.7491">validate_demo_integrity</text></g><!--entity frontend--><g id="elem_frontend"><ellipse cx="1370.3125" cy="101.8555" fill="#FFF0E6" rx="12.5" ry="12.5" style="stroke:#E56C2C;stroke-width:0.78125;"/><path d="M1370.3125,114.3555 L1370.3125,156.543 M1350,126.8555 L1390.625,126.8555 M1370.3125,156.543 L1350,179.9805 M1370.3125,156.543 L1390.625,179.9805 " fill="none" style="stroke:#E56C2C;stroke-width:0.78125;"/><text fill="#1E2A44" font-family="Inter" font-size="21.875" lengthAdjust="spacing" textLength="154.6875" x="1292.9688" y="205.0323">React Frontend</text></g><!--entity db--><g id="elem_db"><path d="M2513.2813,944.8242 C2513.2813,929.1992 2589.0625,929.1992 2589.0625,929.1992 C2589.0625,929.1992 2664.8438,929.1992 2664.8438,944.8242 L2664.8438,986.4014 C2664.8438,1002.0264 2589.0625,1002.0264 2589.0625,1002.0264 C2589.0625,1002.0264 2513.2813,1002.0264 2513.2813,986.4014 L2513.2813,944.8242 " fill="#EAF8F4" style="stroke:#2C7A68;stroke-width:0.78125;"/><path d="M2513.2813,944.8242 C2513.2813,960.4492 2589.0625,960.4492 2589.0625,960.4492 C2589.0625,960.4492 2664.8438,960.4492 2664.8438,944.8242 " fill="none" style="stroke:#2C7A68;stroke-width:0.78125;"/><text fill="#153B33" font-family="Inter" font-size="21.875" lengthAdjust="spacing" textLength="120.3125" x="2528.9063" y="989.4073">PostgreSQL</text></g><!--entity media--><g id="elem_media"><path d="M2440.625,660.4492 L2493.75,660.4492 A14.0625,14.0625 0 0 1 2503.125,669.8242 L2514.0625,693.2617 L2778.125,693.2617 A9.375,9.375 0 0 1 2787.5,702.6367 L2787.5,737.9639 A9.375,9.375 0 0 1 2778.125,747.3389 L2440.625,747.3389 A9.375,9.375 0 0 1 2431.25,737.9639 L2431.25,669.8242 A9.375,9.375 0 0 1 2440.625,660.4492 " fill="#FFF3E6" style="stroke:#E58A2F;stroke-width:0.78125;"/><line style="stroke:#E58A2F;stroke-width:0.78125;" x1="2431.25" x2="2514.0625" y1="693.2617" y2="693.2617"/><text fill="#4A2B10" font-family="Inter" font-size="21.875" lengthAdjust="spacing" textLength="309.375" x="2446.875" y="726.9073">MEDIA_ROOT / Object Storage</text></g><g id="elem_GMN34"><path d="M2436.7188,416.6992 L2436.7188,489.8682 A12.5,12.5 0 0 0 2449.2188,502.3682 L2891.4063,502.3682 A12.5,12.5 0 0 0 2903.9063,489.8682 L2903.9063,419.8242 L2888.2813,404.1992 L2449.2188,404.1992 A12.5,12.5 0 0 0 2436.7188,416.6992 " fill="#FFF7E8" style="stroke:#F2A94A;stroke-width:0.78125;"/><path d="M2888.2813,404.1992 L2888.2813,413.5742 A6.25,6.25 0 0 0 2894.5313,419.8242 L2903.9063,419.8242 L2888.2813,404.1992 " fill="#FFF7E8" style="stroke:#F2A94A;stroke-width:1.5625;"/><text fill="#24324A" font-family="Inter" font-size="21.875" lengthAdjust="spacing" textLength="184.375" x="2571.0938" y="434.7198">Score uniqueness:</text><text fill="#24324A" font-family="Inter" font-size="21.875" lengthAdjust="spacing" textLength="382.8125" x="2471.875" y="462.2345">judge + submission + round + criterion.</text><text fill="#24324A" font-family="Inter" font-size="21.875" lengthAdjust="spacing" textLength="434.375" x="2446.0938" y="489.7491">Updates replace own score before deadline.</text></g><!--link frontend to auth--><g id="link_frontend_auth"><path d="M1292.5625,162.2773 C1220.5313,175.6055 1112.9844,203.2305 1034.375,257.3242 C981.9375,293.4023 943.5584,344.5377 916.2146,388.1471 " fill="none" id="frontend-to-auth" style="stroke:#315B93;stroke-width:2.1875;"/><polygon fill="#315B93" points="911.2344,396.0898,923.9999,387.4958,915.3846,389.4709,913.4096,380.8555,911.2344,396.0898" style="stroke:#315B93;stroke-width:2.1875;"/><text fill="#000000" font-family="Inter" font-size="21.875" lengthAdjust="spacing" textLength="100" x="1035.9375" y="281.5948">/api/auth/*</text><text fill="#000000" font-family="Inter" font-size="21.875" lengthAdjust="spacing" textLength="85.9375" x="1042.9688" y="309.1095">/api/me/*</text></g><!--link frontend to landing--><g id="link_frontend_landing"><path d="M1447.6719,168.7461 C1510.1719,185.293 1598.7031,214.043 1667.1875,257.3242 C1726.4531,294.7773 1775.7893,345.9297 1812.3361,388.9453 " fill="none" id="frontend-to-landing" style="stroke:#315B93;stroke-width:2.1875;"/><polygon fill="#315B93" points="1818.4063,396.0898,1814.0641,381.3263,1813.3478,390.1361,1804.5381,389.4198,1818.4063,396.0898" style="stroke:#315B93;stroke-width:2.1875;"/><text fill="#000000" font-family="Inter" font-size="21.875" lengthAdjust="spacing" textLength="128.125" x="1739.0625" y="295.6573">/api/landing/*</text></g><!--link frontend to competition--><g id="link_frontend_competition"><path d="M1447.7344,159.0117 C1577.4531,174.9336 1843.8438,219.0586 2040.625,327.6367 C2077.4531,347.9648 2108.664,368.1415 2141.1796,390.7665 " fill="none" id="frontend-to-competition" style="stroke:#315B93;stroke-width:2.1875;"/><polygon fill="#315B93" points="2148.875,396.1211,2140.9017,382.9589,2142.4622,391.6589,2133.7622,393.2195,2148.875,396.1211" style="stroke:#315B93;stroke-width:2.1875;"/><text fill="#000000" font-family="Inter" font-size="21.875" lengthAdjust="spacing" textLength="179.6875" x="2007.8125" y="295.6573">/api/competitions/*</text></g><!--link frontend to submission--><g id="link_frontend_submission"><path d="M1292.4531,168.7461 C1245.5469,183.8398 1189.5156,210.7773 1160.9375,257.3242 C1134,301.2148 1155.188,348.4306 1184.4692,388.6806 " fill="none" id="frontend-to-submission" style="stroke:#315B93;stroke-width:2.1875;"/><polygon fill="#315B93" points="1189.9844,396.2617,1186.7657,381.2132,1185.3884,389.9441,1176.6575,388.5668,1189.9844,396.2617" style="stroke:#315B93;stroke-width:2.1875;"/><text fill="#000000" font-family="Inter" font-size="21.875" lengthAdjust="spacing" textLength="345.3125" x="1162.5" y="295.6573">/api/competitions/{id}/submissions/*</text></g><!--link frontend to judging--><g id="link_frontend_judging"><path d="M1292.5156,154.8242 C1131.0313,163.8867 765.8906,191.2461 662.5,257.3242 C611.3906,289.9961 580.0535,342.6272 559.6629,387.6741 " fill="none" id="frontend-to-judging" style="stroke:#315B93;stroke-width:2.1875;"/><polygon fill="#315B93" points="555.7969,396.2148,567.2897,385.981,559.0185,389.0975,555.902,380.8264,555.7969,396.2148" style="stroke:#315B93;stroke-width:2.1875;"/><text fill="#000000" font-family="Inter" font-size="21.875" lengthAdjust="spacing" textLength="296.875" x="664.0625" y="295.6573">/api/competitions/{id}/judging/*</text></g><!--link frontend to adminApi--><g id="link_frontend_adminApi"><path d="M1447.8438,190.9336 C1473.4375,207.9492 1499.4688,230.2148 1515.625,257.3242 C1540.5781,299.1992 1545.9852,345.6055 1545.8446,386.6993 " fill="none" id="frontend-to-adminApi" style="stroke:#315B93;stroke-width:2.1875;"/><polygon fill="#315B93" points="1545.8125,396.0742,1552.1106,382.0332,1545.8392,388.2618,1539.6107,381.9904,1545.8125,396.0742" style="stroke:#315B93;stroke-width:2.1875;"/><text fill="#000000" font-family="Inter" font-size="21.875" lengthAdjust="spacing" textLength="115.625" x="1537.5" y="295.6573">/api/admin/*</text></g><!--link auth to domain--><g id="link_auth_domain"><path d="M977.5156,510.5586 C1041.6563,546.9961 1117.8325,590.2723 1186.2231,629.1161 " fill="none" id="auth-to-domain" style="stroke:#315B93;stroke-width:2.1875;"/><polygon fill="#315B93" points="1194.375,633.7461,1185.2338,621.3665,1187.5817,629.8877,1179.0605,632.2357,1194.375,633.7461" style="stroke:#315B93;stroke-width:2.1875;"/></g><!--link landing to domain--><g id="link_landing_domain"><path d="M1739.7656,510.5586 C1649.3906,551.4961 1535.6028,603.0196 1445.5403,643.8008 " fill="none" id="landing-to-domain" style="stroke:#315B93;stroke-width:2.1875;"/><polygon fill="#315B93" points="1437,647.668,1452.3885,647.5608,1444.1169,644.4454,1447.2323,636.1738,1437,647.668" style="stroke:#315B93;stroke-width:2.1875;"/></g><!--link competition to domain--><g id="link_competition_domain"><path d="M2068.6875,502.4023 C2059.2031,505.1523 2049.7969,507.8555 2040.625,510.4492 C1829.1875,570.2617 1590.5499,632.4017 1446.2687,669.4017 " fill="none" id="competition-to-domain" style="stroke:#315B93;stroke-width:2.1875;"/><polygon fill="#315B93" points="1437.1875,671.7305,1452.3618,674.2914,1444.7551,669.7898,1449.2567,662.1832,1437.1875,671.7305" style="stroke:#315B93;stroke-width:2.1875;"/></g><!--link submission to domain--><g id="link_submission_domain"><path d="M1256.25,510.5586 C1267.4844,546.918 1279.4964,585.7582 1291.4964,624.5707 " fill="none" id="submission-to-domain" style="stroke:#315B93;stroke-width:2.1875;"/><polygon fill="#315B93" points="1294.2656,633.5273,1296.0829,618.2462,1291.9579,626.0634,1284.1407,621.9385,1294.2656,633.5273" style="stroke:#315B93;stroke-width:2.1875;"/></g><!--link judging to domain--><g id="link_judging_domain"><path d="M653.9688,500.9023 C663.1719,504.1992 672.3438,507.418 681.25,510.4492 C858.2969,570.6211 1057.1741,629.2611 1185.4085,665.9486 " fill="none" id="judging-to-domain" style="stroke:#315B93;stroke-width:2.1875;"/><polygon fill="#315B93" points="1194.4219,668.5273,1182.6209,658.6504,1186.9107,666.3784,1179.1827,670.6682,1194.4219,668.5273" style="stroke:#315B93;stroke-width:2.1875;"/></g><!--link adminApi to domain--><g id="link_adminApi_domain"><path d="M1491.3438,510.5586 C1458.0781,546.918 1420.6867,587.7971 1385.1867,626.6096 " fill="none" id="adminApi-to-domain" style="stroke:#315B93;stroke-width:2.1875;"/><polygon fill="#315B93" points="1378.8594,633.5273,1392.9622,627.3689,1384.1322,627.7626,1383.7386,618.9325,1378.8594,633.5273" style="stroke:#315B93;stroke-width:2.1875;"/></g><!--link commands to domain--><g id="link_commands_domain"><path d="M360.6406,503.4961 C369.7031,505.918 378.7031,508.2461 387.5,510.4492 C674.4688,582.1367 1006.7959,646.2029 1184.8116,679.0154 " fill="none" id="commands-to-domain" style="stroke:#315B93;stroke-width:2.1875;"/><polygon fill="#315B93" points="1194.0313,680.7148,1181.3347,672.0193,1186.3482,679.2987,1179.0688,684.3122,1194.0313,680.7148" style="stroke:#315B93;stroke-width:2.1875;"/></g><!--link domain to db--><g id="link_domain_db"><path d="M1437.0156,754.2617 C1543.3906,794.793 1703.0313,850.8398 1846.875,882.3242 C2086.5313,934.7773 2368.1053,954.0471 2503.5115,960.7659 " fill="none" id="domain-to-db" style="stroke:#315B93;stroke-width:2.1875;"/><polygon fill="#315B93" points="2512.875,961.2305,2499.1395,954.2912,2505.0721,960.8433,2498.52,966.7759,2512.875,961.2305" style="stroke:#315B93;stroke-width:2.1875;"/><text fill="#000000" font-family="Inter" font-size="21.875" lengthAdjust="spacing" textLength="210.9375" x="1855.4688" y="848.7823">Enforce data integrity</text><text fill="#000000" font-family="Inter" font-size="21.875" lengthAdjust="spacing" textLength="225" x="1848.4375" y="876.297">and transactional rules</text></g><!--link submission to media--><g id="link_submission_media"><path d="M1373.0938,504.293 C1382.125,506.6523 1391.1563,508.7461 1400,510.4492 C1814.3906,590.418 1942.6875,441.1992 2348.4375,557.3242 C2423.7188,578.8711 2493.2293,653.0803 2543.9481,687.7522 " fill="none" id="submission-to-media" style="stroke:#315B93;stroke-width:2.1875;"/><polygon fill="#315B93" points="2551.6875,693.043,2543.6055,679.9472,2545.238,688.634,2536.5512,690.2665,2551.6875,693.043" style="stroke:#315B93;stroke-width:2.1875;"/><text fill="#000000" font-family="Inter" font-size="21.875" lengthAdjust="spacing" textLength="223.4375" x="2425" y="581.5948">Store and retrieve files</text></g><!--link auth to db--><g id="link_auth_db"><path d="M1051.25,505.5273 C1060.2969,507.3867 1069.2969,509.043 1078.125,510.4492 C1196.5313,529.3242 2046.7969,508.3555 2156.25,557.3242 C2300.5938,621.9023 2288.3594,704.9023 2404.6875,812.0117 C2450.2031,853.918 2497.8343,892.8368 2535.8655,922.9149 " fill="none" id="auth-to-db" style="stroke:#315B93;stroke-width:2.1875;"/><polygon fill="#315B93" points="2543.2188,928.7305,2536.0659,915.105,2537.091,923.8842,2528.3119,924.9093,2543.2188,928.7305" style="stroke:#315B93;stroke-width:2.1875;"/></g><!--link landing to db--><g id="link_landing_db"><path d="M2013.3125,504.4336 C2023.0313,506.7148 2032.7031,508.7617 2042.1875,510.4492 C2137.3438,527.4336 2844.4531,487.1523 2910.9375,557.3242 C3010.2813,662.1836 2999.5781,768.2773 2910.9375,882.3242 C2881.0313,920.8086 2759.6353,942.9825 2674.2447,954.4513 " fill="none" id="landing-to-db" style="stroke:#315B93;stroke-width:2.1875;"/><polygon fill="#315B93" points="2664.9531,955.6992,2679.7224,960.0217,2672.6961,954.6593,2678.0585,947.6329,2664.9531,955.6992" style="stroke:#315B93;stroke-width:2.1875;"/></g><!--link competition to db--><g id="link_competition_db"><path d="M2381.3438,504.5273 C2390.7813,506.7305 2400.1719,508.7305 2409.375,510.4492 C2476.4688,522.9648 2975.4844,507.2461 3021.875,557.3242 C3120.0313,663.293 3114.0156,771.0898 3021.875,882.3242 C2977.4219,935.9961 2786.266,954.2894 2674.4222,960.68 " fill="none" id="competition-to-db" style="stroke:#315B93;stroke-width:2.1875;"/><polygon fill="#315B93" points="2665.0625,961.2148,2679.4586,966.6525,2672.8623,960.7692,2678.7456,954.1728,2665.0625,961.2148" style="stroke:#315B93;stroke-width:2.1875;"/></g><!--link judging to db--><g id="link_judging_db"><path d="M653.9531,502.418 C663.125,505.3555 672.2969,508.0742 681.25,510.4492 C1021.7344,600.5742 1120.4219,556.668 1464.0625,633.8867 C1864.7656,723.9336 2323.7285,874.2896 2504.0097,935.2583 " fill="none" id="judging-to-db" style="stroke:#315B93;stroke-width:2.1875;"/><polygon fill="#315B93" points="2512.8906,938.2617,2501.5716,927.836,2505.4899,935.7589,2497.567,939.6772,2512.8906,938.2617" style="stroke:#315B93;stroke-width:2.1875;"/></g><!--link adminApi to db--><g id="link_adminApi_db"><path d="M1656.4531,503.1836 C1665.7969,506.0117 1675.1719,508.4961 1684.375,510.4492 C1931.7031,563.1523 2682.6719,418.7773 2815.625,633.8867 C2857.25,701.2305 2852.8438,742.1367 2815.625,812.0117 C2783.9844,871.418 2726.2563,907.8856 2673.5375,932.0575 " fill="none" id="adminApi-to-db" style="stroke:#315B93;stroke-width:2.1875;"/><polygon fill="#315B93" points="2665.0156,935.9648,2680.4034,935.7851,2672.1172,932.7087,2675.1936,924.4225,2665.0156,935.9648" style="stroke:#315B93;stroke-width:2.1875;"/></g><!--link judging to GMN34--><g id="link_judging_GMN34"><path d="M569.5781,395.9805 C600.1875,352.043 648.9375,294.7461 708.5938,269.043 C879.0313,195.6055 2200.6563,217.3867 2378.9063,269.043 C2469.4688,295.293 2558.9063,359.0273 2614.3125,404.1992 " fill="none" id="judging-GMN34" style="stroke:#315B93;stroke-width:2.1875;stroke-dasharray:7.0,7.0;"/></g><!--SRC=[TLHDRzim3BthLt0zxD2w2JRirCE0h1z0Xmxjacwd004jqOvQM_8akKLHzB-Fakt4JhTB756FZuzV-g2Dh5f5C9lDmvPgEdreLQcBbrdJrfK8EbG4vr_WtDQDDMG2dCB50vhImZUKZsIK4FvHcmOTrk2tgEopDYKKM7aQtJYIWRsOx5K0B6rhrBbrXXny-YpUX40Ph8EZ9V4Vk7BM1AO-0lHGz0SXzXn7lOJbvUeU5dVN2OYDJkGZsA8DM_W8TyuMci-CN9lprV8gWygMscI0KhAK0FvP1xbbuTdQD3rQeT_c5bqd0vbgIdw3HiLK4wjadCyWOCw_x1x8-SY5BcYf6pHXBcrTnmAcY3wHLXt5b3UMchZmsfgEMr50NMMGjxfIv39miNoHtb6fVN0OiPoCCNmXAKRf-EMUQXfZrUQrzduNeaOMhBbd6RHDPR5ZZs70xw6DhRHyISnxwvJuUvoUeIZ8WD8aEHbuQHr5Mkbq2iQ2ov8pIEeJwKFdVD13LUjUPUjZLSTPHRwXsg0qbiPwBdYNFKRFHQEdV1UsHYPSaNlIalpQ-82XzS1bD7v7sf0RibOajU_DcaUnPFqly8ILLdlfAh4U59b8yVJztY7Z5jNSyXYKxpPz-pUws53TX1SEqDFIHb5jDxjmGpUJTzmNnc2EdgFSSSPSnjNFcqv8BWeRnmIEVbnUN2ysozlRUvZ3RVx0oc35QuOb9MXDN34XXWM3qzElQSpX3EQyJFFuVtwyDkbGq_nu2ktL3-Z-U8WQDMj0Zljt21zDsx_GhrgzpVUOT-xz1FtVjmSS-WsZiaizdXaaKZqYec_maFJ8DCvmP1vbCh8E0aUcNUmfPshrs2QwRsVAMUcbAQoJyQ4A2BjHuRNZfD8qyrlAuR42rrRa3nMbzZDD70c2wEGeE4rF51ymnkzppwTvv-zppgUPvGTPvK8O6mYSBhS1R35QzLLy5w0r-azBXhm_Orky9JWPJyD9z-hnjty_h9anybSJjyMpzAP2heLzDjrB0paLyQC8LQKDpKJiTHGX_W80]--></g></svg>