<?xml version="1.0" encoding="us-ascii" standalone="no"?><svg xmlns="http://www.w3.org/2000/svg" xmlns:xlink="http://www.w3.org/1999/xlink" contentStyleType="text/css" height="1184.375px" preserveAspectRatio="none" style="width:1532px;height:1184px;background:#F7FAFF;" version="1.1" viewBox="0 0 1532 1184" width="1532.8125px" zoomAndPan="magnify"><defs/><g><rect fill="#F7FAFF" height="1184.375" style="stroke:none;stroke-width:1.5625;" width="1532.8125" x="0" y="0"/><rect fill="#E7F0FF" height="62.793" id="_title" rx="9.375" ry="9.375" style="stroke:#B8CBEC;stroke-width:1.5625;" width="576.5625" x="480.4688" y="15.625"/><text fill="#13294B" font-family="Inter" font-size="37.5" font-weight="bold" lengthAdjust="spacing" textLength="560.9375" x="488.2813" y="62.3657">Sequence - Results Publication</text><line style="stroke:#9BB3D5;stroke-width:0.78125;stroke-dasharray:5.0,5.0;" x1="60.9375" x2="60.9375" y1="209.0576" y2="1056.4941"/><line style="stroke:#9BB3D5;stroke-width:0.78125;stroke-dasharray:5.0,5.0;" x1="185.9375" x2="185.9375" y1="209.0576" y2="1056.4941"/><line style="stroke:#9BB3D5;stroke-width:0.78125;stroke-dasharray:5.0,5.0;" x1="357.8125" x2="357.8125" y1="209.0576" y2="1056.4941"/><line style="stroke:#9BB3D5;stroke-width:0.78125;stroke-dasharray:5.0,5.0;" x1="785.1563" x2="785.1563" y1="209.0576" y2="1056.4941"/><line style="stroke:#9BB3D5;stroke-width:0.78125;stroke-dasharray:5.0,5.0;" x1="1160.9375" x2="1160.9375" y1="209.0576" y2="1056.4941"/><line style="stroke:#9BB3D5;stroke-width:0.78125;stroke-dasharray:5.0,5.0;" x1="1465.625" x2="1465.625" y1="209.0576" y2="1056.4941"/><text fill="#1E2A44" font-family="Inter" font-size="21.875" lengthAdjust="spacing" textLength="96.875" x="7.8125" y="204.2511">Organizer</text><ellipse cx="60.9375" cy="101.0742" fill="#FFF0E6" rx="12.5" ry="12.5" style="stroke:#E56C2C;stroke-width:0.78125;"/><path d="M60.9375,113.5742 L60.9375,155.7617 M40.625,126.0742 L81.25,126.0742 M60.9375,155.7617 L40.625,179.1992 M60.9375,155.7617 L81.25,179.1992 " fill="none" style="stroke:#E56C2C;stroke-width:0.78125;"/><text fill="#1E2A44" font-family="Inter" font-size="21.875" lengthAdjust="spacing" textLength="96.875" x="7.8125" y="1077.6398">Organizer</text><ellipse cx="60.9375" cy="1095.7275" fill="#FFF0E6" rx="12.5" ry="12.5" style="stroke:#E56C2C;stroke-width:0.78125;"/><path d="M60.9375,1108.2275 L60.9375,1150.415 M40.625,1120.7275 L81.25,1120.7275 M60.9375,1150.415 L40.625,1173.8525 M60.9375,1150.415 L81.25,1173.8525 " fill="none" style="stroke:#E56C2C;stroke-width:0.78125;"/><text fill="#1E2A44" font-family="Inter" font-size="21.875" lengthAdjust="spacing" textLength="104.6875" x="129.6875" y="204.2511">Participant</text><ellipse cx="186.7188" cy="101.0742" fill="#FFF0E6" rx="12.5" ry="12.5" style="stroke:#E56C2C;stroke-width:0.78125;"/><path d="M186.7188,113.5742 L186.7188,155.7617 M166.4063,126.0742 L207.0313,126.0742 M186.7188,155.7617 L166.4063,179.1992 M186.7188,155.7617 L207.0313,179.1992 " fill="none" style="stroke:#E56C2C;stroke-width:0.78125;"/><text fill="#1E2A44" font-family="Inter" font-size="21.875" lengthAdjust="spacing" textLength="104.6875" x="129.6875" y="1077.6398">Participant</text><ellipse cx="186.7188" cy="1095.7275" fill="#FFF0E6" rx="12.5" ry="12.5" style="stroke:#E56C2C;stroke-width:0.78125;"/><path d="M186.7188,1108.2275 L186.7188,1150.415 M166.4063,1120.7275 L207.0313,1120.7275 M186.7188,1150.415 L166.4063,1173.8525 M186.7188,1150.415 L207.0313,1173.8525 " fill="none" style="stroke:#E56C2C;stroke-width:0.78125;"/><rect fill="#EAF2FF" height="49.3896" rx="12.5" ry="12.5" style="stroke:#5E86C5;stroke-width:0.78125;" width="120.3125" x="298.4375" y="158.1055"/><text fill="#13294B" font-family="Inter" font-size="21.875" lengthAdjust="spacing" textLength="98.4375" x="309.375" y="191.7511">Results UI</text><rect fill="#EAF2FF" height="49.3896" rx="12.5" ry="12.5" style="stroke:#5E86C5;stroke-width:0.78125;" width="120.3125" x="298.4375" y="1054.9316"/><text fill="#13294B" font-family="Inter" font-size="21.875" lengthAdjust="spacing" textLength="98.4375" x="309.375" y="1088.5773">Results UI</text><rect fill="#EAF2FF" height="49.3896" rx="12.5" ry="12.5" style="stroke:#5E86C5;stroke-width:0.78125;" width="134.375" x="717.9688" y="158.1055"/><text fill="#13294B" font-family="Inter" font-size="21.875" lengthAdjust="spacing" textLength="112.5" x="728.9063" y="191.7511">Results API</text><rect fill="#EAF2FF" height="49.3896" rx="12.5" ry="12.5" style="stroke:#5E86C5;stroke-width:0.78125;" width="134.375" x="717.9688" y="1054.9316"/><text fill="#13294B" font-family="Inter" font-size="21.875" lengthAdjust="spacing" textLength="112.5" x="728.9063" y="1088.5773">Results API</text><rect fill="#EAF2FF" height="49.3896" rx="12.5" ry="12.5" style="stroke:#5E86C5;stroke-width:0.78125;" width="176.5625" x="1073.4375" y="158.1055"/><text fill="#13294B" font-family="Inter" font-size="21.875" lengthAdjust="spacing" textLength="154.6875" x="1084.375" y="191.7511">Domain Service</text><rect fill="#EAF2FF" height="49.3896" rx="12.5" ry="12.5" style="stroke:#5E86C5;stroke-width:0.78125;" width="176.5625" x="1073.4375" y="1054.9316"/><text fill="#13294B" font-family="Inter" font-size="21.875" lengthAdjust="spacing" textLength="154.6875" x="1084.375" y="1088.5773">Domain Service</text><text fill="#153B33" font-family="Inter" font-size="21.875" lengthAdjust="spacing" textLength="120.3125" x="1401.5625" y="204.2511">PostgreSQL</text><path d="M1438.2813,125.293 C1438.2813,109.668 1466.4063,109.668 1466.4063,109.668 C1466.4063,109.668 1494.5313,109.668 1494.5313,125.293 L1494.5313,165.918 C1494.5313,181.543 1466.4063,181.543 1466.4063,181.543 C1466.4063,181.543 1438.2813,181.543 1438.2813,165.918 L1438.2813,125.293 " fill="#EAF8F4" style="stroke:#2C7A68;stroke-width:2.34375;"/><path d="M1438.2813,125.293 C1438.2813,140.918 1466.4063,140.918 1466.4063,140.918 C1466.4063,140.918 1494.5313,140.918 1494.5313,125.293 " fill="none" style="stroke:#2C7A68;stroke-width:2.34375;"/><text fill="#153B33" font-family="Inter" font-size="21.875" lengthAdjust="spacing" textLength="120.3125" x="1401.5625" y="1077.6398">PostgreSQL</text><path d="M1438.2813,1098.0713 C1438.2813,1082.4463 1466.4063,1082.4463 1466.4063,1082.4463 C1466.4063,1082.4463 1494.5313,1082.4463 1494.5313,1098.0713 L1494.5313,1138.6963 C1494.5313,1154.3213 1466.4063,1154.3213 1466.4063,1154.3213 C1466.4063,1154.3213 1438.2813,1154.3213 1438.2813,1138.6963 L1438.2813,1098.0713 " fill="#EAF8F4" style="stroke:#2C7A68;stroke-width:2.34375;"/><path d="M1438.2813,1098.0713 C1438.2813,1113.6963 1466.4063,1113.6963 1466.4063,1113.6963 C1466.4063,1113.6963 1494.5313,1113.6963 1494.5313,1098.0713 " fill="none" style="stroke:#2C7A68;stroke-width:2.34375;"/><polygon fill="#315B93" points="339.8438,255.3223,355.4688,261.5723,339.8438,267.8223,346.0938,261.5723" style="stroke:#315B93;stroke-width:1.5625;"/><line style="stroke:#315B93;stroke-width:2.1875;" x1="60.9375" x2="349.2188" y1="261.5723" y2="261.5723"/><text fill="#000000" font-family="Inter" font-size="21.875" lengthAdjust="spacing" textLength="207.8125" x="105.8594" y="253.6407">Open results preview</text><polygon fill="#315B93" points="766.4063,304.7119,782.0313,310.9619,766.4063,317.2119,772.6563,310.9619" style="stroke:#315B93;stroke-width:1.5625;"/><line style="stroke:#315B93;stroke-width:2.1875;" x1="358.5938" x2="775.7813" y1="310.9619" y2="310.9619"/><text fill="#000000" font-family="Inter" font-size="21.875" lengthAdjust="spacing" textLength="298.4375" x="422.6563" y="303.0304">GET /competitions/{id}/results/</text><polygon fill="#315B93" points="1142.9688,354.1016,1158.5938,360.3516,1142.9688,366.6016,1149.2188,360.3516" style="stroke:#315B93;stroke-width:1.5625;"/><line style="stroke:#315B93;stroke-width:2.1875;" x1="785.1563" x2="1152.3438" y1="360.3516" y2="360.3516"/><text fill="#000000" font-family="Inter" font-size="21.875" lengthAdjust="spacing" textLength="339.0625" x="803.9063" y="352.42">Check organizer/admin permission</text><polygon fill="#315B93" points="1447.6563,403.4912,1463.2813,409.7412,1447.6563,415.9912,1453.9063,409.7412" style="stroke:#315B93;stroke-width:1.5625;"/><line style="stroke:#315B93;stroke-width:2.1875;" x1="785.1563" x2="1457.0313" y1="409.7412" y2="409.7412"/><text fill="#000000" font-family="Inter" font-size="21.875" lengthAdjust="spacing" textLength="268.75" x="991.4063" y="401.8097">Load scores across rounds</text><line style="stroke:#315B93;stroke-width:2.1875;" x1="1161.7188" x2="1227.3438" y1="486.6455" y2="486.6455"/><line style="stroke:#315B93;stroke-width:2.1875;" x1="1227.3438" x2="1227.3438" y1="486.6455" y2="506.958"/><line style="stroke:#315B93;stroke-width:2.1875;" x1="1163.2813" x2="1227.3438" y1="506.958" y2="506.958"/><polygon fill="#315B93" points="1178.9063,500.708,1163.2813,506.958,1178.9063,513.208,1172.6563,506.958" style="stroke:#315B93;stroke-width:1.5625;"/><text fill="#000000" font-family="Inter" font-size="21.875" lengthAdjust="spacing" textLength="282.8125" x="1172.6563" y="451.1993">Group by team or participant</text><text fill="#000000" font-family="Inter" font-size="21.875" lengthAdjust="spacing" textLength="215.625" x="1206.25" y="478.714">Apply average or sum</text><polygon fill="#315B93" points="375.7813,550.0977,360.1563,556.3477,375.7813,562.5977,369.5313,556.3477" style="stroke:#315B93;stroke-width:1.5625;"/><line style="stroke:#315B93;stroke-width:2.1875;stroke-dasharray:2.0,2.0;" x1="366.4063" x2="783.5938" y1="556.3477" y2="556.3477"/><text fill="#000000" font-family="Inter" font-size="21.875" lengthAdjust="spacing" textLength="203.125" x="470.3125" y="548.4161">Preview leaderboard</text><polygon fill="#315B93" points="339.8438,599.4873,355.4688,605.7373,339.8438,611.9873,346.0938,605.7373" style="stroke:#315B93;stroke-width:1.5625;"/><line style="stroke:#315B93;stroke-width:2.1875;" x1="60.9375" x2="349.2188" y1="605.7373" y2="605.7373"/><text fill="#000000" font-family="Inter" font-size="21.875" lengthAdjust="spacing" textLength="143.75" x="137.8906" y="597.8058">Publish results</text><polygon fill="#315B93" points="766.4063,648.877,782.0313,655.127,766.4063,661.377,772.6563,655.127" style="stroke:#315B93;stroke-width:1.5625;"/><line style="stroke:#315B93;stroke-width:2.1875;" x1="358.5938" x2="775.7813" y1="655.127" y2="655.127"/><text fill="#000000" font-family="Inter" font-size="21.875" lengthAdjust="spacing" textLength="389.0625" x="377.3438" y="647.1954">POST /competitions/{id}/results/publish/</text><polygon fill="#315B93" points="1447.6563,725.7813,1463.2813,732.0313,1447.6563,738.2813,1453.9063,732.0313" style="stroke:#315B93;stroke-width:1.5625;"/><line style="stroke:#315B93;stroke-width:2.1875;" x1="785.1563" x2="1457.0313" y1="732.0313" y2="732.0313"/><text fill="#000000" font-family="Inter" font-size="21.875" lengthAdjust="spacing" textLength="187.5" x="1032.0313" y="696.5851">Mark results visible</text><text fill="#000000" font-family="Inter" font-size="21.875" lengthAdjust="spacing" textLength="362.5" x="944.5313" y="724.0997">and competition finished if applicable</text><polygon fill="#315B93" points="375.7813,775.1709,360.1563,781.4209,375.7813,787.6709,369.5313,781.4209" style="stroke:#315B93;stroke-width:1.5625;"/><line style="stroke:#315B93;stroke-width:2.1875;stroke-dasharray:2.0,2.0;" x1="366.4063" x2="783.5938" y1="781.4209" y2="781.4209"/><text fill="#000000" font-family="Inter" font-size="21.875" lengthAdjust="spacing" textLength="96.875" x="523.4375" y="773.4894">Published</text><polygon fill="#315B93" points="339.8438,824.5605,355.4688,830.8105,339.8438,837.0605,346.0938,830.8105" style="stroke:#315B93;stroke-width:1.5625;"/><line style="stroke:#315B93;stroke-width:2.1875;" x1="186.7188" x2="349.2188" y1="830.8105" y2="830.8105"/><text fill="#000000" font-family="Inter" font-size="21.875" lengthAdjust="spacing" textLength="134.375" x="205.4688" y="822.879">Open Results</text><polygon fill="#315B93" points="766.4063,873.9502,782.0313,880.2002,766.4063,886.4502,772.6563,880.2002" style="stroke:#315B93;stroke-width:1.5625;"/><line style="stroke:#315B93;stroke-width:2.1875;" x1="358.5938" x2="775.7813" y1="880.2002" y2="880.2002"/><text fill="#000000" font-family="Inter" font-size="21.875" lengthAdjust="spacing" textLength="298.4375" x="422.6563" y="872.2687">GET /competitions/{id}/results/</text><polygon fill="#315B93" points="1142.9688,923.3398,1158.5938,929.5898,1142.9688,935.8398,1149.2188,929.5898" style="stroke:#315B93;stroke-width:1.5625;"/><line style="stroke:#315B93;stroke-width:2.1875;" x1="785.1563" x2="1152.3438" y1="929.5898" y2="929.5898"/><text fill="#000000" font-family="Inter" font-size="21.875" lengthAdjust="spacing" textLength="206.25" x="870.3125" y="921.6583">Check visibility policy</text><polygon fill="#315B93" points="1447.6563,972.7295,1463.2813,978.9795,1447.6563,985.2295,1453.9063,978.9795" style="stroke:#315B93;stroke-width:1.5625;"/><line style="stroke:#315B93;stroke-width:2.1875;" x1="785.1563" x2="1457.0313" y1="978.9795" y2="978.9795"/><text fill="#000000" font-family="Inter" font-size="21.875" lengthAdjust="spacing" textLength="240.625" x="1005.4688" y="971.048">Load public leaderboard</text><polygon fill="#315B93" points="375.7813,1022.1191,360.1563,1028.3691,375.7813,1034.6191,369.5313,1028.3691" style="stroke:#315B93;stroke-width:1.5625;"/><line style="stroke:#315B93;stroke-width:2.1875;stroke-dasharray:2.0,2.0;" x1="366.4063" x2="783.5938" y1="1028.3691" y2="1028.3691"/><text fill="#000000" font-family="Inter" font-size="21.875" lengthAdjust="spacing" textLength="318.75" x="412.5" y="1020.4376">Sorted results without duplicates</text><!--SRC=[dL8zRzim4DtvAoxURUqT2WHD4GH8OJLkjomdycnVGv4iFnmeGVvxpvALI8cHePkeztZlutZ1JjjY25QhAk-ffUMVOdQyxLQXj5PbpfPWGtyBEKsmX3jAnUO4TMaiQypidLAeiu-mMCSTEdwYk01CuCVJ2DSOCsiEw79F26zdDVc6nQZn-wRd5JuFNzO3Zk4TuSgto4vSnmDhwZcc_wKCPcmmaPZnAUyYRNxU3dYZrAjXM7uLKVW2wq0EuaakH3emFIf111TH8Ln__mMLzcqWAKggIDKpcvVgTALIHvQG1tNXVzkJVdXhfaBJolz0iUMKZbME5neXtteqaBINQO0w-fGW-k9CKgTvqydN0WLeEiY4hIXCsxrtbo7O3l104NTqH5Df1wqnQZsa0qjeA3OUepdNIB_sj1zBcPLHhpUVjX66kzKiv0-C3wyL7pXnO-dUeJCm6GHRTdAJ3F1MnCBnvGdlNO9XF8dlwMkOxVBkZEt_ss5lbItd3e8NFzt7rVLvzQpHcU6DZraYZU4VEUzzoM1AdozJKly0]--></g></svg>