<?xml version="1.0" encoding="us-ascii" standalone="no"?><svg xmlns="http://www.w3.org/2000/svg" xmlns:xlink="http://www.w3.org/1999/xlink" contentStyleType="text/css" height="1695.3125px" preserveAspectRatio="none" style="width:1590px;height:1695px;background:#F7FAFF;" version="1.1" viewBox="0 0 1590 1695" width="1590.625px" zoomAndPan="magnify"><defs/><g><rect fill="#F7FAFF" height="1695.3125" style="stroke:none;stroke-width:1.5625;" width="1590.625" x="0" y="0"/><rect fill="#E7F0FF" height="62.793" id="_title" rx="9.375" ry="9.375" style="stroke:#B8CBEC;stroke-width:1.5625;" width="535.9375" x="528.9063" y="15.625"/><text fill="#13294B" font-family="Inter" font-size="37.5" font-weight="bold" lengthAdjust="spacing" textLength="520.3125" x="536.7188" y="62.3657">Sequence - Join Competition</text><rect fill="none" height="262.915" rx="12.5" ry="12.5" style="stroke:#9BB3D5;stroke-width:2.34375;" width="1184.375" x="395.3125" y="1080.8838"/><line style="stroke:#9BB3D5;stroke-width:0.78125;stroke-dasharray:5.0,5.0;" x1="103.125" x2="103.125" y1="209.0576" y2="1567.9199"/><line style="stroke:#9BB3D5;stroke-width:0.78125;stroke-dasharray:5.0,5.0;" x1="271.875" x2="271.875" y1="209.0576" y2="1567.9199"/><line style="stroke:#9BB3D5;stroke-width:0.78125;stroke-dasharray:5.0,5.0;" x1="498.4375" x2="498.4375" y1="209.0576" y2="1567.9199"/><line style="stroke:#9BB3D5;stroke-width:0.78125;stroke-dasharray:5.0,5.0;" x1="888.2813" x2="888.2813" y1="209.0576" y2="1567.9199"/><line style="stroke:#9BB3D5;stroke-width:0.78125;stroke-dasharray:5.0,5.0;" x1="1141.4063" x2="1141.4063" y1="209.0576" y2="1567.9199"/><line style="stroke:#9BB3D5;stroke-width:0.78125;stroke-dasharray:5.0,5.0;" x1="1498.4375" x2="1498.4375" y1="209.0576" y2="1567.9199"/><text fill="#1E2A44" font-family="Inter" font-size="21.875" lengthAdjust="spacing" textLength="182.8125" x="7.8125" y="204.2511">Anonymous Visitor</text><ellipse cx="103.9063" cy="101.0742" fill="#FFF0E6" rx="12.5" ry="12.5" style="stroke:#E56C2C;stroke-width:0.78125;"/><path d="M103.9063,113.5742 L103.9063,155.7617 M83.5938,126.0742 L124.2188,126.0742 M103.9063,155.7617 L83.5938,179.1992 M103.9063,155.7617 L124.2188,179.1992 " fill="none" style="stroke:#E56C2C;stroke-width:0.78125;"/><text fill="#1E2A44" font-family="Inter" font-size="21.875" lengthAdjust="spacing" textLength="182.8125" x="7.8125" y="1589.0656">Anonymous Visitor</text><ellipse cx="103.9063" cy="1607.1533" fill="#FFF0E6" rx="12.5" ry="12.5" style="stroke:#E56C2C;stroke-width:0.78125;"/><path d="M103.9063,1619.6533 L103.9063,1661.8408 M83.5938,1632.1533 L124.2188,1632.1533 M103.9063,1661.8408 L83.5938,1685.2783 M103.9063,1661.8408 L124.2188,1685.2783 " fill="none" style="stroke:#E56C2C;stroke-width:0.78125;"/><text fill="#1E2A44" font-family="Inter" font-size="21.875" lengthAdjust="spacing" textLength="104.6875" x="215.625" y="204.2511">Participant</text><ellipse cx="272.6563" cy="101.0742" fill="#FFF0E6" rx="12.5" ry="12.5" style="stroke:#E56C2C;stroke-width:0.78125;"/><path d="M272.6563,113.5742 L272.6563,155.7617 M252.3438,126.0742 L292.9688,126.0742 M272.6563,155.7617 L252.3438,179.1992 M272.6563,155.7617 L292.9688,179.1992 " fill="none" style="stroke:#E56C2C;stroke-width:0.78125;"/><text fill="#1E2A44" font-family="Inter" font-size="21.875" lengthAdjust="spacing" textLength="104.6875" x="215.625" y="1589.0656">Participant</text><ellipse cx="272.6563" cy="1607.1533" fill="#FFF0E6" rx="12.5" ry="12.5" style="stroke:#E56C2C;stroke-width:0.78125;"/><path d="M272.6563,1619.6533 L272.6563,1661.8408 M252.3438,1632.1533 L292.9688,1632.1533 M272.6563,1661.8408 L252.3438,1685.2783 M272.6563,1661.8408 L292.9688,1685.2783 " fill="none" style="stroke:#E56C2C;stroke-width:0.78125;"/><rect fill="#EAF2FF" height="49.3896" rx="12.5" ry="12.5" style="stroke:#5E86C5;stroke-width:0.78125;" width="176.5625" x="410.9375" y="158.1055"/><text fill="#13294B" font-family="Inter" font-size="21.875" lengthAdjust="spacing" textLength="154.6875" x="421.875" y="191.7511">React Frontend</text><rect fill="#EAF2FF" height="49.3896" rx="12.5" ry="12.5" style="stroke:#5E86C5;stroke-width:0.78125;" width="176.5625" x="410.9375" y="1566.3574"/><text fill="#13294B" font-family="Inter" font-size="21.875" lengthAdjust="spacing" textLength="154.6875" x="421.875" y="1600.0031">React Frontend</text><rect fill="#EAF2FF" height="49.3896" rx="12.5" ry="12.5" style="stroke:#5E86C5;stroke-width:0.78125;" width="106.25" x="835.1563" y="158.1055"/><text fill="#13294B" font-family="Inter" font-size="21.875" lengthAdjust="spacing" textLength="84.375" x="846.0938" y="191.7511">Auth API</text><rect fill="#EAF2FF" height="49.3896" rx="12.5" ry="12.5" style="stroke:#5E86C5;stroke-width:0.78125;" width="106.25" x="835.1563" y="1566.3574"/><text fill="#13294B" font-family="Inter" font-size="21.875" lengthAdjust="spacing" textLength="84.375" x="846.0938" y="1600.0031">Auth API</text><rect fill="#EAF2FF" height="49.3896" rx="12.5" ry="12.5" style="stroke:#5E86C5;stroke-width:0.78125;" width="178.125" x="1052.3438" y="158.1055"/><text fill="#13294B" font-family="Inter" font-size="21.875" lengthAdjust="spacing" textLength="156.25" x="1063.2813" y="191.7511">Competition API</text><rect fill="#EAF2FF" height="49.3896" rx="12.5" ry="12.5" style="stroke:#5E86C5;stroke-width:0.78125;" width="178.125" x="1052.3438" y="1566.3574"/><text fill="#13294B" font-family="Inter" font-size="21.875" lengthAdjust="spacing" textLength="156.25" x="1063.2813" y="1600.0031">Competition API</text><text fill="#153B33" font-family="Inter" font-size="21.875" lengthAdjust="spacing" textLength="120.3125" x="1434.375" y="204.2511">PostgreSQL</text><path d="M1471.0938,125.293 C1471.0938,109.668 1499.2188,109.668 1499.2188,109.668 C1499.2188,109.668 1527.3438,109.668 1527.3438,125.293 L1527.3438,165.918 C1527.3438,181.543 1499.2188,181.543 1499.2188,181.543 C1499.2188,181.543 1471.0938,181.543 1471.0938,165.918 L1471.0938,125.293 " fill="#EAF8F4" style="stroke:#2C7A68;stroke-width:2.34375;"/><path d="M1471.0938,125.293 C1471.0938,140.918 1499.2188,140.918 1499.2188,140.918 C1499.2188,140.918 1527.3438,140.918 1527.3438,125.293 " fill="none" style="stroke:#2C7A68;stroke-width:2.34375;"/><text fill="#153B33" font-family="Inter" font-size="21.875" lengthAdjust="spacing" textLength="120.3125" x="1434.375" y="1589.0656">PostgreSQL</text><path d="M1471.0938,1609.4971 C1471.0938,1593.8721 1499.2188,1593.8721 1499.2188,1593.8721 C1499.2188,1593.8721 1527.3438,1593.8721 1527.3438,1609.4971 L1527.3438,1650.1221 C1527.3438,1665.7471 1499.2188,1665.7471 1499.2188,1665.7471 C1499.2188,1665.7471 1471.0938,1665.7471 1471.0938,1650.1221 L1471.0938,1609.4971 " fill="#EAF8F4" style="stroke:#2C7A68;stroke-width:2.34375;"/><path d="M1471.0938,1609.4971 C1471.0938,1625.1221 1499.2188,1625.1221 1499.2188,1625.1221 C1499.2188,1625.1221 1527.3438,1625.1221 1527.3438,1609.4971 " fill="none" style="stroke:#2C7A68;stroke-width:2.34375;"/><polygon fill="#315B93" points="480.4688,255.3223,496.0938,261.5723,480.4688,267.8223,486.7188,261.5723" style="stroke:#315B93;stroke-width:1.5625;"/><line style="stroke:#315B93;stroke-width:2.1875;" x1="103.9063" x2="489.8438" y1="261.5723" y2="261.5723"/><text fill="#000000" font-family="Inter" font-size="21.875" lengthAdjust="spacing" textLength="229.6875" x="186.7188" y="253.6407">Open competition page</text><polygon fill="#315B93" points="1122.6563,304.7119,1138.2813,310.9619,1122.6563,317.2119,1128.9063,310.9619" style="stroke:#315B93;stroke-width:1.5625;"/><line style="stroke:#315B93;stroke-width:2.1875;" x1="499.2188" x2="1132.0313" y1="310.9619" y2="310.9619"/><text fill="#000000" font-family="Inter" font-size="21.875" lengthAdjust="spacing" textLength="226.5625" x="707.0313" y="303.0304">GET /competitions/{id}/</text><polygon fill="#315B93" points="1480.4688,354.1016,1496.0938,360.3516,1480.4688,366.6016,1486.7188,360.3516" style="stroke:#315B93;stroke-width:1.5625;"/><line style="stroke:#315B93;stroke-width:2.1875;" x1="1141.4063" x2="1489.8438" y1="360.3516" y2="360.3516"/><text fill="#000000" font-family="Inter" font-size="21.875" lengthAdjust="spacing" textLength="320.3125" x="1160.1563" y="352.42">Load public detail and join policy</text><polygon fill="#315B93" points="516.4063,403.4912,500.7813,409.7412,516.4063,415.9912,510.1563,409.7412" style="stroke:#315B93;stroke-width:1.5625;"/><line style="stroke:#315B93;stroke-width:2.1875;stroke-dasharray:2.0,2.0;" x1="507.0313" x2="1139.8438" y1="409.7412" y2="409.7412"/><text fill="#000000" font-family="Inter" font-size="21.875" lengthAdjust="spacing" textLength="231.25" x="704.6875" y="401.8097">Detail with can_join hint</text><polygon fill="#315B93" points="480.4688,452.8809,496.0938,459.1309,480.4688,465.3809,486.7188,459.1309" style="stroke:#315B93;stroke-width:1.5625;"/><line style="stroke:#315B93;stroke-width:2.1875;" x1="103.9063" x2="489.8438" y1="459.1309" y2="459.1309"/><text fill="#000000" font-family="Inter" font-size="21.875" lengthAdjust="spacing" textLength="92.1875" x="255.4688" y="451.1993">Click Join</text><polygon fill="#315B93" points="869.5313,529.7852,885.1563,536.0352,869.5313,542.2852,875.7813,536.0352" style="stroke:#315B93;stroke-width:1.5625;"/><line style="stroke:#315B93;stroke-width:2.1875;" x1="499.2188" x2="878.9063" y1="536.0352" y2="536.0352"/><text fill="#000000" font-family="Inter" font-size="21.875" lengthAdjust="spacing" textLength="212.5" x="587.5" y="500.589">Require login/register</text><text fill="#000000" font-family="Inter" font-size="21.875" lengthAdjust="spacing" textLength="351.5625" x="517.9688" y="528.1036">preserve return_to competition URL</text><polygon fill="#315B93" points="516.4063,579.1748,500.7813,585.4248,516.4063,591.6748,510.1563,585.4248" style="stroke:#315B93;stroke-width:1.5625;"/><line style="stroke:#315B93;stroke-width:2.1875;stroke-dasharray:2.0,2.0;" x1="507.0313" x2="886.7188" y1="585.4248" y2="585.4248"/><text fill="#000000" font-family="Inter" font-size="21.875" lengthAdjust="spacing" textLength="95.3125" x="646.0938" y="577.4933">Auth form</text><polygon fill="#315B93" points="480.4688,628.5645,496.0938,634.8145,480.4688,641.0645,486.7188,634.8145" style="stroke:#315B93;stroke-width:1.5625;"/><line style="stroke:#315B93;stroke-width:2.1875;" x1="272.6563" x2="489.8438" y1="634.8145" y2="634.8145"/><text fill="#000000" font-family="Inter" font-size="21.875" lengthAdjust="spacing" textLength="162.5" x="304.6875" y="626.8829">Login or register</text><polygon fill="#315B93" points="869.5313,677.9541,885.1563,684.2041,869.5313,690.4541,875.7813,684.2041" style="stroke:#315B93;stroke-width:1.5625;"/><line style="stroke:#315B93;stroke-width:2.1875;" x1="499.2188" x2="878.9063" y1="684.2041" y2="684.2041"/><text fill="#000000" font-family="Inter" font-size="21.875" lengthAdjust="spacing" textLength="300" x="543.75" y="676.2726">POST auth request with CSRF</text><polygon fill="#315B93" points="1480.4688,727.3438,1496.0938,733.5938,1480.4688,739.8438,1486.7188,733.5938" style="stroke:#315B93;stroke-width:1.5625;"/><line style="stroke:#315B93;stroke-width:2.1875;" x1="888.2813" x2="1489.8438" y1="733.5938" y2="733.5938"/><text fill="#000000" font-family="Inter" font-size="21.875" lengthAdjust="spacing" textLength="198.4375" x="1094.5313" y="725.6622">Create/session user</text><polygon fill="#315B93" points="516.4063,776.7334,500.7813,782.9834,516.4063,789.2334,510.1563,782.9834" style="stroke:#315B93;stroke-width:1.5625;"/><line style="stroke:#315B93;stroke-width:2.1875;stroke-dasharray:2.0,2.0;" x1="507.0313" x2="886.7188" y1="782.9834" y2="782.9834"/><text fill="#000000" font-family="Inter" font-size="21.875" lengthAdjust="spacing" textLength="220.3125" x="583.5938" y="775.0519">Authenticated account</text><polygon fill="#315B93" points="1122.6563,853.6377,1138.2813,859.8877,1122.6563,866.1377,1128.9063,859.8877" style="stroke:#315B93;stroke-width:1.5625;"/><line style="stroke:#315B93;stroke-width:2.1875;" x1="499.2188" x2="1132.0313" y1="859.8877" y2="859.8877"/><text fill="#000000" font-family="Inter" font-size="21.875" lengthAdjust="spacing" textLength="226.5625" x="707.0313" y="824.4415">GET /competitions/{id}/</text><text fill="#000000" font-family="Inter" font-size="21.875" lengthAdjust="spacing" textLength="198.4375" x="721.0938" y="851.9562">with account context</text><polygon fill="#315B93" points="516.4063,903.0273,500.7813,909.2773,516.4063,915.5273,510.1563,909.2773" style="stroke:#315B93;stroke-width:1.5625;"/><line style="stroke:#315B93;stroke-width:2.1875;stroke-dasharray:2.0,2.0;" x1="507.0313" x2="1139.8438" y1="909.2773" y2="909.2773"/><text fill="#000000" font-family="Inter" font-size="21.875" lengthAdjust="spacing" textLength="331.25" x="654.6875" y="901.3458">Detail with user participation state</text><polygon fill="#315B93" points="480.4688,952.417,496.0938,958.667,480.4688,964.917,486.7188,958.667" style="stroke:#315B93;stroke-width:1.5625;"/><line style="stroke:#315B93;stroke-width:2.1875;" x1="272.6563" x2="489.8438" y1="958.667" y2="958.667"/><text fill="#000000" font-family="Inter" font-size="21.875" lengthAdjust="spacing" textLength="189.0625" x="291.4063" y="950.7355">Submit join request</text><polygon fill="#315B93" points="1122.6563,1001.8066,1138.2813,1008.0566,1122.6563,1014.3066,1128.9063,1008.0566" style="stroke:#315B93;stroke-width:1.5625;"/><line style="stroke:#315B93;stroke-width:2.1875;" x1="499.2188" x2="1132.0313" y1="1008.0566" y2="1008.0566"/><text fill="#000000" font-family="Inter" font-size="21.875" lengthAdjust="spacing" textLength="281.25" x="679.6875" y="1000.1251">POST /competitions/{id}/join/</text><polygon fill="#315B93" points="1480.4688,1051.1963,1496.0938,1057.4463,1480.4688,1063.6963,1486.7188,1057.4463" style="stroke:#315B93;stroke-width:1.5625;"/><line style="stroke:#315B93;stroke-width:2.1875;" x1="1141.4063" x2="1489.8438" y1="1057.4463" y2="1057.4463"/><text fill="#000000" font-family="Inter" font-size="21.875" lengthAdjust="spacing" textLength="318.75" x="1160.9375" y="1049.5148">Check no existing active request</text><path d="M407.8125,1080.8838 L492.1875,1080.8838 L492.1875,1095.8984 L476.5625,1111.5234 L395.3125,1111.5234 L395.3125,1093.3838 A12.5,12.5 0 0 1 407.8125,1080.8838 " fill="#F8FBFF" style="stroke:#9BB3D5;stroke-width:2.34375;"/><rect fill="none" height="262.915" rx="12.5" ry="12.5" style="stroke:#9BB3D5;stroke-width:2.34375;" width="1184.375" x="395.3125" y="1080.8838"/><text fill="#000000" font-family="Inter" font-size="21.875" font-weight="bold" lengthAdjust="spacing" textLength="26.5625" x="418.75" y="1105.1544">alt</text><text fill="#000000" font-family="Inter" font-size="21.875" font-weight="bold" lengthAdjust="spacing" textLength="203.125" x="515.625" y="1106.7169">[application mode]</text><polygon fill="#315B93" points="1480.4688,1146.2402,1496.0938,1152.4902,1480.4688,1158.7402,1486.7188,1152.4902" style="stroke:#315B93;stroke-width:1.5625;"/><line style="stroke:#315B93;stroke-width:2.1875;" x1="1141.4063" x2="1489.8438" y1="1152.4902" y2="1152.4902"/><text fill="#000000" font-family="Inter" font-size="21.875" lengthAdjust="spacing" textLength="262.5" x="1189.0625" y="1144.5587">Create pending participant</text><polygon fill="#315B93" points="516.4063,1195.6299,500.7813,1201.8799,516.4063,1208.1299,510.1563,1201.8799" style="stroke:#315B93;stroke-width:1.5625;"/><line style="stroke:#315B93;stroke-width:2.1875;stroke-dasharray:2.0,2.0;" x1="507.0313" x2="1139.8438" y1="1201.8799" y2="1201.8799"/><text fill="#000000" font-family="Inter" font-size="21.875" lengthAdjust="spacing" textLength="604.6875" x="517.9688" y="1193.9484">Pending / &#208;&#382;&#209;&#8225;&#209;-&#208;&#186;&#209;&#402;&#209;&#8221; &#208;&#191;&#209;-&#208;&#180;&#209;&#8218;&#208;&#178;&#208;&#181;&#209;&#8364;&#208;&#180;&#208;&#182;&#208;&#181;&#208;&#189;&#208;&#189;&#209;&#65533;</text><line style="stroke:#9BB3D5;stroke-width:1.5625;stroke-dasharray:2.0,2.0;" x1="395.3125" x2="1579.6875" y1="1215.9424" y2="1215.9424"/><text fill="#000000" font-family="Inter" font-size="21.875" font-weight="bold" lengthAdjust="spacing" textLength="231.25" x="403.125" y="1238.6505">[open auto-approval]</text><polygon fill="#315B93" points="1480.4688,1275.6592,1496.0938,1281.9092,1480.4688,1288.1592,1486.7188,1281.9092" style="stroke:#315B93;stroke-width:1.5625;"/><line style="stroke:#315B93;stroke-width:2.1875;" x1="1141.4063" x2="1489.8438" y1="1281.9092" y2="1281.9092"/><text fill="#000000" font-family="Inter" font-size="21.875" lengthAdjust="spacing" textLength="276.5625" x="1182.0313" y="1273.9777">Create approved participant</text><polygon fill="#315B93" points="516.4063,1325.0488,500.7813,1331.2988,516.4063,1337.5488,510.1563,1331.2988" style="stroke:#315B93;stroke-width:1.5625;"/><line style="stroke:#315B93;stroke-width:2.1875;stroke-dasharray:2.0,2.0;" x1="507.0313" x2="1139.8438" y1="1331.2988" y2="1331.2988"/><text fill="#000000" font-family="Inter" font-size="21.875" lengthAdjust="spacing" textLength="204.6875" x="717.9688" y="1323.3673">Approved participant</text><polygon fill="#315B93" points="480.4688,1385.376,496.0938,1391.626,480.4688,1397.876,486.7188,1391.626" style="stroke:#315B93;stroke-width:1.5625;"/><line style="stroke:#315B93;stroke-width:2.1875;" x1="272.6563" x2="489.8438" y1="1391.626" y2="1391.626"/><text fill="#000000" font-family="Inter" font-size="21.875" lengthAdjust="spacing" textLength="153.125" x="309.375" y="1383.6945">Click Join again</text><polygon fill="#315B93" points="1122.6563,1434.7656,1138.2813,1441.0156,1122.6563,1447.2656,1128.9063,1441.0156" style="stroke:#315B93;stroke-width:1.5625;"/><line style="stroke:#315B93;stroke-width:2.1875;" x1="499.2188" x2="1132.0313" y1="1441.0156" y2="1441.0156"/><text fill="#000000" font-family="Inter" font-size="21.875" lengthAdjust="spacing" textLength="281.25" x="679.6875" y="1433.0841">POST /competitions/{id}/join/</text><polygon fill="#315B93" points="1480.4688,1484.1553,1496.0938,1490.4053,1480.4688,1496.6553,1486.7188,1490.4053" style="stroke:#315B93;stroke-width:1.5625;"/><line style="stroke:#315B93;stroke-width:2.1875;" x1="1141.4063" x2="1489.8438" y1="1490.4053" y2="1490.4053"/><text fill="#000000" font-family="Inter" font-size="21.875" lengthAdjust="spacing" textLength="214.0625" x="1213.2813" y="1482.4738">Reuse existing record</text><polygon fill="#315B93" points="516.4063,1533.5449,500.7813,1539.7949,516.4063,1546.0449,510.1563,1539.7949" style="stroke:#315B93;stroke-width:1.5625;"/><line style="stroke:#315B93;stroke-width:2.1875;stroke-dasharray:2.0,2.0;" x1="507.0313" x2="1139.8438" y1="1539.7949" y2="1539.7949"/><text fill="#000000" font-family="Inter" font-size="21.875" lengthAdjust="spacing" textLength="254.6875" x="692.9688" y="1531.8634">Same status, no duplicate</text><!--SRC=[bLFDRXCn4BxxAOQUIVRU0r8KA095QiWMJfKgPptTkEpQYtz28uI4U8A48n87xfmGS40gbHB1W_02l09ZxuPanOBWOCcU-Jpp-Vl6DwJA2YyG-lt4pR34teKNkJnVz2jV5in9Lo2a-CIZoX1wS5zB1KDTLaWfgHLZF7FQmC50QRKejRVmI5f9eGFW5kRrVWiQS-Da9YkkN4nNkpFRsyF11Ea671cj72eHiLws8GFlPZ0Otuj9JeTsUe_Z3bL99hZZKswHo6ZhSeFfWr5CYYbZ3LtetQ9sS0Z75Ih8zYfLF4T6AG9GCKBSlNC2oHx29i-aU9wma2MGc19cfBc0oayBcO50nsK1N0cu259McgAB6hxjUhl6F9Nqm8ohimYSITBeDu93klquch9b5LGvX0av9Wr2eNEf4eEvj0xDgQeCMZHp18FE6tNcTEjv3oSZ5YlyuX9LFjUcRAcxpOv2UI0-smvj5kFZzAJUcp11rjLl6gQJewPDez3G87UOMBGsqF34iOC7AY90E04yoxGdFVx1YLCLUpOtwBKqKPVkpuA7thkvZAfOHqrPfm2fdvRIrLOsRsoHYWfqi0eNsaCod24vgJJW9IafLKwKdOnErMLvuQXeLGG90gjI2sG0hHfHHg2X5Q70_kzgW5lUumQIm6RvzSjczVt5sysgjrckFszMtrw5ynlAhA_hu8SGU4sRzxG-qk7bknXThZ_5m79z5TVgn_KLmu8-bmuVXnpKFQ9iz9mNtLJhB3dw5ww3BWpnxtPazoE0vtptB_xJZWdI8EoyC9Xf8zfJa_8IusnuUpCO9tnj3hAV]--></g></svg>