<?xml version="1.0" encoding="us-ascii" standalone="no"?><svg xmlns="http://www.w3.org/2000/svg" xmlns:xlink="http://www.w3.org/1999/xlink" contentStyleType="text/css" height="1534.375px" preserveAspectRatio="none" style="width:1723px;height:1534px;background:#F7FAFF;" version="1.1" viewBox="0 0 1723 1534" width="1723.4375px" zoomAndPan="magnify"><defs/><g><rect fill="#F7FAFF" height="1534.375" style="stroke:none;stroke-width:1.5625;" width="1723.4375" x="0" y="0"/><rect fill="#E7F0FF" height="62.793" id="_title" rx="9.375" ry="9.375" style="stroke:#B8CBEC;stroke-width:1.5625;" width="798.4375" x="464.0625" y="15.625"/><text fill="#13294B" font-family="Inter" font-size="37.5" font-weight="bold" lengthAdjust="spacing" textLength="782.8125" x="471.875" y="62.3657">Sequence - Create and Publish Competition</text><rect fill="none" height="378.8818" rx="12.5" ry="12.5" style="stroke:#9BB3D5;stroke-width:2.34375;" width="1502.3438" x="15.625" y="433.1787"/><rect fill="none" height="371.0693" rx="12.5" ry="12.5" style="stroke:#9BB3D5;stroke-width:2.34375;" width="1374.2188" x="338.2813" y="1009.6191"/><line style="stroke:#9BB3D5;stroke-width:0.78125;stroke-dasharray:5.0,5.0;" x1="84.375" x2="84.375" y1="209.0576" y2="1407.251"/><line style="stroke:#9BB3D5;stroke-width:0.78125;stroke-dasharray:5.0,5.0;" x1="460.1563" x2="460.1563" y1="209.0576" y2="1407.251"/><line style="stroke:#9BB3D5;stroke-width:0.78125;stroke-dasharray:5.0,5.0;" x1="815.625" x2="815.625" y1="209.0576" y2="1407.251"/><line style="stroke:#9BB3D5;stroke-width:0.78125;stroke-dasharray:5.0,5.0;" x1="1117.1875" x2="1117.1875" y1="209.0576" y2="1407.251"/><line style="stroke:#9BB3D5;stroke-width:0.78125;stroke-dasharray:5.0,5.0;" x1="1436.7188" x2="1436.7188" y1="209.0576" y2="1407.251"/><text fill="#1E2A44" font-family="Inter" font-size="21.875" lengthAdjust="spacing" textLength="96.875" x="31.25" y="204.2511">Organizer</text><ellipse cx="84.375" cy="101.0742" fill="#FFF0E6" rx="12.5" ry="12.5" style="stroke:#E56C2C;stroke-width:0.78125;"/><path d="M84.375,113.5742 L84.375,155.7617 M64.0625,126.0742 L104.6875,126.0742 M84.375,155.7617 L64.0625,179.1992 M84.375,155.7617 L104.6875,179.1992 " fill="none" style="stroke:#E56C2C;stroke-width:0.78125;"/><text fill="#1E2A44" font-family="Inter" font-size="21.875" lengthAdjust="spacing" textLength="96.875" x="31.25" y="1428.3966">Organizer</text><ellipse cx="84.375" cy="1446.4844" fill="#FFF0E6" rx="12.5" ry="12.5" style="stroke:#E56C2C;stroke-width:0.78125;"/><path d="M84.375,1458.9844 L84.375,1501.1719 M64.0625,1471.4844 L104.6875,1471.4844 M84.375,1501.1719 L64.0625,1524.6094 M84.375,1501.1719 L104.6875,1524.6094 " fill="none" style="stroke:#E56C2C;stroke-width:0.78125;"/><rect fill="#EAF2FF" height="49.3896" rx="12.5" ry="12.5" style="stroke:#5E86C5;stroke-width:0.78125;" width="214.0625" x="353.9063" y="158.1055"/><text fill="#13294B" font-family="Inter" font-size="21.875" lengthAdjust="spacing" textLength="192.1875" x="364.8438" y="191.7511">Competition Builder</text><rect fill="#EAF2FF" height="49.3896" rx="12.5" ry="12.5" style="stroke:#5E86C5;stroke-width:0.78125;" width="214.0625" x="353.9063" y="1405.6885"/><text fill="#13294B" font-family="Inter" font-size="21.875" lengthAdjust="spacing" textLength="192.1875" x="364.8438" y="1439.3341">Competition Builder</text><rect fill="#EAF2FF" height="49.3896" rx="12.5" ry="12.5" style="stroke:#5E86C5;stroke-width:0.78125;" width="178.125" x="726.5625" y="158.1055"/><text fill="#13294B" font-family="Inter" font-size="21.875" lengthAdjust="spacing" textLength="156.25" x="737.5" y="191.7511">Competition API</text><rect fill="#EAF2FF" height="49.3896" rx="12.5" ry="12.5" style="stroke:#5E86C5;stroke-width:0.78125;" width="178.125" x="726.5625" y="1405.6885"/><text fill="#13294B" font-family="Inter" font-size="21.875" lengthAdjust="spacing" textLength="156.25" x="737.5" y="1439.3341">Competition API</text><rect fill="#EAF2FF" height="49.3896" rx="12.5" ry="12.5" style="stroke:#5E86C5;stroke-width:0.78125;" width="200" x="1017.1875" y="158.1055"/><text fill="#13294B" font-family="Inter" font-size="21.875" lengthAdjust="spacing" textLength="178.125" x="1028.125" y="191.7511">Domain Validation</text><rect fill="#EAF2FF" height="49.3896" rx="12.5" ry="12.5" style="stroke:#5E86C5;stroke-width:0.78125;" width="200" x="1017.1875" y="1405.6885"/><text fill="#13294B" font-family="Inter" font-size="21.875" lengthAdjust="spacing" textLength="178.125" x="1028.125" y="1439.3341">Domain Validation</text><text fill="#153B33" font-family="Inter" font-size="21.875" lengthAdjust="spacing" textLength="120.3125" x="1372.6563" y="204.2511">PostgreSQL</text><path d="M1409.375,125.293 C1409.375,109.668 1437.5,109.668 1437.5,109.668 C1437.5,109.668 1465.625,109.668 1465.625,125.293 L1465.625,165.918 C1465.625,181.543 1437.5,181.543 1437.5,181.543 C1437.5,181.543 1409.375,181.543 1409.375,165.918 L1409.375,125.293 " fill="#EAF8F4" style="stroke:#2C7A68;stroke-width:2.34375;"/><path d="M1409.375,125.293 C1409.375,140.918 1437.5,140.918 1437.5,140.918 C1437.5,140.918 1465.625,140.918 1465.625,125.293 " fill="none" style="stroke:#2C7A68;stroke-width:2.34375;"/><text fill="#153B33" font-family="Inter" font-size="21.875" lengthAdjust="spacing" textLength="120.3125" x="1372.6563" y="1428.3966">PostgreSQL</text><path d="M1409.375,1448.8281 C1409.375,1433.2031 1437.5,1433.2031 1437.5,1433.2031 C1437.5,1433.2031 1465.625,1433.2031 1465.625,1448.8281 L1465.625,1489.4531 C1465.625,1505.0781 1437.5,1505.0781 1437.5,1505.0781 C1437.5,1505.0781 1409.375,1505.0781 1409.375,1489.4531 L1409.375,1448.8281 " fill="#EAF8F4" style="stroke:#2C7A68;stroke-width:2.34375;"/><path d="M1409.375,1448.8281 C1409.375,1464.4531 1437.5,1464.4531 1437.5,1464.4531 C1437.5,1464.4531 1465.625,1464.4531 1465.625,1448.8281 " fill="none" style="stroke:#2C7A68;stroke-width:2.34375;"/><polygon fill="#315B93" points="442.1875,255.3223,457.8125,261.5723,442.1875,267.8223,448.4375,261.5723" style="stroke:#315B93;stroke-width:1.5625;"/><line style="stroke:#315B93;stroke-width:2.1875;" x1="84.375" x2="451.5625" y1="261.5723" y2="261.5723"/><text fill="#000000" font-family="Inter" font-size="21.875" lengthAdjust="spacing" textLength="128.125" x="208.5938" y="253.6407">Open builder</text><polygon fill="#315B93" points="796.875,304.7119,812.5,310.9619,796.875,317.2119,803.125,310.9619" style="stroke:#315B93;stroke-width:1.5625;"/><line style="stroke:#315B93;stroke-width:2.1875;" x1="460.9375" x2="806.25" y1="310.9619" y2="310.9619"/><text fill="#000000" font-family="Inter" font-size="21.875" lengthAdjust="spacing" textLength="253.125" x="511.7188" y="303.0304">POST /competitions/ draft</text><polygon fill="#315B93" points="1418.75,354.1016,1434.375,360.3516,1418.75,366.6016,1425,360.3516" style="stroke:#315B93;stroke-width:1.5625;"/><line style="stroke:#315B93;stroke-width:2.1875;" x1="815.625" x2="1428.125" y1="360.3516" y2="360.3516"/><text fill="#000000" font-family="Inter" font-size="21.875" lengthAdjust="spacing" textLength="228.125" x="1012.5" y="352.42">Create draft with owner</text><polygon fill="#315B93" points="478.125,403.4912,462.5,409.7412,478.125,415.9912,471.875,409.7412" style="stroke:#315B93;stroke-width:1.5625;"/><line style="stroke:#315B93;stroke-width:2.1875;stroke-dasharray:2.0,2.0;" x1="468.75" x2="814.0625" y1="409.7412" y2="409.7412"/><text fill="#000000" font-family="Inter" font-size="21.875" lengthAdjust="spacing" textLength="71.875" x="602.3438" y="401.8097">Draft id</text><path d="M28.125,433.1787 L134.375,433.1787 L134.375,448.1934 L118.75,463.8184 L15.625,463.8184 L15.625,445.6787 A12.5,12.5 0 0 1 28.125,433.1787 " fill="#F8FBFF" style="stroke:#9BB3D5;stroke-width:2.34375;"/><rect fill="none" height="378.8818" rx="12.5" ry="12.5" style="stroke:#9BB3D5;stroke-width:2.34375;" width="1502.3438" x="15.625" y="433.1787"/><text fill="#000000" font-family="Inter" font-size="21.875" font-weight="bold" lengthAdjust="spacing" textLength="48.4375" x="39.0625" y="457.4493">loop</text><text fill="#000000" font-family="Inter" font-size="21.875" font-weight="bold" lengthAdjust="spacing" textLength="121.875" x="157.8125" y="459.0118">[Steps 1..5]</text><polygon fill="#315B93" points="442.1875,498.5352,457.8125,504.7852,442.1875,511.0352,448.4375,504.7852" style="stroke:#315B93;stroke-width:1.5625;"/><line style="stroke:#315B93;stroke-width:2.1875;" x1="84.375" x2="451.5625" y1="504.7852" y2="504.7852"/><text fill="#000000" font-family="Inter" font-size="21.875" lengthAdjust="spacing" textLength="339.0625" x="103.125" y="496.8536">Edit fields, rounds, criteria, awards</text><polygon fill="#315B93" points="796.875,547.9248,812.5,554.1748,796.875,560.4248,803.125,554.1748" style="stroke:#315B93;stroke-width:1.5625;"/><line style="stroke:#315B93;stroke-width:2.1875;" x1="460.9375" x2="806.25" y1="554.1748" y2="554.1748"/><text fill="#000000" font-family="Inter" font-size="21.875" lengthAdjust="spacing" textLength="253.125" x="511.7188" y="546.2433">PATCH /competitions/{id}/</text><polygon fill="#315B93" points="1098.4375,597.3145,1114.0625,603.5645,1098.4375,609.8145,1104.6875,603.5645" style="stroke:#315B93;stroke-width:1.5625;"/><line style="stroke:#315B93;stroke-width:2.1875;" x1="815.625" x2="1107.8125" y1="603.5645" y2="603.5645"/><text fill="#000000" font-family="Inter" font-size="21.875" lengthAdjust="spacing" textLength="229.6875" x="851.5625" y="595.6329">Validate changed fields</text><line style="stroke:#315B93;stroke-width:2.1875;" x1="1117.1875" x2="1182.8125" y1="680.4688" y2="680.4688"/><line style="stroke:#315B93;stroke-width:2.1875;" x1="1182.8125" x2="1182.8125" y1="680.4688" y2="700.7813"/><line style="stroke:#315B93;stroke-width:2.1875;" x1="1118.75" x2="1182.8125" y1="700.7813" y2="700.7813"/><polygon fill="#315B93" points="1134.375,694.5313,1118.75,700.7813,1134.375,707.0313,1128.125,700.7813" style="stroke:#315B93;stroke-width:1.5625;"/><text fill="#000000" font-family="Inter" font-size="21.875" lengthAdjust="spacing" textLength="298.4375" x="1128.125" y="645.0226">Normalize next round starts_at</text><text fill="#000000" font-family="Inter" font-size="21.875" lengthAdjust="spacing" textLength="90.625" x="1232.0313" y="672.5372">if missing</text><polygon fill="#315B93" points="1418.75,743.9209,1434.375,750.1709,1418.75,756.4209,1425,750.1709" style="stroke:#315B93;stroke-width:1.5625;"/><line style="stroke:#315B93;stroke-width:2.1875;" x1="815.625" x2="1428.125" y1="750.1709" y2="750.1709"/><text fill="#000000" font-family="Inter" font-size="21.875" lengthAdjust="spacing" textLength="315.625" x="968.75" y="742.2394">Save draft state and setup_step</text><polygon fill="#315B93" points="478.125,793.3105,462.5,799.5605,478.125,805.8105,471.875,799.5605" style="stroke:#315B93;stroke-width:1.5625;"/><line style="stroke:#315B93;stroke-width:2.1875;stroke-dasharray:2.0,2.0;" x1="468.75" x2="814.0625" y1="799.5605" y2="799.5605"/><text fill="#000000" font-family="Inter" font-size="21.875" lengthAdjust="spacing" textLength="134.375" x="571.0938" y="791.629">Updated draft</text><polygon fill="#315B93" points="442.1875,853.6377,457.8125,859.8877,442.1875,866.1377,448.4375,859.8877" style="stroke:#315B93;stroke-width:1.5625;"/><line style="stroke:#315B93;stroke-width:2.1875;" x1="84.375" x2="451.5625" y1="859.8877" y2="859.8877"/><text fill="#000000" font-family="Inter" font-size="21.875" lengthAdjust="spacing" textLength="71.875" x="236.7188" y="851.9562">Publish</text><polygon fill="#315B93" points="796.875,903.0273,812.5,909.2773,796.875,915.5273,803.125,909.2773" style="stroke:#315B93;stroke-width:1.5625;"/><line style="stroke:#315B93;stroke-width:2.1875;" x1="460.9375" x2="806.25" y1="909.2773" y2="909.2773"/><text fill="#000000" font-family="Inter" font-size="21.875" lengthAdjust="spacing" textLength="317.1875" x="479.6875" y="901.3458">POST /competitions/{id}/publish/</text><polygon fill="#315B93" points="1098.4375,979.9316,1114.0625,986.1816,1098.4375,992.4316,1104.6875,986.1816" style="stroke:#315B93;stroke-width:1.5625;"/><line style="stroke:#315B93;stroke-width:2.1875;" x1="815.625" x2="1107.8125" y1="986.1816" y2="986.1816"/><text fill="#000000" font-family="Inter" font-size="21.875" lengthAdjust="spacing" textLength="232.8125" x="850" y="950.7355">Validate required fields,</text><text fill="#000000" font-family="Inter" font-size="21.875" lengthAdjust="spacing" textLength="264.0625" x="834.375" y="978.2501">round order, criteria, dates</text><path d="M350.7813,1009.6191 L435.1563,1009.6191 L435.1563,1024.6338 L419.5313,1040.2588 L338.2813,1040.2588 L338.2813,1022.1191 A12.5,12.5 0 0 1 350.7813,1009.6191 " fill="#F8FBFF" style="stroke:#9BB3D5;stroke-width:2.34375;"/><rect fill="none" height="371.0693" rx="12.5" ry="12.5" style="stroke:#9BB3D5;stroke-width:2.34375;" width="1374.2188" x="338.2813" y="1009.6191"/><text fill="#000000" font-family="Inter" font-size="21.875" font-weight="bold" lengthAdjust="spacing" textLength="26.5625" x="361.7188" y="1033.8898">alt</text><text fill="#000000" font-family="Inter" font-size="21.875" font-weight="bold" lengthAdjust="spacing" textLength="68.75" x="458.5938" y="1035.4523">[valid]</text><polygon fill="#315B93" points="1418.75,1074.9756,1434.375,1081.2256,1418.75,1087.4756,1425,1081.2256" style="stroke:#315B93;stroke-width:1.5625;"/><line style="stroke:#315B93;stroke-width:2.1875;" x1="815.625" x2="1428.125" y1="1081.2256" y2="1081.2256"/><text fill="#000000" font-family="Inter" font-size="21.875" lengthAdjust="spacing" textLength="225" x="1014.0625" y="1073.2941">Set published or active</text><polygon fill="#315B93" points="478.125,1124.3652,462.5,1130.6152,478.125,1136.8652,471.875,1130.6152" style="stroke:#315B93;stroke-width:1.5625;"/><line style="stroke:#315B93;stroke-width:2.1875;stroke-dasharray:2.0,2.0;" x1="468.75" x2="814.0625" y1="1130.6152" y2="1130.6152"/><text fill="#000000" font-family="Inter" font-size="21.875" lengthAdjust="spacing" textLength="215.625" x="530.4688" y="1122.6837">Published competition</text><polygon fill="#315B93" points="796.875,1173.7549,812.5,1180.0049,796.875,1186.2549,803.125,1180.0049" style="stroke:#315B93;stroke-width:1.5625;"/><line style="stroke:#315B93;stroke-width:2.1875;" x1="460.9375" x2="806.25" y1="1180.0049" y2="1180.0049"/><text fill="#000000" font-family="Inter" font-size="21.875" lengthAdjust="spacing" textLength="265.625" x="505.4688" y="1172.0734">GET /landing/competitions/</text><polygon fill="#315B93" points="478.125,1223.1445,462.5,1229.3945,478.125,1235.6445,471.875,1229.3945" style="stroke:#315B93;stroke-width:1.5625;"/><line style="stroke:#315B93;stroke-width:2.1875;stroke-dasharray:2.0,2.0;" x1="468.75" x2="814.0625" y1="1229.3945" y2="1229.3945"/><text fill="#000000" font-family="Inter" font-size="21.875" lengthAdjust="spacing" textLength="314.0625" x="481.25" y="1221.463">Competition appears on landing</text><line style="stroke:#9BB3D5;stroke-width:1.5625;stroke-dasharray:2.0,2.0;" x1="338.2813" x2="1712.5" y1="1243.457" y2="1243.457"/><text fill="#000000" font-family="Inter" font-size="21.875" font-weight="bold" lengthAdjust="spacing" textLength="89.0625" x="346.0938" y="1266.1652">[invalid]</text><polygon fill="#315B93" points="478.125,1303.1738,462.5,1309.4238,478.125,1315.6738,471.875,1309.4238" style="stroke:#315B93;stroke-width:1.5625;"/><line style="stroke:#315B93;stroke-width:2.1875;stroke-dasharray:2.0,2.0;" x1="468.75" x2="814.0625" y1="1309.4238" y2="1309.4238"/><text fill="#000000" font-family="Inter" font-size="21.875" lengthAdjust="spacing" textLength="162.5" x="557.0313" y="1301.4923">Validation errors</text><path d="M1445.3125,1342.2363 L1445.3125,1359.4238 A12.5,12.5 0 0 0 1457.8125,1371.9238 L1684.375,1371.9238 A12.5,12.5 0 0 0 1696.875,1359.4238 L1696.875,1345.3613 L1681.25,1329.7363 L1457.8125,1329.7363 A12.5,12.5 0 0 0 1445.3125,1342.2363 " fill="#FFF7E8" style="stroke:#F2A94A;stroke-width:0.78125;"/><path d="M1681.25,1329.7363 L1681.25,1339.1113 A6.25,6.25 0 0 0 1687.5,1345.3613 L1696.875,1345.3613 L1681.25,1329.7363 " fill="#FFF7E8" style="stroke:#F2A94A;stroke-width:0.78125;"/><text fill="#24324A" font-family="Inter" font-size="21.875" lengthAdjust="spacing" textLength="204.6875" x="1468.75" y="1360.257">Draft remains saved.</text><!--SRC=[XPDDRzim38Rl-XLSpec37NRfOK2N5jk0OScGRgS21MCn3WTPqYGvsJhilu_oH-guA-QBOV6X-V8bzOfjQHfDK1JBTA2Q5jyRNV7-L-6RsgZ4oH1iwKT3jYHOm2eG9WAq6ZRDpd0ymChLdWHaPvN2Cha0itMeqF8ZXHbW13TyAOyXSSaUROBPA17UDMnqZpVyCdUz-TWow2VGZQkHBNn3mnepscAwFLLoWZkC1BEDYwaAjFtogOllb3ghWyLRgGrNiFPaOTSfKd8Yvr9F0flrzWwMvPEUk0GTS9zKZWkcTqBr7hK1E74wW3jP-LFB33LksYXhfOnp7hQ9V8JNHV560JnNTAivmPx9w3Y7u1gRtsNWH85n3dZ2eADaNeYzlbjzcAZzpVhFKhX1RcVQrM0RGNb0Mv7kQmdP8sFuimkry8y4bdwcJWx49DE83vZkBU-XvXZPLgDAsPWj7WTR1E_NA59g_4EK_WTwQFghpv9qxp1P_QzPzLlulp6rZVkENQeNsm-owHpE_S_lRTUT2x8AOySp7HMQ1CUSEssK4lJ5A2U3N0i-qhJ1pHaPQPrCyVsjj6B4AB7pigNftyRN1Bqd37BpBFIvYepiFziBkKFgqwq12i65F7ZhiXzS7HAuVRue84-tjO6oRn6Yp5CN4f3Pj7mxfBy0]--></g></svg>