<?xml version="1.0" encoding="us-ascii" standalone="no"?><svg xmlns="http://www.w3.org/2000/svg" xmlns:xlink="http://www.w3.org/1999/xlink" contentStyleType="text/css" height="1120.3125px" preserveAspectRatio="none" style="width:1548px;height:1120px;background:#F7FAFF;" version="1.1" viewBox="0 0 1548 1120" width="1548.4375px" zoomAndPan="magnify"><defs/><g><rect fill="#F7FAFF" height="1120.3125" style="stroke:none;stroke-width:1.5625;" width="1548.4375" x="0" y="0"/><rect fill="#E7F0FF" height="62.793" id="_title" rx="9.375" ry="9.375" style="stroke:#B8CBEC;stroke-width:1.5625;" width="445.3125" x="553.9063" y="15.625"/><text fill="#13294B" font-family="Inter" font-size="37.5" font-weight="bold" lengthAdjust="spacing" textLength="429.6875" x="561.7188" y="62.3657">Sequence - Peer Review</text><line style="stroke:#9BB3D5;stroke-width:0.78125;stroke-dasharray:5.0,5.0;" x1="115.625" x2="115.625" y1="209.0576" y2="992.4316"/><line style="stroke:#9BB3D5;stroke-width:0.78125;stroke-dasharray:5.0,5.0;" x1="438.2813" x2="438.2813" y1="209.0576" y2="992.4316"/><line style="stroke:#9BB3D5;stroke-width:0.78125;stroke-dasharray:5.0,5.0;" x1="981.25" x2="981.25" y1="209.0576" y2="992.4316"/><line style="stroke:#9BB3D5;stroke-width:0.78125;stroke-dasharray:5.0,5.0;" x1="1301.5625" x2="1301.5625" y1="209.0576" y2="992.4316"/><line style="stroke:#9BB3D5;stroke-width:0.78125;stroke-dasharray:5.0,5.0;" x1="1481.25" x2="1481.25" y1="209.0576" y2="992.4316"/><text fill="#1E2A44" font-family="Inter" font-size="21.875" lengthAdjust="spacing" textLength="206.25" x="7.8125" y="204.2511">Approved Participant</text><ellipse cx="115.625" cy="101.0742" fill="#FFF0E6" rx="12.5" ry="12.5" style="stroke:#E56C2C;stroke-width:0.78125;"/><path d="M115.625,113.5742 L115.625,155.7617 M95.3125,126.0742 L135.9375,126.0742 M115.625,155.7617 L95.3125,179.1992 M115.625,155.7617 L135.9375,179.1992 " fill="none" style="stroke:#E56C2C;stroke-width:0.78125;"/><text fill="#1E2A44" font-family="Inter" font-size="21.875" lengthAdjust="spacing" textLength="206.25" x="7.8125" y="1013.5773">Approved Participant</text><ellipse cx="115.625" cy="1031.665" fill="#FFF0E6" rx="12.5" ry="12.5" style="stroke:#E56C2C;stroke-width:0.78125;"/><path d="M115.625,1044.165 L115.625,1086.3525 M95.3125,1056.665 L135.9375,1056.665 M115.625,1086.3525 L95.3125,1109.79 M115.625,1086.3525 L135.9375,1109.79 " fill="none" style="stroke:#E56C2C;stroke-width:0.78125;"/><rect fill="#EAF2FF" height="49.3896" rx="12.5" ry="12.5" style="stroke:#5E86C5;stroke-width:0.78125;" width="164.0625" x="357.0313" y="158.1055"/><text fill="#13294B" font-family="Inter" font-size="21.875" lengthAdjust="spacing" textLength="142.1875" x="367.9688" y="191.7511">Competition UI</text><rect fill="#EAF2FF" height="49.3896" rx="12.5" ry="12.5" style="stroke:#5E86C5;stroke-width:0.78125;" width="164.0625" x="357.0313" y="990.8691"/><text fill="#13294B" font-family="Inter" font-size="21.875" lengthAdjust="spacing" textLength="142.1875" x="367.9688" y="1024.5148">Competition UI</text><rect fill="#EAF2FF" height="49.3896" rx="12.5" ry="12.5" style="stroke:#5E86C5;stroke-width:0.78125;" width="137.5" x="912.5" y="158.1055"/><text fill="#13294B" font-family="Inter" font-size="21.875" lengthAdjust="spacing" textLength="115.625" x="923.4375" y="191.7511">Judging API</text><rect fill="#EAF2FF" height="49.3896" rx="12.5" ry="12.5" style="stroke:#5E86C5;stroke-width:0.78125;" width="137.5" x="912.5" y="990.8691"/><text fill="#13294B" font-family="Inter" font-size="21.875" lengthAdjust="spacing" textLength="115.625" x="923.4375" y="1024.5148">Judging API</text><rect fill="#EAF2FF" height="49.3896" rx="12.5" ry="12.5" style="stroke:#5E86C5;stroke-width:0.78125;" width="200" x="1201.5625" y="158.1055"/><text fill="#13294B" font-family="Inter" font-size="21.875" lengthAdjust="spacing" textLength="178.125" x="1212.5" y="191.7511">Domain Validation</text><rect fill="#EAF2FF" height="49.3896" rx="12.5" ry="12.5" style="stroke:#5E86C5;stroke-width:0.78125;" width="200" x="1201.5625" y="990.8691"/><text fill="#13294B" font-family="Inter" font-size="21.875" lengthAdjust="spacing" textLength="178.125" x="1212.5" y="1024.5148">Domain Validation</text><text fill="#153B33" font-family="Inter" font-size="21.875" lengthAdjust="spacing" textLength="120.3125" x="1417.1875" y="204.2511">PostgreSQL</text><path d="M1453.9063,125.293 C1453.9063,109.668 1482.0313,109.668 1482.0313,109.668 C1482.0313,109.668 1510.1563,109.668 1510.1563,125.293 L1510.1563,165.918 C1510.1563,181.543 1482.0313,181.543 1482.0313,181.543 C1482.0313,181.543 1453.9063,181.543 1453.9063,165.918 L1453.9063,125.293 " fill="#EAF8F4" style="stroke:#2C7A68;stroke-width:2.34375;"/><path d="M1453.9063,125.293 C1453.9063,140.918 1482.0313,140.918 1482.0313,140.918 C1482.0313,140.918 1510.1563,140.918 1510.1563,125.293 " fill="none" style="stroke:#2C7A68;stroke-width:2.34375;"/><text fill="#153B33" font-family="Inter" font-size="21.875" lengthAdjust="spacing" textLength="120.3125" x="1417.1875" y="1013.5773">PostgreSQL</text><path d="M1453.9063,1034.0088 C1453.9063,1018.3838 1482.0313,1018.3838 1482.0313,1018.3838 C1482.0313,1018.3838 1510.1563,1018.3838 1510.1563,1034.0088 L1510.1563,1074.6338 C1510.1563,1090.2588 1482.0313,1090.2588 1482.0313,1090.2588 C1482.0313,1090.2588 1453.9063,1090.2588 1453.9063,1074.6338 L1453.9063,1034.0088 " fill="#EAF8F4" style="stroke:#2C7A68;stroke-width:2.34375;"/><path d="M1453.9063,1034.0088 C1453.9063,1049.6338 1482.0313,1049.6338 1482.0313,1049.6338 C1482.0313,1049.6338 1510.1563,1049.6338 1510.1563,1034.0088 " fill="none" style="stroke:#2C7A68;stroke-width:2.34375;"/><polygon fill="#315B93" points="420.3125,255.3223,435.9375,261.5723,420.3125,267.8223,426.5625,261.5723" style="stroke:#315B93;stroke-width:1.5625;"/><line style="stroke:#315B93;stroke-width:2.1875;" x1="115.625" x2="429.6875" y1="261.5723" y2="261.5723"/><text fill="#000000" font-family="Inter" font-size="21.875" lengthAdjust="spacing" textLength="285.9375" x="134.375" y="253.6407">Open peer review workspace</text><polygon fill="#315B93" points="962.5,304.7119,978.125,310.9619,962.5,317.2119,968.75,310.9619" style="stroke:#315B93;stroke-width:1.5625;"/><line style="stroke:#315B93;stroke-width:2.1875;" x1="439.0625" x2="971.875" y1="310.9619" y2="310.9619"/><text fill="#000000" font-family="Inter" font-size="21.875" lengthAdjust="spacing" textLength="504.6875" x="457.8125" y="303.0304">GET /competitions/{id}/judging/?mode=peer_review</text><polygon fill="#315B93" points="1282.8125,381.6162,1298.4375,387.8662,1282.8125,394.1162,1289.0625,387.8662" style="stroke:#315B93;stroke-width:1.5625;"/><line style="stroke:#315B93;stroke-width:2.1875;" x1="981.25" x2="1292.1875" y1="387.8662" y2="387.8662"/><text fill="#000000" font-family="Inter" font-size="21.875" lengthAdjust="spacing" textLength="268.75" x="1007.0313" y="352.42">Check peer review enabled</text><text fill="#000000" font-family="Inter" font-size="21.875" lengthAdjust="spacing" textLength="215.625" x="1033.5938" y="379.9347">and reviewer eligibility</text><polygon fill="#315B93" points="1463.2813,458.5205,1478.9063,464.7705,1463.2813,471.0205,1469.5313,464.7705" style="stroke:#315B93;stroke-width:1.5625;"/><line style="stroke:#315B93;stroke-width:2.1875;" x1="981.25" x2="1472.6563" y1="464.7705" y2="464.7705"/><text fill="#000000" font-family="Inter" font-size="21.875" lengthAdjust="spacing" textLength="287.5" x="1087.8906" y="429.3243">Load reviewable submissions</text><text fill="#000000" font-family="Inter" font-size="21.875" lengthAdjust="spacing" textLength="382.8125" x="1040.2344" y="456.839">excluding own subject when configured</text><polygon fill="#315B93" points="456.25,507.9102,440.625,514.1602,456.25,520.4102,450,514.1602" style="stroke:#315B93;stroke-width:1.5625;"/><line style="stroke:#315B93;stroke-width:2.1875;stroke-dasharray:2.0,2.0;" x1="446.875" x2="979.6875" y1="514.1602" y2="514.1602"/><text fill="#000000" font-family="Inter" font-size="21.875" lengthAdjust="spacing" textLength="184.375" x="617.9688" y="506.2286">Peer review queue</text><polygon fill="#315B93" points="420.3125,557.2998,435.9375,563.5498,420.3125,569.7998,426.5625,563.5498" style="stroke:#315B93;stroke-width:1.5625;"/><line style="stroke:#315B93;stroke-width:2.1875;" x1="115.625" x2="429.6875" y1="563.5498" y2="563.5498"/><text fill="#000000" font-family="Inter" font-size="21.875" lengthAdjust="spacing" textLength="179.6875" x="187.5" y="555.6183">Submit peer score</text><polygon fill="#315B93" points="962.5,606.6895,978.125,612.9395,962.5,619.1895,968.75,612.9395" style="stroke:#315B93;stroke-width:1.5625;"/><line style="stroke:#315B93;stroke-width:2.1875;" x1="439.0625" x2="971.875" y1="612.9395" y2="612.9395"/><text fill="#000000" font-family="Inter" font-size="21.875" lengthAdjust="spacing" textLength="318.75" x="550.7813" y="605.0079">POST /competitions/{id}/judging/</text><polygon fill="#315B93" points="1282.8125,683.5938,1298.4375,689.8438,1282.8125,696.0938,1289.0625,689.8438" style="stroke:#315B93;stroke-width:1.5625;"/><line style="stroke:#315B93;stroke-width:2.1875;" x1="981.25" x2="1292.1875" y1="689.8438" y2="689.8438"/><text fill="#000000" font-family="Inter" font-size="21.875" lengthAdjust="spacing" textLength="282.8125" x="1000" y="654.3976">Validate peer review window,</text><text fill="#000000" font-family="Inter" font-size="21.875" lengthAdjust="spacing" textLength="201.5625" x="1040.625" y="681.9122">visibility, uniqueness</text><polygon fill="#315B93" points="1463.2813,732.9834,1478.9063,739.2334,1463.2813,745.4834,1469.5313,739.2334" style="stroke:#315B93;stroke-width:1.5625;"/><line style="stroke:#315B93;stroke-width:2.1875;" x1="981.25" x2="1472.6563" y1="739.2334" y2="739.2334"/><text fill="#000000" font-family="Inter" font-size="21.875" lengthAdjust="spacing" textLength="281.25" x="1091.0156" y="731.3019">Create or update peer score</text><polygon fill="#315B93" points="456.25,782.373,440.625,788.623,456.25,794.873,450,788.623" style="stroke:#315B93;stroke-width:1.5625;"/><line style="stroke:#315B93;stroke-width:2.1875;stroke-dasharray:2.0,2.0;" x1="446.875" x2="979.6875" y1="788.623" y2="788.623"/><text fill="#000000" font-family="Inter" font-size="21.875" lengthAdjust="spacing" textLength="173.4375" x="623.4375" y="780.6915">Peer score saved</text><polygon fill="#315B93" points="962.5,831.7627,978.125,838.0127,962.5,844.2627,968.75,838.0127" style="stroke:#315B93;stroke-width:1.5625;"/><line style="stroke:#315B93;stroke-width:2.1875;" x1="439.0625" x2="971.875" y1="838.0127" y2="838.0127"/><text fill="#000000" font-family="Inter" font-size="21.875" lengthAdjust="spacing" textLength="298.4375" x="560.9375" y="830.0812">GET /competitions/{id}/results/</text><polygon fill="#315B93" points="1463.2813,908.667,1478.9063,914.917,1463.2813,921.167,1469.5313,914.917" style="stroke:#315B93;stroke-width:1.5625;"/><line style="stroke:#315B93;stroke-width:2.1875;" x1="981.25" x2="1472.6563" y1="914.917" y2="914.917"/><text fill="#000000" font-family="Inter" font-size="21.875" lengthAdjust="spacing" textLength="292.1875" x="1085.5469" y="879.4708">Aggregate according to mode</text><text fill="#000000" font-family="Inter" font-size="21.875" lengthAdjust="spacing" textLength="154.6875" x="1154.2969" y="906.9855">average or sum</text><polygon fill="#315B93" points="456.25,958.0566,440.625,964.3066,456.25,970.5566,450,964.3066" style="stroke:#315B93;stroke-width:1.5625;"/><line style="stroke:#315B93;stroke-width:2.1875;stroke-dasharray:2.0,2.0;" x1="446.875" x2="979.6875" y1="964.3066" y2="964.3066"/><text fill="#000000" font-family="Inter" font-size="21.875" lengthAdjust="spacing" textLength="293.75" x="563.2813" y="956.3751">Leaderboard preview if visible</text><!--SRC=[ZL9TRnCn47pthrZotEJUaIYA0gf0aNeqbAT8QC_UN3RrsSOVkLQ8_uvzbpGSHQYlkxEpCxFxXetKIH4i5bNSKqVpGr8jxvuMBdLQH8wQO4C_4Xb9C8UQoCCT7Pbw8L16ws6sTCxR8oceqKUMxD346M00F-382tTfm6nbEqUPcAs1-qy3CF4KyhbeC2qiwx6FxY_01ziX6_Y6cXKMfW6cXgh85Mmm4Cng6sBhQVDbFVOR8SwQO7wTry9Rk7Lam1LROmjwwn-2GqaYzpCgBy-mcuzVeP8NwQ7woUfNTHYLLkyxg-XTeVa-qeWobgT7JPbWjIVvC5b41XjDQclGgEUiW3IttB3c-FJCqUJvjSKpgen1I4t78HGfMqEFvOebCjkRqZgGZD3lipLfpOxRv4cDT6VVzHzAydaJ_IERJTaHHz51MZ-DfBxT_3UJ5n6SpaNJkDaesrzjpP73oVSL9CFbvIY4IGOhJsKyFrro5w9HsKjpGnq2vjSKhxcbfv1q3DLavRBD3zIMNIWptv1nj53EdGzt98_j82YaRYfXJQZ8DnQz0dVooZiON6eIlm40]--></g></svg>