<?xml version="1.0" encoding="us-ascii" standalone="no"?><svg xmlns="http://www.w3.org/2000/svg" xmlns:xlink="http://www.w3.org/1999/xlink" contentStyleType="text/css" height="1745.3125px" preserveAspectRatio="none" style="width:1626px;height:1745px;background:#F7FAFF;" version="1.1" viewBox="0 0 1626 1745" width="1626.5625px" zoomAndPan="magnify"><defs/><g><rect fill="#F7FAFF" height="1745.3125" style="stroke:none;stroke-width:1.5625;" width="1626.5625" x="0" y="0"/><rect fill="#E7F0FF" height="62.793" id="_title" rx="9.375" ry="9.375" style="stroke:#B8CBEC;stroke-width:1.5625;" width="517.1875" x="556.25" y="15.625"/><text fill="#13294B" font-family="Inter" font-size="37.5" font-weight="bold" lengthAdjust="spacing" textLength="501.5625" x="564.0625" y="62.3657">Sequence - Manual Judging</text><rect fill="none" height="164.1357" rx="12.5" ry="12.5" style="stroke:#9BB3D5;stroke-width:2.34375;" width="812.5" x="803.125" y="1108.3984"/><line style="stroke:#9BB3D5;stroke-width:0.78125;stroke-dasharray:5.0,5.0;" x1="60.9375" x2="60.9375" y1="209.0576" y2="1332.8613"/><line style="stroke:#9BB3D5;stroke-width:1.5625;stroke-dasharray:1.0,4.0;" x1="60.9375" x2="60.9375" y1="1332.8613" y2="1404.126"/><line style="stroke:#9BB3D5;stroke-width:0.78125;stroke-dasharray:5.0,5.0;" x1="60.9375" x2="60.9375" y1="1404.126" y2="1617.3096"/><line style="stroke:#9BB3D5;stroke-width:0.78125;stroke-dasharray:5.0,5.0;" x1="164.0625" x2="164.0625" y1="209.0576" y2="1332.8613"/><line style="stroke:#9BB3D5;stroke-width:1.5625;stroke-dasharray:1.0,4.0;" x1="164.0625" x2="164.0625" y1="1332.8613" y2="1404.126"/><line style="stroke:#9BB3D5;stroke-width:0.78125;stroke-dasharray:5.0,5.0;" x1="164.0625" x2="164.0625" y1="1404.126" y2="1617.3096"/><line style="stroke:#9BB3D5;stroke-width:0.78125;stroke-dasharray:5.0,5.0;" x1="464.8438" x2="464.8438" y1="209.0576" y2="1332.8613"/><line style="stroke:#9BB3D5;stroke-width:1.5625;stroke-dasharray:1.0,4.0;" x1="464.8438" x2="464.8438" y1="1332.8613" y2="1404.126"/><line style="stroke:#9BB3D5;stroke-width:0.78125;stroke-dasharray:5.0,5.0;" x1="464.8438" x2="464.8438" y1="1404.126" y2="1617.3096"/><line style="stroke:#9BB3D5;stroke-width:0.78125;stroke-dasharray:5.0,5.0;" x1="887.5" x2="887.5" y1="209.0576" y2="1332.8613"/><line style="stroke:#9BB3D5;stroke-width:1.5625;stroke-dasharray:1.0,4.0;" x1="887.5" x2="887.5" y1="1332.8613" y2="1404.126"/><line style="stroke:#9BB3D5;stroke-width:0.78125;stroke-dasharray:5.0,5.0;" x1="887.5" x2="887.5" y1="1404.126" y2="1617.3096"/><line style="stroke:#9BB3D5;stroke-width:0.78125;stroke-dasharray:5.0,5.0;" x1="1354.6875" x2="1354.6875" y1="209.0576" y2="1332.8613"/><line style="stroke:#9BB3D5;stroke-width:1.5625;stroke-dasharray:1.0,4.0;" x1="1354.6875" x2="1354.6875" y1="1332.8613" y2="1404.126"/><line style="stroke:#9BB3D5;stroke-width:0.78125;stroke-dasharray:5.0,5.0;" x1="1354.6875" x2="1354.6875" y1="1404.126" y2="1617.3096"/><line style="stroke:#9BB3D5;stroke-width:0.78125;stroke-dasharray:5.0,5.0;" x1="1534.375" x2="1534.375" y1="209.0576" y2="1332.8613"/><line style="stroke:#9BB3D5;stroke-width:1.5625;stroke-dasharray:1.0,4.0;" x1="1534.375" x2="1534.375" y1="1332.8613" y2="1404.126"/><line style="stroke:#9BB3D5;stroke-width:0.78125;stroke-dasharray:5.0,5.0;" x1="1534.375" x2="1534.375" y1="1404.126" y2="1617.3096"/><text fill="#1E2A44" font-family="Inter" font-size="21.875" lengthAdjust="spacing" textLength="96.875" x="7.8125" y="204.2511">Organizer</text><ellipse cx="60.9375" cy="101.0742" fill="#FFF0E6" rx="12.5" ry="12.5" style="stroke:#E56C2C;stroke-width:0.78125;"/><path d="M60.9375,113.5742 L60.9375,155.7617 M40.625,126.0742 L81.25,126.0742 M60.9375,155.7617 L40.625,179.1992 M60.9375,155.7617 L81.25,179.1992 " fill="none" style="stroke:#E56C2C;stroke-width:0.78125;"/><text fill="#1E2A44" font-family="Inter" font-size="21.875" lengthAdjust="spacing" textLength="96.875" x="7.8125" y="1638.4552">Organizer</text><ellipse cx="60.9375" cy="1656.543" fill="#FFF0E6" rx="12.5" ry="12.5" style="stroke:#E56C2C;stroke-width:0.78125;"/><path d="M60.9375,1669.043 L60.9375,1711.2305 M40.625,1681.543 L81.25,1681.543 M60.9375,1711.2305 L40.625,1734.668 M60.9375,1711.2305 L81.25,1734.668 " fill="none" style="stroke:#E56C2C;stroke-width:0.78125;"/><text fill="#1E2A44" font-family="Inter" font-size="21.875" lengthAdjust="spacing" textLength="59.375" x="129.6875" y="204.2511">Judge</text><ellipse cx="164.0625" cy="101.0742" fill="#FFF0E6" rx="12.5" ry="12.5" style="stroke:#E56C2C;stroke-width:0.78125;"/><path d="M164.0625,113.5742 L164.0625,155.7617 M143.75,126.0742 L184.375,126.0742 M164.0625,155.7617 L143.75,179.1992 M164.0625,155.7617 L184.375,179.1992 " fill="none" style="stroke:#E56C2C;stroke-width:0.78125;"/><text fill="#1E2A44" font-family="Inter" font-size="21.875" lengthAdjust="spacing" textLength="59.375" x="129.6875" y="1638.4552">Judge</text><ellipse cx="164.0625" cy="1656.543" fill="#FFF0E6" rx="12.5" ry="12.5" style="stroke:#E56C2C;stroke-width:0.78125;"/><path d="M164.0625,1669.043 L164.0625,1711.2305 M143.75,1681.543 L184.375,1681.543 M164.0625,1711.2305 L143.75,1734.668 M164.0625,1711.2305 L184.375,1734.668 " fill="none" style="stroke:#E56C2C;stroke-width:0.78125;"/><rect fill="#EAF2FF" height="49.3896" rx="12.5" ry="12.5" style="stroke:#5E86C5;stroke-width:0.78125;" width="164.0625" x="383.5938" y="158.1055"/><text fill="#13294B" font-family="Inter" font-size="21.875" lengthAdjust="spacing" textLength="142.1875" x="394.5313" y="191.7511">Competition UI</text><rect fill="#EAF2FF" height="49.3896" rx="12.5" ry="12.5" style="stroke:#5E86C5;stroke-width:0.78125;" width="164.0625" x="383.5938" y="1615.7471"/><text fill="#13294B" font-family="Inter" font-size="21.875" lengthAdjust="spacing" textLength="142.1875" x="394.5313" y="1649.3927">Competition UI</text><rect fill="#EAF2FF" height="49.3896" rx="12.5" ry="12.5" style="stroke:#5E86C5;stroke-width:0.78125;" width="137.5" x="818.75" y="158.1055"/><text fill="#13294B" font-family="Inter" font-size="21.875" lengthAdjust="spacing" textLength="115.625" x="829.6875" y="191.7511">Judging API</text><rect fill="#EAF2FF" height="49.3896" rx="12.5" ry="12.5" style="stroke:#5E86C5;stroke-width:0.78125;" width="137.5" x="818.75" y="1615.7471"/><text fill="#13294B" font-family="Inter" font-size="21.875" lengthAdjust="spacing" textLength="115.625" x="829.6875" y="1649.3927">Judging API</text><rect fill="#EAF2FF" height="49.3896" rx="12.5" ry="12.5" style="stroke:#5E86C5;stroke-width:0.78125;" width="200" x="1254.6875" y="158.1055"/><text fill="#13294B" font-family="Inter" font-size="21.875" lengthAdjust="spacing" textLength="178.125" x="1265.625" y="191.7511">Domain Validation</text><rect fill="#EAF2FF" height="49.3896" rx="12.5" ry="12.5" style="stroke:#5E86C5;stroke-width:0.78125;" width="200" x="1254.6875" y="1615.7471"/><text fill="#13294B" font-family="Inter" font-size="21.875" lengthAdjust="spacing" textLength="178.125" x="1265.625" y="1649.3927">Domain Validation</text><text fill="#153B33" font-family="Inter" font-size="21.875" lengthAdjust="spacing" textLength="120.3125" x="1470.3125" y="204.2511">PostgreSQL</text><path d="M1507.0313,125.293 C1507.0313,109.668 1535.1563,109.668 1535.1563,109.668 C1535.1563,109.668 1563.2813,109.668 1563.2813,125.293 L1563.2813,165.918 C1563.2813,181.543 1535.1563,181.543 1535.1563,181.543 C1535.1563,181.543 1507.0313,181.543 1507.0313,165.918 L1507.0313,125.293 " fill="#EAF8F4" style="stroke:#2C7A68;stroke-width:2.34375;"/><path d="M1507.0313,125.293 C1507.0313,140.918 1535.1563,140.918 1535.1563,140.918 C1535.1563,140.918 1563.2813,140.918 1563.2813,125.293 " fill="none" style="stroke:#2C7A68;stroke-width:2.34375;"/><text fill="#153B33" font-family="Inter" font-size="21.875" lengthAdjust="spacing" textLength="120.3125" x="1470.3125" y="1638.4552">PostgreSQL</text><path d="M1507.0313,1658.8867 C1507.0313,1643.2617 1535.1563,1643.2617 1535.1563,1643.2617 C1535.1563,1643.2617 1563.2813,1643.2617 1563.2813,1658.8867 L1563.2813,1699.5117 C1563.2813,1715.1367 1535.1563,1715.1367 1535.1563,1715.1367 C1535.1563,1715.1367 1507.0313,1715.1367 1507.0313,1699.5117 L1507.0313,1658.8867 " fill="#EAF8F4" style="stroke:#2C7A68;stroke-width:2.34375;"/><path d="M1507.0313,1658.8867 C1507.0313,1674.5117 1535.1563,1674.5117 1535.1563,1674.5117 C1535.1563,1674.5117 1563.2813,1674.5117 1563.2813,1658.8867 " fill="none" style="stroke:#2C7A68;stroke-width:2.34375;"/><polygon fill="#315B93" points="446.875,255.3223,462.5,261.5723,446.875,267.8223,453.125,261.5723" style="stroke:#315B93;stroke-width:1.5625;"/><line style="stroke:#315B93;stroke-width:2.1875;" x1="60.9375" x2="456.25" y1="261.5723" y2="261.5723"/><text fill="#000000" font-family="Inter" font-size="21.875" lengthAdjust="spacing" textLength="206.25" x="160.1563" y="253.6407">Assign user as judge</text><polygon fill="#315B93" points="868.75,304.7119,884.375,310.9619,868.75,317.2119,875,310.9619" style="stroke:#315B93;stroke-width:1.5625;"/><line style="stroke:#315B93;stroke-width:2.1875;" x1="465.625" x2="878.125" y1="310.9619" y2="310.9619"/><text fill="#000000" font-family="Inter" font-size="21.875" lengthAdjust="spacing" textLength="312.5" x="520.3125" y="303.0304">POST /competitions/{id}/judges/</text><polygon fill="#315B93" points="1335.9375,354.1016,1351.5625,360.3516,1335.9375,366.6016,1342.1875,360.3516" style="stroke:#315B93;stroke-width:1.5625;"/><line style="stroke:#315B93;stroke-width:2.1875;" x1="887.5" x2="1345.3125" y1="360.3516" y2="360.3516"/><text fill="#000000" font-family="Inter" font-size="21.875" lengthAdjust="spacing" textLength="429.6875" x="906.25" y="352.42">Ensure user is not participant/team member</text><polygon fill="#315B93" points="1516.4063,431.0059,1532.0313,437.2559,1516.4063,443.5059,1522.6563,437.2559" style="stroke:#315B93;stroke-width:1.5625;"/><line style="stroke:#315B93;stroke-width:2.1875;" x1="887.5" x2="1525.7813" y1="437.2559" y2="437.2559"/><text fill="#000000" font-family="Inter" font-size="21.875" lengthAdjust="spacing" textLength="246.875" x="1087.8906" y="401.8097">Create judge assignment</text><text fill="#000000" font-family="Inter" font-size="21.875" lengthAdjust="spacing" textLength="282.8125" x="1069.9219" y="429.3243">and judge participant marker</text><polygon fill="#315B93" points="482.8125,480.3955,467.1875,486.6455,482.8125,492.8955,476.5625,486.6455" style="stroke:#315B93;stroke-width:1.5625;"/><line style="stroke:#315B93;stroke-width:2.1875;stroke-dasharray:2.0,2.0;" x1="473.4375" x2="885.9375" y1="486.6455" y2="486.6455"/><text fill="#000000" font-family="Inter" font-size="21.875" lengthAdjust="spacing" textLength="287.5" x="532.8125" y="478.714">Invitation/assignment created</text><polygon fill="#315B93" points="446.875,529.7852,462.5,536.0352,446.875,542.2852,453.125,536.0352" style="stroke:#315B93;stroke-width:1.5625;"/><line style="stroke:#315B93;stroke-width:2.1875;" x1="164.0625" x2="456.25" y1="536.0352" y2="536.0352"/><text fill="#000000" font-family="Inter" font-size="21.875" lengthAdjust="spacing" textLength="160.9375" x="234.375" y="528.1036">Accept invitation</text><polygon fill="#315B93" points="868.75,579.1748,884.375,585.4248,868.75,591.6748,875,585.4248" style="stroke:#315B93;stroke-width:1.5625;"/><line style="stroke:#315B93;stroke-width:2.1875;" x1="465.625" x2="878.125" y1="585.4248" y2="585.4248"/><text fill="#000000" font-family="Inter" font-size="21.875" lengthAdjust="spacing" textLength="384.375" x="484.375" y="577.4933">POST /competitions/{id}/judges/accept/</text><polygon fill="#315B93" points="1516.4063,628.5645,1532.0313,634.8145,1516.4063,641.0645,1522.6563,634.8145" style="stroke:#315B93;stroke-width:1.5625;"/><line style="stroke:#315B93;stroke-width:2.1875;" x1="887.5" x2="1525.7813" y1="634.8145" y2="634.8145"/><text fill="#000000" font-family="Inter" font-size="21.875" lengthAdjust="spacing" textLength="264.0625" x="1079.2969" y="626.8829">Mark assignment accepted</text><polygon fill="#315B93" points="482.8125,677.9541,467.1875,684.2041,482.8125,690.4541,476.5625,684.2041" style="stroke:#315B93;stroke-width:1.5625;"/><line style="stroke:#315B93;stroke-width:2.1875;stroke-dasharray:2.0,2.0;" x1="473.4375" x2="885.9375" y1="684.2041" y2="684.2041"/><text fill="#000000" font-family="Inter" font-size="21.875" lengthAdjust="spacing" textLength="264.0625" x="544.5313" y="676.2726">Judge workspace available</text><polygon fill="#315B93" points="446.875,727.3438,462.5,733.5938,446.875,739.8438,453.125,733.5938" style="stroke:#315B93;stroke-width:1.5625;"/><line style="stroke:#315B93;stroke-width:2.1875;" x1="164.0625" x2="456.25" y1="733.5938" y2="733.5938"/><text fill="#000000" font-family="Inter" font-size="21.875" lengthAdjust="spacing" textLength="175" x="227.3438" y="725.6622">Open Judging tab</text><polygon fill="#315B93" points="868.75,776.7334,884.375,782.9834,868.75,789.2334,875,782.9834" style="stroke:#315B93;stroke-width:1.5625;"/><line style="stroke:#315B93;stroke-width:2.1875;" x1="465.625" x2="878.125" y1="782.9834" y2="782.9834"/><text fill="#000000" font-family="Inter" font-size="21.875" lengthAdjust="spacing" textLength="304.6875" x="524.2188" y="775.0519">GET /competitions/{id}/judging/</text><polygon fill="#315B93" points="1516.4063,853.6377,1532.0313,859.8877,1516.4063,866.1377,1522.6563,859.8877" style="stroke:#315B93;stroke-width:1.5625;"/><line style="stroke:#315B93;stroke-width:2.1875;" x1="887.5" x2="1525.7813" y1="859.8877" y2="859.8877"/><text fill="#000000" font-family="Inter" font-size="21.875" lengthAdjust="spacing" textLength="278.125" x="1072.2656" y="824.4415">Load assigned submissions,</text><text fill="#000000" font-family="Inter" font-size="21.875" lengthAdjust="spacing" textLength="190.625" x="1116.0156" y="851.9562">criteria, own scores</text><polygon fill="#315B93" points="482.8125,903.0273,467.1875,909.2773,482.8125,915.5273,476.5625,909.2773" style="stroke:#315B93;stroke-width:1.5625;"/><line style="stroke:#315B93;stroke-width:2.1875;stroke-dasharray:2.0,2.0;" x1="473.4375" x2="885.9375" y1="909.2773" y2="909.2773"/><text fill="#000000" font-family="Inter" font-size="21.875" lengthAdjust="spacing" textLength="346.875" x="503.125" y="901.3458">Judging table and criteria metadata</text><polygon fill="#315B93" points="446.875,952.417,462.5,958.667,446.875,964.917,453.125,958.667" style="stroke:#315B93;stroke-width:1.5625;"/><line style="stroke:#315B93;stroke-width:2.1875;" x1="164.0625" x2="456.25" y1="958.667" y2="958.667"/><text fill="#000000" font-family="Inter" font-size="21.875" lengthAdjust="spacing" textLength="264.0625" x="182.8125" y="950.7355">Enter scores and comment</text><polygon fill="#315B93" points="868.75,1001.8066,884.375,1008.0566,868.75,1014.3066,875,1008.0566" style="stroke:#315B93;stroke-width:1.5625;"/><line style="stroke:#315B93;stroke-width:2.1875;" x1="465.625" x2="878.125" y1="1008.0566" y2="1008.0566"/><text fill="#000000" font-family="Inter" font-size="21.875" lengthAdjust="spacing" textLength="318.75" x="517.1875" y="1000.1251">POST /competitions/{id}/judging/</text><polygon fill="#315B93" points="1335.9375,1078.7109,1351.5625,1084.9609,1335.9375,1091.2109,1342.1875,1084.9609" style="stroke:#315B93;stroke-width:1.5625;"/><line style="stroke:#315B93;stroke-width:2.1875;" x1="887.5" x2="1345.3125" y1="1084.9609" y2="1084.9609"/><text fill="#000000" font-family="Inter" font-size="21.875" lengthAdjust="spacing" textLength="334.375" x="953.9063" y="1049.5148">Validate deadline and uniqueness</text><text fill="#000000" font-family="Inter" font-size="21.875" lengthAdjust="spacing" textLength="376.5625" x="932.8125" y="1077.0294">judge + submission + round + criterion</text><path d="M815.625,1108.3984 L900,1108.3984 L900,1123.4131 L884.375,1139.0381 L803.125,1139.0381 L803.125,1120.8984 A12.5,12.5 0 0 1 815.625,1108.3984 " fill="#F8FBFF" style="stroke:#9BB3D5;stroke-width:2.34375;"/><rect fill="none" height="164.1357" rx="12.5" ry="12.5" style="stroke:#9BB3D5;stroke-width:2.34375;" width="812.5" x="803.125" y="1108.3984"/><text fill="#000000" font-family="Inter" font-size="21.875" font-weight="bold" lengthAdjust="spacing" textLength="26.5625" x="826.5625" y="1132.6691">alt</text><text fill="#000000" font-family="Inter" font-size="21.875" font-weight="bold" lengthAdjust="spacing" textLength="217.1875" x="923.4375" y="1134.2316">[no previous score]</text><polygon fill="#315B93" points="1516.4063,1173.7549,1532.0313,1180.0049,1516.4063,1186.2549,1522.6563,1180.0049" style="stroke:#315B93;stroke-width:1.5625;"/><line style="stroke:#315B93;stroke-width:2.1875;" x1="887.5" x2="1525.7813" y1="1180.0049" y2="1180.0049"/><text fill="#000000" font-family="Inter" font-size="21.875" lengthAdjust="spacing" textLength="201.5625" x="1110.5469" y="1172.0734">Create score entries</text><line style="stroke:#9BB3D5;stroke-width:1.5625;stroke-dasharray:2.0,2.0;" x1="803.125" x2="1615.625" y1="1194.0674" y2="1194.0674"/><text fill="#000000" font-family="Inter" font-size="21.875" font-weight="bold" lengthAdjust="spacing" textLength="382.8125" x="810.9375" y="1216.7755">[own score exists before deadline]</text><polygon fill="#315B93" points="1516.4063,1253.7842,1532.0313,1260.0342,1516.4063,1266.2842,1522.6563,1260.0342" style="stroke:#315B93;stroke-width:1.5625;"/><line style="stroke:#315B93;stroke-width:2.1875;" x1="887.5" x2="1525.7813" y1="1260.0342" y2="1260.0342"/><text fill="#000000" font-family="Inter" font-size="21.875" lengthAdjust="spacing" textLength="250" x="1086.3281" y="1252.1027">Update own score entries</text><polygon fill="#315B93" points="482.8125,1314.1113,467.1875,1320.3613,482.8125,1326.6113,476.5625,1320.3613" style="stroke:#315B93;stroke-width:1.5625;"/><line style="stroke:#315B93;stroke-width:2.1875;stroke-dasharray:2.0,2.0;" x1="473.4375" x2="885.9375" y1="1320.3613" y2="1320.3613"/><text fill="#000000" font-family="Inter" font-size="21.875" lengthAdjust="spacing" textLength="218.75" x="567.1875" y="1312.4298">Saved score summary</text><text fill="#000000" font-family="Inter" font-size="21.875" lengthAdjust="spacing" textLength="239.0625" x="678.5156" y="1377.4445">judging deadline passes</text><polygon fill="#315B93" points="446.875,1434.7656,462.5,1441.0156,446.875,1447.2656,453.125,1441.0156" style="stroke:#315B93;stroke-width:1.5625;"/><line style="stroke:#315B93;stroke-width:2.1875;" x1="164.0625" x2="456.25" y1="1441.0156" y2="1441.0156"/><text fill="#000000" font-family="Inter" font-size="21.875" lengthAdjust="spacing" textLength="181.25" x="224.2188" y="1433.0841">Try edit own score</text><polygon fill="#315B93" points="868.75,1484.1553,884.375,1490.4053,868.75,1496.6553,875,1490.4053" style="stroke:#315B93;stroke-width:1.5625;"/><line style="stroke:#315B93;stroke-width:2.1875;" x1="465.625" x2="878.125" y1="1490.4053" y2="1490.4053"/><text fill="#000000" font-family="Inter" font-size="21.875" lengthAdjust="spacing" textLength="318.75" x="517.1875" y="1482.4738">POST /competitions/{id}/judging/</text><polygon fill="#315B93" points="1335.9375,1533.5449,1351.5625,1539.7949,1335.9375,1546.0449,1342.1875,1539.7949" style="stroke:#315B93;stroke-width:1.5625;"/><line style="stroke:#315B93;stroke-width:2.1875;" x1="887.5" x2="1345.3125" y1="1539.7949" y2="1539.7949"/><text fill="#000000" font-family="Inter" font-size="21.875" lengthAdjust="spacing" textLength="282.8125" x="979.6875" y="1531.8634">Reject after judging deadline</text><polygon fill="#315B93" points="482.8125,1582.9346,467.1875,1589.1846,482.8125,1595.4346,476.5625,1589.1846" style="stroke:#315B93;stroke-width:1.5625;"/><line style="stroke:#315B93;stroke-width:2.1875;stroke-dasharray:2.0,2.0;" x1="473.4375" x2="885.9375" y1="1589.1846" y2="1589.1846"/><text fill="#000000" font-family="Inter" font-size="21.875" lengthAdjust="spacing" textLength="128.125" x="612.5" y="1581.2531">Score locked</text><!--SRC=[fPDDSzD038Rl-oj4hctiEmTcEYN3b6adWRISSf5j9QYnTyr-f0I6_uvsRIUnWHaOZhjw9JtIllkATLc7YY3BSl-P6fe_Xsh7ssFMXgPMddrDiAOlWNH9C8S7r05hU1z5UgSKbjvOc2tj3ZL_8pi3T626qn2ESagXM9rKYzPpoIrg3xDRqxGaZTXeUBfBgi1ZITyERbPT7Dk9uArfa3LymfehZ9MIh4gtIcwmG4SmMnddTvRM7-wxUA7KYHNcRwGll8ORvtYd8JYvEn5BHEBILmIhvVeHylACxVBlNFt8azBbAgf4t7KN_KAxOAaho0wqyN01dtl21XfgYhYlFhMGj5jBwAdhBo0HgY7jDnfrrTzUxg11knyg3AFSwGFxj8_yN03ALBXIgYjochiigVN0fvn_6HfJSZuQu468Bi2XqqZZ4MFo1hmOktSjYiVmW5nZKTEKRzcI7em7yg8Zl7UBFzA9VCnrRx3gkQW25ug6vI0vrnjTMlPa6Q_1l6XmfR7aVkNj2UHhnBSOSkGHFKQpJSaNMk9ziIx3D74ZVxtWqGY3hNgp4rI4LSswWmcQusSbvpQwexYw654ErWIHNGtKyinOUp4bj9OER8BhG1N0RyoOGY3ebcKlLCkdEkq9w2ixxw2WRJmDL9D2JsrYliWQYkc9CTPuYC-JH2uquk-ZKbcMGR-HyzojFAPiLcAJnJ_Q8r35_jpk_rR-aPwf52DlutjECIRqYRisvLuC_nC0]--></g></svg>