<?xml version="1.0" encoding="us-ascii" standalone="no"?><svg xmlns="http://www.w3.org/2000/svg" xmlns:xlink="http://www.w3.org/1999/xlink" contentStyleType="text/css" height="1557.8125px" preserveAspectRatio="none" style="width:1968px;height:1557px;background:#F7FAFF;" version="1.1" viewBox="0 0 1968 1557" width="1968.75px" zoomAndPan="magnify"><defs/><g><rect fill="#F7FAFF" height="1557.8125" style="stroke:none;stroke-width:1.5625;" width="1968.75" x="0" y="0"/><rect fill="#E7F0FF" height="62.793" id="_title" rx="9.375" ry="9.375" style="stroke:#B8CBEC;stroke-width:1.5625;" width="459.375" x="757.4219" y="15.625"/><text fill="#13294B" font-family="Inter" font-size="37.5" font-weight="bold" lengthAdjust="spacing" textLength="443.75" x="765.2344" y="62.3657">Sequence - Submit Work</text><rect fill="none" height="133.4961" rx="12.5" ry="12.5" style="stroke:#9BB3D5;stroke-width:2.34375;" width="1041.4063" x="918.75" y="636.377"/><rect fill="none" height="342.9443" rx="12.5" ry="12.5" style="stroke:#9BB3D5;stroke-width:2.34375;" width="1274.2188" x="332.8125" y="791.748"/><line style="stroke:#9BB3D5;stroke-width:0.78125;stroke-dasharray:5.0,5.0;" x1="170.3125" x2="170.3125" y1="209.0576" y2="1145.6299"/><line style="stroke:#9BB3D5;stroke-width:1.5625;stroke-dasharray:1.0,4.0;" x1="170.3125" x2="170.3125" y1="1145.6299" y2="1216.8945"/><line style="stroke:#9BB3D5;stroke-width:0.78125;stroke-dasharray:5.0,5.0;" x1="170.3125" x2="170.3125" y1="1216.8945" y2="1430.0781"/><line style="stroke:#9BB3D5;stroke-width:0.78125;stroke-dasharray:5.0,5.0;" x1="460.9375" x2="460.9375" y1="209.0576" y2="1145.6299"/><line style="stroke:#9BB3D5;stroke-width:1.5625;stroke-dasharray:1.0,4.0;" x1="460.9375" x2="460.9375" y1="1145.6299" y2="1216.8945"/><line style="stroke:#9BB3D5;stroke-width:0.78125;stroke-dasharray:5.0,5.0;" x1="460.9375" x2="460.9375" y1="1216.8945" y2="1430.0781"/><line style="stroke:#9BB3D5;stroke-width:0.78125;stroke-dasharray:5.0,5.0;" x1="1020.3125" x2="1020.3125" y1="209.0576" y2="1145.6299"/><line style="stroke:#9BB3D5;stroke-width:1.5625;stroke-dasharray:1.0,4.0;" x1="1020.3125" x2="1020.3125" y1="1145.6299" y2="1216.8945"/><line style="stroke:#9BB3D5;stroke-width:0.78125;stroke-dasharray:5.0,5.0;" x1="1020.3125" x2="1020.3125" y1="1216.8945" y2="1430.0781"/><line style="stroke:#9BB3D5;stroke-width:0.78125;stroke-dasharray:5.0,5.0;" x1="1346.0938" x2="1346.0938" y1="209.0576" y2="1145.6299"/><line style="stroke:#9BB3D5;stroke-width:1.5625;stroke-dasharray:1.0,4.0;" x1="1346.0938" x2="1346.0938" y1="1145.6299" y2="1216.8945"/><line style="stroke:#9BB3D5;stroke-width:0.78125;stroke-dasharray:5.0,5.0;" x1="1346.0938" x2="1346.0938" y1="1216.8945" y2="1430.0781"/><line style="stroke:#9BB3D5;stroke-width:0.78125;stroke-dasharray:5.0,5.0;" x1="1525.7813" x2="1525.7813" y1="209.0576" y2="1145.6299"/><line style="stroke:#9BB3D5;stroke-width:1.5625;stroke-dasharray:1.0,4.0;" x1="1525.7813" x2="1525.7813" y1="1145.6299" y2="1216.8945"/><line style="stroke:#9BB3D5;stroke-width:0.78125;stroke-dasharray:5.0,5.0;" x1="1525.7813" x2="1525.7813" y1="1216.8945" y2="1430.0781"/><line style="stroke:#9BB3D5;stroke-width:0.78125;stroke-dasharray:5.0,5.0;" x1="1775.7813" x2="1775.7813" y1="209.0576" y2="1145.6299"/><line style="stroke:#9BB3D5;stroke-width:1.5625;stroke-dasharray:1.0,4.0;" x1="1775.7813" x2="1775.7813" y1="1145.6299" y2="1216.8945"/><line style="stroke:#9BB3D5;stroke-width:0.78125;stroke-dasharray:5.0,5.0;" x1="1775.7813" x2="1775.7813" y1="1216.8945" y2="1430.0781"/><text fill="#1E2A44" font-family="Inter" font-size="21.875" lengthAdjust="spacing" textLength="315.625" x="7.8125" y="204.2511">Approved Participant or Captain</text><ellipse cx="170.3125" cy="101.0742" fill="#FFF0E6" rx="12.5" ry="12.5" style="stroke:#E56C2C;stroke-width:0.78125;"/><path d="M170.3125,113.5742 L170.3125,155.7617 M150,126.0742 L190.625,126.0742 M170.3125,155.7617 L150,179.1992 M170.3125,155.7617 L190.625,179.1992 " fill="none" style="stroke:#E56C2C;stroke-width:0.78125;"/><text fill="#1E2A44" font-family="Inter" font-size="21.875" lengthAdjust="spacing" textLength="315.625" x="7.8125" y="1451.2238">Approved Participant or Captain</text><ellipse cx="170.3125" cy="1469.3115" fill="#FFF0E6" rx="12.5" ry="12.5" style="stroke:#E56C2C;stroke-width:0.78125;"/><path d="M170.3125,1481.8115 L170.3125,1523.999 M150,1494.3115 L190.625,1494.3115 M170.3125,1523.999 L150,1547.4365 M170.3125,1523.999 L190.625,1547.4365 " fill="none" style="stroke:#E56C2C;stroke-width:0.78125;"/><rect fill="#EAF2FF" height="49.3896" rx="12.5" ry="12.5" style="stroke:#5E86C5;stroke-width:0.78125;" width="226.5625" x="348.4375" y="158.1055"/><text fill="#13294B" font-family="Inter" font-size="21.875" lengthAdjust="spacing" textLength="204.6875" x="359.375" y="191.7511">Competition Detail UI</text><rect fill="#EAF2FF" height="49.3896" rx="12.5" ry="12.5" style="stroke:#5E86C5;stroke-width:0.78125;" width="226.5625" x="348.4375" y="1428.5156"/><text fill="#13294B" font-family="Inter" font-size="21.875" lengthAdjust="spacing" textLength="204.6875" x="359.375" y="1462.1613">Competition Detail UI</text><rect fill="#EAF2FF" height="49.3896" rx="12.5" ry="12.5" style="stroke:#5E86C5;stroke-width:0.78125;" width="173.4375" x="934.375" y="158.1055"/><text fill="#13294B" font-family="Inter" font-size="21.875" lengthAdjust="spacing" textLength="151.5625" x="945.3125" y="191.7511">Submission API</text><rect fill="#EAF2FF" height="49.3896" rx="12.5" ry="12.5" style="stroke:#5E86C5;stroke-width:0.78125;" width="173.4375" x="934.375" y="1428.5156"/><text fill="#13294B" font-family="Inter" font-size="21.875" lengthAdjust="spacing" textLength="151.5625" x="945.3125" y="1462.1613">Submission API</text><rect fill="#EAF2FF" height="49.3896" rx="12.5" ry="12.5" style="stroke:#5E86C5;stroke-width:0.78125;" width="200" x="1246.0938" y="158.1055"/><text fill="#13294B" font-family="Inter" font-size="21.875" lengthAdjust="spacing" textLength="178.125" x="1257.0313" y="191.7511">Domain Validation</text><rect fill="#EAF2FF" height="49.3896" rx="12.5" ry="12.5" style="stroke:#5E86C5;stroke-width:0.78125;" width="200" x="1246.0938" y="1428.5156"/><text fill="#13294B" font-family="Inter" font-size="21.875" lengthAdjust="spacing" textLength="178.125" x="1257.0313" y="1462.1613">Domain Validation</text><text fill="#153B33" font-family="Inter" font-size="21.875" lengthAdjust="spacing" textLength="120.3125" x="1461.7188" y="204.2511">PostgreSQL</text><path d="M1498.4375,125.293 C1498.4375,109.668 1526.5625,109.668 1526.5625,109.668 C1526.5625,109.668 1554.6875,109.668 1554.6875,125.293 L1554.6875,165.918 C1554.6875,181.543 1526.5625,181.543 1526.5625,181.543 C1526.5625,181.543 1498.4375,181.543 1498.4375,165.918 L1498.4375,125.293 " fill="#EAF8F4" style="stroke:#2C7A68;stroke-width:2.34375;"/><path d="M1498.4375,125.293 C1498.4375,140.918 1526.5625,140.918 1526.5625,140.918 C1526.5625,140.918 1554.6875,140.918 1554.6875,125.293 " fill="none" style="stroke:#2C7A68;stroke-width:2.34375;"/><text fill="#153B33" font-family="Inter" font-size="21.875" lengthAdjust="spacing" textLength="120.3125" x="1461.7188" y="1451.2238">PostgreSQL</text><path d="M1498.4375,1471.6553 C1498.4375,1456.0303 1526.5625,1456.0303 1526.5625,1456.0303 C1526.5625,1456.0303 1554.6875,1456.0303 1554.6875,1471.6553 L1554.6875,1512.2803 C1554.6875,1527.9053 1526.5625,1527.9053 1526.5625,1527.9053 C1526.5625,1527.9053 1498.4375,1527.9053 1498.4375,1512.2803 L1498.4375,1471.6553 " fill="#EAF8F4" style="stroke:#2C7A68;stroke-width:2.34375;"/><path d="M1498.4375,1471.6553 C1498.4375,1487.2803 1526.5625,1487.2803 1526.5625,1487.2803 C1526.5625,1487.2803 1554.6875,1487.2803 1554.6875,1471.6553 " fill="none" style="stroke:#2C7A68;stroke-width:2.34375;"/><rect fill="#E2E2F0" height="49.3896" rx="12.5" ry="12.5" style="stroke:#181818;stroke-width:0.78125;" width="331.25" x="1613.2813" y="151.8555"/><rect fill="#E2E2F0" height="49.3896" rx="12.5" ry="12.5" style="stroke:#181818;stroke-width:0.78125;" width="331.25" x="1607.0313" y="158.1055"/><text fill="#000000" font-family="Inter" font-size="21.875" lengthAdjust="spacing" textLength="309.375" x="1617.9688" y="191.7511">MEDIA_ROOT / Object Storage</text><rect fill="#E2E2F0" height="49.3896" rx="12.5" ry="12.5" style="stroke:#181818;stroke-width:0.78125;" width="331.25" x="1613.2813" y="1428.5156"/><rect fill="#E2E2F0" height="49.3896" rx="12.5" ry="12.5" style="stroke:#181818;stroke-width:0.78125;" width="331.25" x="1607.0313" y="1434.7656"/><text fill="#000000" font-family="Inter" font-size="21.875" lengthAdjust="spacing" textLength="309.375" x="1617.9688" y="1468.4113">MEDIA_ROOT / Object Storage</text><polygon fill="#315B93" points="442.9688,255.3223,458.5938,261.5723,442.9688,267.8223,449.2188,261.5723" style="stroke:#315B93;stroke-width:1.5625;"/><line style="stroke:#315B93;stroke-width:2.1875;" x1="170.3125" x2="452.3438" y1="261.5723" y2="261.5723"/><text fill="#000000" font-family="Inter" font-size="21.875" lengthAdjust="spacing" textLength="182.8125" x="224.6094" y="253.6407">Open active round</text><polygon fill="#315B93" points="1002.3438,304.7119,1017.9688,310.9619,1002.3438,317.2119,1008.5938,310.9619" style="stroke:#315B93;stroke-width:1.5625;"/><line style="stroke:#315B93;stroke-width:2.1875;" x1="461.7188" x2="1011.7188" y1="310.9619" y2="310.9619"/><text fill="#000000" font-family="Inter" font-size="21.875" lengthAdjust="spacing" textLength="226.5625" x="628.125" y="303.0304">GET /competitions/{id}/</text><polygon fill="#315B93" points="1507.8125,381.6162,1523.4375,387.8662,1507.8125,394.1162,1514.0625,387.8662" style="stroke:#315B93;stroke-width:1.5625;"/><line style="stroke:#315B93;stroke-width:2.1875;" x1="1021.0938" x2="1517.1875" y1="387.8662" y2="387.8662"/><text fill="#000000" font-family="Inter" font-size="21.875" lengthAdjust="spacing" textLength="279.6875" x="1133.9844" y="352.42">Load participant/team status</text><text fill="#000000" font-family="Inter" font-size="21.875" lengthAdjust="spacing" textLength="165.625" x="1191.0156" y="379.9347">and active round</text><polygon fill="#315B93" points="478.9063,431.0059,463.2813,437.2559,478.9063,443.5059,472.6563,437.2559" style="stroke:#315B93;stroke-width:1.5625;"/><line style="stroke:#315B93;stroke-width:2.1875;stroke-dasharray:2.0,2.0;" x1="469.5313" x2="1019.5313" y1="437.2559" y2="437.2559"/><text fill="#000000" font-family="Inter" font-size="21.875" lengthAdjust="spacing" textLength="276.5625" x="603.125" y="429.3243">Submit affordance if allowed</text><polygon fill="#315B93" points="442.9688,480.3955,458.5938,486.6455,442.9688,492.8955,449.2188,486.6455" style="stroke:#315B93;stroke-width:1.5625;"/><line style="stroke:#315B93;stroke-width:2.1875;" x1="170.3125" x2="452.3438" y1="486.6455" y2="486.6455"/><text fill="#000000" font-family="Inter" font-size="21.875" lengthAdjust="spacing" textLength="192.1875" x="219.9219" y="478.714">Add link, text, or file</text><polygon fill="#315B93" points="1002.3438,529.7852,1017.9688,536.0352,1002.3438,542.2852,1008.5938,536.0352" style="stroke:#315B93;stroke-width:1.5625;"/><line style="stroke:#315B93;stroke-width:2.1875;" x1="461.7188" x2="1011.7188" y1="536.0352" y2="536.0352"/><text fill="#000000" font-family="Inter" font-size="21.875" lengthAdjust="spacing" textLength="521.875" x="480.4688" y="528.1036">POST /competitions/{id}/rounds/{round}/submissions/</text><polygon fill="#315B93" points="1327.3438,606.6895,1342.9688,612.9395,1327.3438,619.1895,1333.5938,612.9395" style="stroke:#315B93;stroke-width:1.5625;"/><line style="stroke:#315B93;stroke-width:2.1875;" x1="1021.0938" x2="1336.7188" y1="612.9395" y2="612.9395"/><text fill="#000000" font-family="Inter" font-size="21.875" lengthAdjust="spacing" textLength="262.5" x="1052.3438" y="577.4933">Validate approved subject,</text><text fill="#000000" font-family="Inter" font-size="21.875" lengthAdjust="spacing" textLength="287.5" x="1039.8438" y="605.0079">round window, policy, file size</text><path d="M931.25,636.377 L1015.625,636.377 L1015.625,651.3916 L1000,667.0166 L918.75,667.0166 L918.75,648.877 A12.5,12.5 0 0 1 931.25,636.377 " fill="#F8FBFF" style="stroke:#9BB3D5;stroke-width:2.34375;"/><rect fill="none" height="133.4961" rx="12.5" ry="12.5" style="stroke:#9BB3D5;stroke-width:2.34375;" width="1041.4063" x="918.75" y="636.377"/><text fill="#000000" font-family="Inter" font-size="21.875" font-weight="bold" lengthAdjust="spacing" textLength="26.5625" x="942.1875" y="660.6476">alt</text><text fill="#000000" font-family="Inter" font-size="21.875" font-weight="bold" lengthAdjust="spacing" textLength="151.5625" x="1039.0625" y="662.2101">[file included]</text><polygon fill="#315B93" points="1757.0313,701.7334,1772.6563,707.9834,1757.0313,714.2334,1763.2813,707.9834" style="stroke:#315B93;stroke-width:1.5625;"/><line style="stroke:#315B93;stroke-width:2.1875;" x1="1021.0938" x2="1766.4063" y1="707.9834" y2="707.9834"/><text fill="#000000" font-family="Inter" font-size="21.875" lengthAdjust="spacing" textLength="146.875" x="1325" y="700.0519">Store file bytes</text><polygon fill="#315B93" points="1507.8125,751.123,1523.4375,757.373,1507.8125,763.623,1514.0625,757.373" style="stroke:#315B93;stroke-width:1.5625;"/><line style="stroke:#315B93;stroke-width:2.1875;" x1="1021.0938" x2="1517.1875" y1="757.373" y2="757.373"/><text fill="#000000" font-family="Inter" font-size="21.875" lengthAdjust="spacing" textLength="239.0625" x="1154.2969" y="749.4415">Store UserFile metadata</text><path d="M345.3125,791.748 L429.6875,791.748 L429.6875,806.7627 L414.0625,822.3877 L332.8125,822.3877 L332.8125,804.248 A12.5,12.5 0 0 1 345.3125,791.748 " fill="#F8FBFF" style="stroke:#9BB3D5;stroke-width:2.34375;"/><rect fill="none" height="342.9443" rx="12.5" ry="12.5" style="stroke:#9BB3D5;stroke-width:2.34375;" width="1274.2188" x="332.8125" y="791.748"/><text fill="#000000" font-family="Inter" font-size="21.875" font-weight="bold" lengthAdjust="spacing" textLength="26.5625" x="356.25" y="816.0187">alt</text><text fill="#000000" font-family="Inter" font-size="21.875" font-weight="bold" lengthAdjust="spacing" textLength="425" x="453.125" y="817.5812">[single policy and existing submission]</text><polygon fill="#315B93" points="478.9063,857.1045,463.2813,863.3545,478.9063,869.6045,472.6563,863.3545" style="stroke:#315B93;stroke-width:1.5625;"/><line style="stroke:#315B93;stroke-width:2.1875;stroke-dasharray:2.0,2.0;" x1="469.5313" x2="1019.5313" y1="863.3545" y2="863.3545"/><text fill="#000000" font-family="Inter" font-size="21.875" lengthAdjust="spacing" textLength="328.125" x="577.3438" y="855.423">Return existing or validation error</text><line style="stroke:#9BB3D5;stroke-width:1.5625;stroke-dasharray:2.0,2.0;" x1="332.8125" x2="1607.0313" y1="877.417" y2="877.417"/><text fill="#000000" font-family="Inter" font-size="21.875" font-weight="bold" lengthAdjust="spacing" textLength="418.75" x="340.625" y="900.1251">[latest policy and existing submission]</text><polygon fill="#315B93" points="1507.8125,937.1338,1523.4375,943.3838,1507.8125,949.6338,1514.0625,943.3838" style="stroke:#315B93;stroke-width:1.5625;"/><line style="stroke:#315B93;stroke-width:2.1875;" x1="1021.0938" x2="1517.1875" y1="943.3838" y2="943.3838"/><text fill="#000000" font-family="Inter" font-size="21.875" lengthAdjust="spacing" textLength="265.625" x="1141.0156" y="935.4523">Update existing submission</text><polygon fill="#315B93" points="478.9063,986.5234,463.2813,992.7734,478.9063,999.0234,472.6563,992.7734" style="stroke:#315B93;stroke-width:1.5625;"/><line style="stroke:#315B93;stroke-width:2.1875;stroke-dasharray:2.0,2.0;" x1="469.5313" x2="1019.5313" y1="992.7734" y2="992.7734"/><text fill="#000000" font-family="Inter" font-size="21.875" lengthAdjust="spacing" textLength="198.4375" x="642.1875" y="984.8419">Submitted / updated</text><line style="stroke:#9BB3D5;stroke-width:1.5625;stroke-dasharray:2.0,2.0;" x1="332.8125" x2="1607.0313" y1="1006.8359" y2="1006.8359"/><text fill="#000000" font-family="Inter" font-size="21.875" font-weight="bold" lengthAdjust="spacing" textLength="173.4375" x="340.625" y="1029.5441">[multiple policy]</text><polygon fill="#315B93" points="1507.8125,1066.5527,1523.4375,1072.8027,1507.8125,1079.0527,1514.0625,1072.8027" style="stroke:#315B93;stroke-width:1.5625;"/><line style="stroke:#315B93;stroke-width:2.1875;" x1="1021.0938" x2="1517.1875" y1="1072.8027" y2="1072.8027"/><text fill="#000000" font-family="Inter" font-size="21.875" lengthAdjust="spacing" textLength="284.375" x="1131.6406" y="1064.8712">Create additional submission</text><polygon fill="#315B93" points="478.9063,1115.9424,463.2813,1122.1924,478.9063,1128.4424,472.6563,1122.1924" style="stroke:#315B93;stroke-width:1.5625;"/><line style="stroke:#315B93;stroke-width:2.1875;stroke-dasharray:2.0,2.0;" x1="469.5313" x2="1019.5313" y1="1122.1924" y2="1122.1924"/><text fill="#000000" font-family="Inter" font-size="21.875" lengthAdjust="spacing" textLength="98.4375" x="692.1875" y="1114.2609">Submitted</text><text fill="#000000" font-family="Inter" font-size="21.875" lengthAdjust="spacing" textLength="160.9375" x="892.5781" y="1190.213">deadline passes</text><polygon fill="#315B93" points="442.9688,1247.5342,458.5938,1253.7842,442.9688,1260.0342,449.2188,1253.7842" style="stroke:#315B93;stroke-width:1.5625;"/><line style="stroke:#315B93;stroke-width:2.1875;" x1="170.3125" x2="452.3438" y1="1253.7842" y2="1253.7842"/><text fill="#000000" font-family="Inter" font-size="21.875" lengthAdjust="spacing" textLength="250" x="191.0156" y="1245.8527">Try update after deadline</text><polygon fill="#315B93" points="1002.3438,1296.9238,1017.9688,1303.1738,1002.3438,1309.4238,1008.5938,1303.1738" style="stroke:#315B93;stroke-width:1.5625;"/><line style="stroke:#315B93;stroke-width:2.1875;" x1="461.7188" x2="1011.7188" y1="1303.1738" y2="1303.1738"/><text fill="#000000" font-family="Inter" font-size="21.875" lengthAdjust="spacing" textLength="187.5" x="647.6563" y="1295.2423">PATCH submission</text><polygon fill="#315B93" points="1327.3438,1346.3135,1342.9688,1352.5635,1327.3438,1358.8135,1333.5938,1352.5635" style="stroke:#315B93;stroke-width:1.5625;"/><line style="stroke:#315B93;stroke-width:2.1875;" x1="1021.0938" x2="1336.7188" y1="1352.5635" y2="1352.5635"/><text fill="#000000" font-family="Inter" font-size="21.875" lengthAdjust="spacing" textLength="196.875" x="1085.1563" y="1344.632">Reject locked round</text><polygon fill="#315B93" points="478.9063,1395.7031,463.2813,1401.9531,478.9063,1408.2031,472.6563,1401.9531" style="stroke:#315B93;stroke-width:1.5625;"/><line style="stroke:#315B93;stroke-width:2.1875;stroke-dasharray:2.0,2.0;" x1="469.5313" x2="1019.5313" y1="1401.9531" y2="1401.9531"/><text fill="#000000" font-family="Inter" font-size="21.875" lengthAdjust="spacing" textLength="214.0625" x="634.375" y="1394.0216">Locked after deadline</text><!--SRC=[ZLHDRnen4BtxLqmvmtBFeH8YQHg92if2UubKpQu7wk2rNTiBeLN-UsUzowSuS0hnl9atRzw3JygKkfO4MJQClwcYmLijrsgrprnTQH5Lr0Gv_Qd9b0G3oEkYKX5-MhyH0ijeFVH6pdcx9Gapz56Log69m8KnkeZAz003XDGNoGjt1kgDRUM8IPGry4YCrh1yIGsrkaGcuX0Qu6ZMGj1TOHvjnNpm0xMIsCnCC9bU1RzWWO6WDxCXhZtbtoTjlH2brPhAfYD0xzlJuylertmwNS0GfiKR5o1deRYcXAz8AXJYg0W6dtbRU82f8mDy4xKbyBOsKl0p5tbFhZu_yRpof3SC_odvCHHDbK6oOCp4eeGpISD8M4686ElmQj38o_6fzS3UEOEhbVKI6xVK2b1hkoDvQzkHbA2LsVGXqdliDuQjbAQBdMVJ_ERIYPu_fxyVmt3q9fpqj5uy7DmW7jd5XE7DKVkl9lN3JXbfTtrmLgjotqzhG51_IQ2ExNzTIgK0wEOd5nhPx0ore68VAPmGwQ9jUHd8VsaW5MUi2O8WFbyQ7vHPSw7bXkR4zAv2v5SuoJeCFTnkJh7sveJasssFeGFotdf1chEcMNY8TqxlLbwwTAuxriWxKoK7jKvTigMjQXsLEygw8XXxIdv8cJn5VGz5Ux4ioq0IIWuE3ySGAF0lHtOZNWk_xtRYI3Q5Gzjbm4QByTTp-klqp2bz_xGjDoppHkmdRUMAupy0]--></g></svg>