<?xml version="1.0" encoding="us-ascii" standalone="no"?><svg xmlns="http://www.w3.org/2000/svg" xmlns:xlink="http://www.w3.org/1999/xlink" contentStyleType="text/css" height="1354.6875px" preserveAspectRatio="none" style="width:1584px;height:1354px;background:#F7FAFF;" version="1.1" viewBox="0 0 1584 1354" width="1584.375px" zoomAndPan="magnify"><defs/><g><rect fill="#F7FAFF" height="1354.6875" style="stroke:none;stroke-width:1.5625;" width="1584.375" x="0" y="0"/><rect fill="#E7F0FF" height="62.793" id="_title" rx="9.375" ry="9.375" style="stroke:#B8CBEC;stroke-width:1.5625;" width="885.9375" x="348.0469" y="15.625"/><text fill="#13294B" font-family="Inter" font-size="37.5" font-weight="bold" lengthAdjust="spacing" textLength="870.3125" x="355.8594" y="62.3657">Sequence - Admin Management and Diagnostics</text><rect fill="none" height="213.5254" rx="12.5" ry="12.5" style="stroke:#9BB3D5;stroke-width:2.34375;" width="1017.9688" x="285.9375" y="987.7441"/><line style="stroke:#9BB3D5;stroke-width:0.78125;stroke-dasharray:5.0,5.0;" x1="76.5625" x2="76.5625" y1="209.0576" y2="1227.832"/><line style="stroke:#9BB3D5;stroke-width:0.78125;stroke-dasharray:5.0,5.0;" x1="373.4375" x2="373.4375" y1="209.0576" y2="1227.832"/><line style="stroke:#9BB3D5;stroke-width:0.78125;stroke-dasharray:5.0,5.0;" x1="753.9063" x2="753.9063" y1="209.0576" y2="1227.832"/><line style="stroke:#9BB3D5;stroke-width:0.78125;stroke-dasharray:5.0,5.0;" x1="1042.9688" x2="1042.9688" y1="209.0576" y2="1227.832"/><line style="stroke:#9BB3D5;stroke-width:0.78125;stroke-dasharray:5.0,5.0;" x1="1222.6563" x2="1222.6563" y1="209.0576" y2="1227.832"/><line style="stroke:#9BB3D5;stroke-width:0.78125;stroke-dasharray:5.0,5.0;" x1="1439.8438" x2="1439.8438" y1="209.0576" y2="1227.832"/><text fill="#1E2A44" font-family="Inter" font-size="21.875" lengthAdjust="spacing" textLength="129.6875" x="7.8125" y="204.2511">Administrator</text><ellipse cx="77.3438" cy="101.0742" fill="#FFF0E6" rx="12.5" ry="12.5" style="stroke:#E56C2C;stroke-width:0.78125;"/><path d="M77.3438,113.5742 L77.3438,155.7617 M57.0313,126.0742 L97.6563,126.0742 M77.3438,155.7617 L57.0313,179.1992 M77.3438,155.7617 L97.6563,179.1992 " fill="none" style="stroke:#E56C2C;stroke-width:0.78125;"/><text fill="#1E2A44" font-family="Inter" font-size="21.875" lengthAdjust="spacing" textLength="129.6875" x="7.8125" y="1248.9777">Administrator</text><ellipse cx="77.3438" cy="1267.0654" fill="#FFF0E6" rx="12.5" ry="12.5" style="stroke:#E56C2C;stroke-width:0.78125;"/><path d="M77.3438,1279.5654 L77.3438,1321.7529 M57.0313,1292.0654 L97.6563,1292.0654 M77.3438,1321.7529 L57.0313,1345.1904 M77.3438,1321.7529 L97.6563,1345.1904 " fill="none" style="stroke:#E56C2C;stroke-width:0.78125;"/><rect fill="#EAF2FF" height="49.3896" rx="12.5" ry="12.5" style="stroke:#5E86C5;stroke-width:0.78125;" width="145.3125" x="301.5625" y="158.1055"/><text fill="#13294B" font-family="Inter" font-size="21.875" lengthAdjust="spacing" textLength="123.4375" x="312.5" y="191.7511">Admin Panel</text><rect fill="#EAF2FF" height="49.3896" rx="12.5" ry="12.5" style="stroke:#5E86C5;stroke-width:0.78125;" width="145.3125" x="301.5625" y="1226.2695"/><text fill="#13294B" font-family="Inter" font-size="21.875" lengthAdjust="spacing" textLength="123.4375" x="312.5" y="1259.9152">Admin Panel</text><rect fill="#EAF2FF" height="49.3896" rx="12.5" ry="12.5" style="stroke:#5E86C5;stroke-width:0.78125;" width="121.875" x="692.9688" y="158.1055"/><text fill="#13294B" font-family="Inter" font-size="21.875" lengthAdjust="spacing" textLength="100" x="703.9063" y="191.7511">Admin API</text><rect fill="#EAF2FF" height="49.3896" rx="12.5" ry="12.5" style="stroke:#5E86C5;stroke-width:0.78125;" width="121.875" x="692.9688" y="1226.2695"/><text fill="#13294B" font-family="Inter" font-size="21.875" lengthAdjust="spacing" textLength="100" x="703.9063" y="1259.9152">Admin API</text><rect fill="#EAF2FF" height="49.3896" rx="12.5" ry="12.5" style="stroke:#5E86C5;stroke-width:0.78125;" width="200" x="942.9688" y="158.1055"/><text fill="#13294B" font-family="Inter" font-size="21.875" lengthAdjust="spacing" textLength="178.125" x="953.9063" y="191.7511">Domain Validation</text><rect fill="#EAF2FF" height="49.3896" rx="12.5" ry="12.5" style="stroke:#5E86C5;stroke-width:0.78125;" width="200" x="942.9688" y="1226.2695"/><text fill="#13294B" font-family="Inter" font-size="21.875" lengthAdjust="spacing" textLength="178.125" x="953.9063" y="1259.9152">Domain Validation</text><text fill="#153B33" font-family="Inter" font-size="21.875" lengthAdjust="spacing" textLength="120.3125" x="1158.5938" y="204.2511">PostgreSQL</text><path d="M1195.3125,125.293 C1195.3125,109.668 1223.4375,109.668 1223.4375,109.668 C1223.4375,109.668 1251.5625,109.668 1251.5625,125.293 L1251.5625,165.918 C1251.5625,181.543 1223.4375,181.543 1223.4375,181.543 C1223.4375,181.543 1195.3125,181.543 1195.3125,165.918 L1195.3125,125.293 " fill="#EAF8F4" style="stroke:#2C7A68;stroke-width:2.34375;"/><path d="M1195.3125,125.293 C1195.3125,140.918 1223.4375,140.918 1223.4375,140.918 C1223.4375,140.918 1251.5625,140.918 1251.5625,125.293 " fill="none" style="stroke:#2C7A68;stroke-width:2.34375;"/><text fill="#153B33" font-family="Inter" font-size="21.875" lengthAdjust="spacing" textLength="120.3125" x="1158.5938" y="1248.9777">PostgreSQL</text><path d="M1195.3125,1269.4092 C1195.3125,1253.7842 1223.4375,1253.7842 1223.4375,1253.7842 C1223.4375,1253.7842 1251.5625,1253.7842 1251.5625,1269.4092 L1251.5625,1310.0342 C1251.5625,1325.6592 1223.4375,1325.6592 1223.4375,1325.6592 C1223.4375,1325.6592 1195.3125,1325.6592 1195.3125,1310.0342 L1195.3125,1269.4092 " fill="#EAF8F4" style="stroke:#2C7A68;stroke-width:2.34375;"/><path d="M1195.3125,1269.4092 C1195.3125,1285.0342 1223.4375,1285.0342 1223.4375,1285.0342 C1223.4375,1285.0342 1251.5625,1285.0342 1251.5625,1269.4092 " fill="none" style="stroke:#2C7A68;stroke-width:2.34375;"/><rect fill="#EAF2FF" height="49.3896" rx="12.5" ry="12.5" style="stroke:#5E86C5;stroke-width:0.78125;" width="271.875" x="1303.9063" y="158.1055"/><text fill="#13294B" font-family="Inter" font-size="21.875" lengthAdjust="spacing" textLength="250" x="1314.8438" y="191.7511">Render / Runtime Metrics</text><rect fill="#EAF2FF" height="49.3896" rx="12.5" ry="12.5" style="stroke:#5E86C5;stroke-width:0.78125;" width="271.875" x="1303.9063" y="1226.2695"/><text fill="#13294B" font-family="Inter" font-size="21.875" lengthAdjust="spacing" textLength="250" x="1314.8438" y="1259.9152">Render / Runtime Metrics</text><polygon fill="#315B93" points="355.4688,255.3223,371.0938,261.5723,355.4688,267.8223,361.7188,261.5723" style="stroke:#315B93;stroke-width:1.5625;"/><line style="stroke:#315B93;stroke-width:2.1875;" x1="77.3438" x2="364.8438" y1="261.5723" y2="261.5723"/><text fill="#000000" font-family="Inter" font-size="21.875" lengthAdjust="spacing" textLength="181.25" x="135.1563" y="253.6407">Open admin panel</text><polygon fill="#315B93" points="735.1563,304.7119,750.7813,310.9619,735.1563,317.2119,741.4063,310.9619" style="stroke:#315B93;stroke-width:1.5625;"/><line style="stroke:#315B93;stroke-width:2.1875;" x1="374.2188" x2="744.5313" y1="310.9619" y2="310.9619"/><text fill="#000000" font-family="Inter" font-size="21.875" lengthAdjust="spacing" textLength="254.6875" x="436.7188" y="303.0304">GET /api/admin/summary/</text><polygon fill="#315B93" points="1204.6875,381.6162,1220.3125,387.8662,1204.6875,394.1162,1210.9375,387.8662" style="stroke:#315B93;stroke-width:1.5625;"/><line style="stroke:#315B93;stroke-width:2.1875;" x1="753.9063" x2="1214.0625" y1="387.8662" y2="387.8662"/><text fill="#000000" font-family="Inter" font-size="21.875" lengthAdjust="spacing" textLength="253.125" x="862.1094" y="352.42">Load users, competitions,</text><text fill="#000000" font-family="Inter" font-size="21.875" lengthAdjust="spacing" textLength="237.5" x="869.9219" y="379.9347">pending requests, filters</text><polygon fill="#315B93" points="1421.0938,458.5205,1436.7188,464.7705,1421.0938,471.0205,1427.3438,464.7705" style="stroke:#315B93;stroke-width:1.5625;"/><line style="stroke:#315B93;stroke-width:2.1875;" x1="753.9063" x2="1430.4688" y1="464.7705" y2="464.7705"/><text fill="#000000" font-family="Inter" font-size="21.875" lengthAdjust="spacing" textLength="235.9375" x="978.9063" y="429.3243">Load server diagnostics</text><text fill="#000000" font-family="Inter" font-size="21.875" lengthAdjust="spacing" textLength="145.3125" x="1024.2188" y="456.839">when available</text><polygon fill="#315B93" points="391.4063,507.9102,375.7813,514.1602,391.4063,520.4102,385.1563,514.1602" style="stroke:#315B93;stroke-width:1.5625;"/><line style="stroke:#315B93;stroke-width:2.1875;stroke-dasharray:2.0,2.0;" x1="382.0313" x2="752.3438" y1="514.1602" y2="514.1602"/><text fill="#000000" font-family="Inter" font-size="21.875" lengthAdjust="spacing" textLength="173.4375" x="477.3438" y="506.2286">Admin dashboard</text><polygon fill="#315B93" points="355.4688,557.2998,371.0938,563.5498,355.4688,569.7998,361.7188,563.5498" style="stroke:#315B93;stroke-width:1.5625;"/><line style="stroke:#315B93;stroke-width:2.1875;" x1="77.3438" x2="364.8438" y1="563.5498" y2="563.5498"/><text fill="#000000" font-family="Inter" font-size="21.875" lengthAdjust="spacing" textLength="164.0625" x="143.75" y="555.6183">Edit landing filter</text><polygon fill="#315B93" points="735.1563,606.6895,750.7813,612.9395,735.1563,619.1895,741.4063,612.9395" style="stroke:#315B93;stroke-width:1.5625;"/><line style="stroke:#315B93;stroke-width:2.1875;" x1="374.2188" x2="744.5313" y1="612.9395" y2="612.9395"/><text fill="#000000" font-family="Inter" font-size="21.875" lengthAdjust="spacing" textLength="284.375" x="421.875" y="605.0079">PATCH /api/admin/filters/{id}/</text><polygon fill="#315B93" points="1024.2188,683.5938,1039.8438,689.8438,1024.2188,696.0938,1030.4688,689.8438" style="stroke:#315B93;stroke-width:1.5625;"/><line style="stroke:#315B93;stroke-width:2.1875;" x1="753.9063" x2="1033.5938" y1="689.8438" y2="689.8438"/><text fill="#000000" font-family="Inter" font-size="21.875" lengthAdjust="spacing" textLength="146.875" x="825" y="654.3976">Allow edit/hide,</text><text fill="#000000" font-family="Inter" font-size="21.875" lengthAdjust="spacing" textLength="170.3125" x="813.2813" y="681.9122">block hard delete</text><polygon fill="#315B93" points="1204.6875,732.9834,1220.3125,739.2334,1204.6875,745.4834,1210.9375,739.2334" style="stroke:#315B93;stroke-width:1.5625;"/><line style="stroke:#315B93;stroke-width:2.1875;" x1="753.9063" x2="1214.0625" y1="739.2334" y2="739.2334"/><text fill="#000000" font-family="Inter" font-size="21.875" lengthAdjust="spacing" textLength="198.4375" x="889.4531" y="731.3019">Persist filter settings</text><polygon fill="#315B93" points="391.4063,782.373,375.7813,788.623,391.4063,794.873,385.1563,788.623" style="stroke:#315B93;stroke-width:1.5625;"/><line style="stroke:#315B93;stroke-width:2.1875;stroke-dasharray:2.0,2.0;" x1="382.0313" x2="752.3438" y1="788.623" y2="788.623"/><text fill="#000000" font-family="Inter" font-size="21.875" lengthAdjust="spacing" textLength="142.1875" x="492.9688" y="780.6915">Updated filters</text><polygon fill="#315B93" points="355.4688,831.7627,371.0938,838.0127,355.4688,844.2627,361.7188,838.0127" style="stroke:#315B93;stroke-width:1.5625;"/><line style="stroke:#315B93;stroke-width:2.1875;" x1="77.3438" x2="364.8438" y1="838.0127" y2="838.0127"/><text fill="#000000" font-family="Inter" font-size="21.875" lengthAdjust="spacing" textLength="259.375" x="96.0938" y="830.0812">Delete user or competition</text><polygon fill="#315B93" points="735.1563,881.1523,750.7813,887.4023,735.1563,893.6523,741.4063,887.4023" style="stroke:#315B93;stroke-width:1.5625;"/><line style="stroke:#315B93;stroke-width:2.1875;" x1="374.2188" x2="744.5313" y1="887.4023" y2="887.4023"/><text fill="#000000" font-family="Inter" font-size="21.875" lengthAdjust="spacing" textLength="342.1875" x="392.9688" y="879.4708">DELETE /api/admin/resources/{id}/</text><polygon fill="#315B93" points="1024.2188,958.0566,1039.8438,964.3066,1024.2188,970.5566,1030.4688,964.3066" style="stroke:#315B93;stroke-width:1.5625;"/><line style="stroke:#315B93;stroke-width:2.1875;" x1="753.9063" x2="1033.5938" y1="964.3066" y2="964.3066"/><text fill="#000000" font-family="Inter" font-size="21.875" lengthAdjust="spacing" textLength="251.5625" x="772.6563" y="928.8605">Validate referential safety</text><text fill="#000000" font-family="Inter" font-size="21.875" lengthAdjust="spacing" textLength="209.375" x="793.75" y="956.3751">and ownership fallout</text><path d="M298.4375,987.7441 L382.8125,987.7441 L382.8125,1002.7588 L367.1875,1018.3838 L285.9375,1018.3838 L285.9375,1000.2441 A12.5,12.5 0 0 1 298.4375,987.7441 " fill="#F8FBFF" style="stroke:#9BB3D5;stroke-width:2.34375;"/><rect fill="none" height="213.5254" rx="12.5" ry="12.5" style="stroke:#9BB3D5;stroke-width:2.34375;" width="1017.9688" x="285.9375" y="987.7441"/><text fill="#000000" font-family="Inter" font-size="21.875" font-weight="bold" lengthAdjust="spacing" textLength="26.5625" x="309.375" y="1012.0148">alt</text><text fill="#000000" font-family="Inter" font-size="21.875" font-weight="bold" lengthAdjust="spacing" textLength="139.0625" x="406.25" y="1013.5773">[safe delete]</text><polygon fill="#315B93" points="1204.6875,1053.1006,1220.3125,1059.3506,1204.6875,1065.6006,1210.9375,1059.3506" style="stroke:#315B93;stroke-width:1.5625;"/><line style="stroke:#315B93;stroke-width:2.1875;" x1="753.9063" x2="1214.0625" y1="1059.3506" y2="1059.3506"/><text fill="#000000" font-family="Inter" font-size="21.875" lengthAdjust="spacing" textLength="306.25" x="835.5469" y="1051.4191">Soft-delete or archive resource</text><polygon fill="#315B93" points="391.4063,1102.4902,375.7813,1108.7402,391.4063,1114.9902,385.1563,1108.7402" style="stroke:#315B93;stroke-width:1.5625;"/><line style="stroke:#315B93;stroke-width:2.1875;stroke-dasharray:2.0,2.0;" x1="382.0313" x2="752.3438" y1="1108.7402" y2="1108.7402"/><text fill="#000000" font-family="Inter" font-size="21.875" lengthAdjust="spacing" textLength="167.1875" x="480.4688" y="1100.8087">Deleted/archived</text><line style="stroke:#9BB3D5;stroke-width:1.5625;stroke-dasharray:2.0,2.0;" x1="285.9375" x2="1303.9063" y1="1122.8027" y2="1122.8027"/><text fill="#000000" font-family="Inter" font-size="21.875" font-weight="bold" lengthAdjust="spacing" textLength="167.1875" x="293.75" y="1145.5109">[unsafe delete]</text><polygon fill="#315B93" points="391.4063,1182.5195,375.7813,1188.7695,391.4063,1195.0195,385.1563,1188.7695" style="stroke:#315B93;stroke-width:1.5625;"/><line style="stroke:#315B93;stroke-width:2.1875;stroke-dasharray:2.0,2.0;" x1="382.0313" x2="752.3438" y1="1188.7695" y2="1188.7695"/><text fill="#000000" font-family="Inter" font-size="21.875" lengthAdjust="spacing" textLength="340.625" x="393.75" y="1180.838">Validation error with dependencies</text><!--SRC=[TPDDZzem48Rl_XLJpWkvzr095TIjnAfqeJrncSGJCgrZf_u0eQh_lPEO58AsDzlpUkPznkDtR2kJDC5YKSI6Mfh_IFh8zMNHfTQeoD4GxEXN8biHp66fMxRmWXQF8hOHq6fOCHwj2v6he1HMqNcO3K8EqQDiPu01i3zH7NhHSOToDujWYvRC84dyLdov_PmJT0_XbMjHuj_HiCR8pWuoFPmgES4I0y5iAzQEddPVDpbUJhEyajNaeO3NP2Et12yKlQ0CuZQl1MkmClyW7k4zVEd8PY3eUlTAJYKc3YNuQRs7GfR582X2QblqbqBrKH7fKZGRXnfI81-Ue79jHz9f0GXF1okfDTiZ-Bxh8OgWPXD5EIQuUXgpI9AJ-DUtHpZOSzFxEo4RB0tbYwFtt5IDeIaTUls8jjOSmM3sa2jFwBRB_SVdUxwhk-8twpytoFmqKiqOTmQIf4N3ceIlDAxw2OsK1as68aqQivLKCZRNoW8NenW9KuHldRmkwN-DUK1O3Mc7zeBCubr_9oIhzMQzNz-ZU0ek-Oh-1tETD9AtgSdB-3CQ25XJl1ni_nFSsOgVXZkeKS1JL6ZYe1XP0UvfTwwEynpfdQAl6ZxrwREFKJq5qyLLfnKP6V1atoWmNhbz3Y3lfSQPOoFQVihaJpC59Ilr5m00]--></g></svg>